<?xml version="1.0" encoding="utf-8" standalone="no"?>
<!DOCTYPE svg PUBLIC "-//W3C//DTD SVG 1.1//EN"
  "http://www.w3.org/Graphics/SVG/1.1/DTD/svg11.dtd">
<svg xmlns:xlink="http://www.w3.org/1999/xlink" width="864pt" height="576pt" viewBox="0 0 864 576" xmlns="http://www.w3.org/2000/svg" version="1.1">
 <metadata>
  <rdf:RDF xmlns:dc="http://purl.org/dc/elements/1.1/" xmlns:cc="http://creativecommons.org/ns#" xmlns:rdf="http://www.w3.org/1999/02/22-rdf-syntax-ns#">
   <cc:Work>
    <dc:type rdf:resource="http://purl.org/dc/dcmitype/StillImage"/>
    <dc:date>2023-10-16T14:26:21.301144</dc:date>
    <dc:format>image/svg+xml</dc:format>
    <dc:creator>
     <cc:Agent>
      <dc:title>Matplotlib v3.5.2, https://matplotlib.org/</dc:title>
     </cc:Agent>
    </dc:creator>
   </cc:Work>
  </rdf:RDF>
 </metadata>
 <defs>
  <style type="text/css">*{stroke-linejoin: round; stroke-linecap: butt}</style>
 </defs>
 <g id="figure_1">
  <g id="patch_1">
   <path d="M 0 576 
L 864 576 
L 864 0 
L 0 0 
z
" style="fill: #ffffff"/>
  </g>
  <g id="axes_1">
   <g id="patch_2">
    <path d="M 108 199.567059 
L 412.363636 199.567059 
L 412.363636 69.12 
L 108 69.12 
z
" style="fill: #ffffff"/>
   </g>
   <g id="matplotlib.axis_1">
    <g id="xtick_1">
     <g id="line2d_1">
      <path d="M 121.834711 199.567059 
L 121.834711 69.12 
" clip-path="url(#p517d9719ee)" style="fill: none; stroke: #b0b0b0; stroke-width: 0.8; stroke-linecap: square"/>
     </g>
     <g id="line2d_2">
      <defs>
       <path id="m269112938b" d="M 0 0 
L 0 3.5 
" style="stroke: #000000; stroke-width: 0.8"/>
      </defs>
      <g>
       <use xlink:href="#m269112938b" x="121.834711" y="199.567059" style="stroke: #000000; stroke-width: 0.8"/>
      </g>
     </g>
     <g id="text_1">
      <!-- 0 -->
      <g transform="translate(118.653461 214.165496)scale(0.1 -0.1)">
       <defs>
        <path id="DejaVuSans-30" d="M 2034 4250 
Q 1547 4250 1301 3770 
Q 1056 3291 1056 2328 
Q 1056 1369 1301 889 
Q 1547 409 2034 409 
Q 2525 409 2770 889 
Q 3016 1369 3016 2328 
Q 3016 3291 2770 3770 
Q 2525 4250 2034 4250 
z
M 2034 4750 
Q 2819 4750 3233 4129 
Q 3647 3509 3647 2328 
Q 3647 1150 3233 529 
Q 2819 -91 2034 -91 
Q 1250 -91 836 529 
Q 422 1150 422 2328 
Q 422 3509 836 4129 
Q 1250 4750 2034 4750 
z
" transform="scale(0.015625)"/>
       </defs>
       <use xlink:href="#DejaVuSans-30"/>
      </g>
     </g>
    </g>
    <g id="xtick_2">
     <g id="line2d_3">
      <path d="M 156.421488 199.567059 
L 156.421488 69.12 
" clip-path="url(#p517d9719ee)" style="fill: none; stroke: #b0b0b0; stroke-width: 0.8; stroke-linecap: square"/>
     </g>
     <g id="line2d_4">
      <g>
       <use xlink:href="#m269112938b" x="156.421488" y="199.567059" style="stroke: #000000; stroke-width: 0.8"/>
      </g>
     </g>
     <g id="text_2">
      <!-- 25 -->
      <g transform="translate(150.058988 214.165496)scale(0.1 -0.1)">
       <defs>
        <path id="DejaVuSans-32" d="M 1228 531 
L 3431 531 
L 3431 0 
L 469 0 
L 469 531 
Q 828 903 1448 1529 
Q 2069 2156 2228 2338 
Q 2531 2678 2651 2914 
Q 2772 3150 2772 3378 
Q 2772 3750 2511 3984 
Q 2250 4219 1831 4219 
Q 1534 4219 1204 4116 
Q 875 4013 500 3803 
L 500 4441 
Q 881 4594 1212 4672 
Q 1544 4750 1819 4750 
Q 2544 4750 2975 4387 
Q 3406 4025 3406 3419 
Q 3406 3131 3298 2873 
Q 3191 2616 2906 2266 
Q 2828 2175 2409 1742 
Q 1991 1309 1228 531 
z
" transform="scale(0.015625)"/>
        <path id="DejaVuSans-35" d="M 691 4666 
L 3169 4666 
L 3169 4134 
L 1269 4134 
L 1269 2991 
Q 1406 3038 1543 3061 
Q 1681 3084 1819 3084 
Q 2600 3084 3056 2656 
Q 3513 2228 3513 1497 
Q 3513 744 3044 326 
Q 2575 -91 1722 -91 
Q 1428 -91 1123 -41 
Q 819 9 494 109 
L 494 744 
Q 775 591 1075 516 
Q 1375 441 1709 441 
Q 2250 441 2565 725 
Q 2881 1009 2881 1497 
Q 2881 1984 2565 2268 
Q 2250 2553 1709 2553 
Q 1456 2553 1204 2497 
Q 953 2441 691 2322 
L 691 4666 
z
" transform="scale(0.015625)"/>
       </defs>
       <use xlink:href="#DejaVuSans-32"/>
       <use xlink:href="#DejaVuSans-35" x="63.623047"/>
      </g>
     </g>
    </g>
    <g id="xtick_3">
     <g id="line2d_5">
      <path d="M 191.008264 199.567059 
L 191.008264 69.12 
" clip-path="url(#p517d9719ee)" style="fill: none; stroke: #b0b0b0; stroke-width: 0.8; stroke-linecap: square"/>
     </g>
     <g id="line2d_6">
      <g>
       <use xlink:href="#m269112938b" x="191.008264" y="199.567059" style="stroke: #000000; stroke-width: 0.8"/>
      </g>
     </g>
     <g id="text_3">
      <!-- 50 -->
      <g transform="translate(184.645764 214.165496)scale(0.1 -0.1)">
       <use xlink:href="#DejaVuSans-35"/>
       <use xlink:href="#DejaVuSans-30" x="63.623047"/>
      </g>
     </g>
    </g>
    <g id="xtick_4">
     <g id="line2d_7">
      <path d="M 225.595041 199.567059 
L 225.595041 69.12 
" clip-path="url(#p517d9719ee)" style="fill: none; stroke: #b0b0b0; stroke-width: 0.8; stroke-linecap: square"/>
     </g>
     <g id="line2d_8">
      <g>
       <use xlink:href="#m269112938b" x="225.595041" y="199.567059" style="stroke: #000000; stroke-width: 0.8"/>
      </g>
     </g>
     <g id="text_4">
      <!-- 75 -->
      <g transform="translate(219.232541 214.165496)scale(0.1 -0.1)">
       <defs>
        <path id="DejaVuSans-37" d="M 525 4666 
L 3525 4666 
L 3525 4397 
L 1831 0 
L 1172 0 
L 2766 4134 
L 525 4134 
L 525 4666 
z
" transform="scale(0.015625)"/>
       </defs>
       <use xlink:href="#DejaVuSans-37"/>
       <use xlink:href="#DejaVuSans-35" x="63.623047"/>
      </g>
     </g>
    </g>
    <g id="xtick_5">
     <g id="line2d_9">
      <path d="M 260.181818 199.567059 
L 260.181818 69.12 
" clip-path="url(#p517d9719ee)" style="fill: none; stroke: #b0b0b0; stroke-width: 0.8; stroke-linecap: square"/>
     </g>
     <g id="line2d_10">
      <g>
       <use xlink:href="#m269112938b" x="260.181818" y="199.567059" style="stroke: #000000; stroke-width: 0.8"/>
      </g>
     </g>
     <g id="text_5">
      <!-- 100 -->
      <g transform="translate(250.638068 214.165496)scale(0.1 -0.1)">
       <defs>
        <path id="DejaVuSans-31" d="M 794 531 
L 1825 531 
L 1825 4091 
L 703 3866 
L 703 4441 
L 1819 4666 
L 2450 4666 
L 2450 531 
L 3481 531 
L 3481 0 
L 794 0 
L 794 531 
z
" transform="scale(0.015625)"/>
       </defs>
       <use xlink:href="#DejaVuSans-31"/>
       <use xlink:href="#DejaVuSans-30" x="63.623047"/>
       <use xlink:href="#DejaVuSans-30" x="127.246094"/>
      </g>
     </g>
    </g>
    <g id="xtick_6">
     <g id="line2d_11">
      <path d="M 294.768595 199.567059 
L 294.768595 69.12 
" clip-path="url(#p517d9719ee)" style="fill: none; stroke: #b0b0b0; stroke-width: 0.8; stroke-linecap: square"/>
     </g>
     <g id="line2d_12">
      <g>
       <use xlink:href="#m269112938b" x="294.768595" y="199.567059" style="stroke: #000000; stroke-width: 0.8"/>
      </g>
     </g>
     <g id="text_6">
      <!-- 125 -->
      <g transform="translate(285.224845 214.165496)scale(0.1 -0.1)">
       <use xlink:href="#DejaVuSans-31"/>
       <use xlink:href="#DejaVuSans-32" x="63.623047"/>
       <use xlink:href="#DejaVuSans-35" x="127.246094"/>
      </g>
     </g>
    </g>
    <g id="xtick_7">
     <g id="line2d_13">
      <path d="M 329.355372 199.567059 
L 329.355372 69.12 
" clip-path="url(#p517d9719ee)" style="fill: none; stroke: #b0b0b0; stroke-width: 0.8; stroke-linecap: square"/>
     </g>
     <g id="line2d_14">
      <g>
       <use xlink:href="#m269112938b" x="329.355372" y="199.567059" style="stroke: #000000; stroke-width: 0.8"/>
      </g>
     </g>
     <g id="text_7">
      <!-- 150 -->
      <g transform="translate(319.811622 214.165496)scale(0.1 -0.1)">
       <use xlink:href="#DejaVuSans-31"/>
       <use xlink:href="#DejaVuSans-35" x="63.623047"/>
       <use xlink:href="#DejaVuSans-30" x="127.246094"/>
      </g>
     </g>
    </g>
    <g id="xtick_8">
     <g id="line2d_15">
      <path d="M 363.942149 199.567059 
L 363.942149 69.12 
" clip-path="url(#p517d9719ee)" style="fill: none; stroke: #b0b0b0; stroke-width: 0.8; stroke-linecap: square"/>
     </g>
     <g id="line2d_16">
      <g>
       <use xlink:href="#m269112938b" x="363.942149" y="199.567059" style="stroke: #000000; stroke-width: 0.8"/>
      </g>
     </g>
     <g id="text_8">
      <!-- 175 -->
      <g transform="translate(354.398399 214.165496)scale(0.1 -0.1)">
       <use xlink:href="#DejaVuSans-31"/>
       <use xlink:href="#DejaVuSans-37" x="63.623047"/>
       <use xlink:href="#DejaVuSans-35" x="127.246094"/>
      </g>
     </g>
    </g>
    <g id="xtick_9">
     <g id="line2d_17">
      <path d="M 398.528926 199.567059 
L 398.528926 69.12 
" clip-path="url(#p517d9719ee)" style="fill: none; stroke: #b0b0b0; stroke-width: 0.8; stroke-linecap: square"/>
     </g>
     <g id="line2d_18">
      <g>
       <use xlink:href="#m269112938b" x="398.528926" y="199.567059" style="stroke: #000000; stroke-width: 0.8"/>
      </g>
     </g>
     <g id="text_9">
      <!-- 200 -->
      <g transform="translate(388.985176 214.165496)scale(0.1 -0.1)">
       <use xlink:href="#DejaVuSans-32"/>
       <use xlink:href="#DejaVuSans-30" x="63.623047"/>
       <use xlink:href="#DejaVuSans-30" x="127.246094"/>
      </g>
     </g>
    </g>
   </g>
   <g id="matplotlib.axis_2">
    <g id="ytick_1">
     <g id="line2d_19">
      <path d="M 108 181.574361 
L 412.363636 181.574361 
" clip-path="url(#p517d9719ee)" style="fill: none; stroke: #b0b0b0; stroke-width: 0.8; stroke-linecap: square"/>
     </g>
     <g id="line2d_20">
      <defs>
       <path id="med53c1415d" d="M 0 0 
L -3.5 0 
" style="stroke: #000000; stroke-width: 0.8"/>
      </defs>
      <g>
       <use xlink:href="#med53c1415d" x="108" y="181.574361" style="stroke: #000000; stroke-width: 0.8"/>
      </g>
     </g>
     <g id="text_10">
      <!-- 0 -->
      <g transform="translate(94.6375 185.37358)scale(0.1 -0.1)">
       <use xlink:href="#DejaVuSans-30"/>
      </g>
     </g>
    </g>
    <g id="ytick_2">
     <g id="line2d_21">
      <path d="M 108 159.083489 
L 412.363636 159.083489 
" clip-path="url(#p517d9719ee)" style="fill: none; stroke: #b0b0b0; stroke-width: 0.8; stroke-linecap: square"/>
     </g>
     <g id="line2d_22">
      <g>
       <use xlink:href="#med53c1415d" x="108" y="159.083489" style="stroke: #000000; stroke-width: 0.8"/>
      </g>
     </g>
     <g id="text_11">
      <!-- 5 -->
      <g transform="translate(94.6375 162.882708)scale(0.1 -0.1)">
       <use xlink:href="#DejaVuSans-35"/>
      </g>
     </g>
    </g>
    <g id="ytick_3">
     <g id="line2d_23">
      <path d="M 108 136.592617 
L 412.363636 136.592617 
" clip-path="url(#p517d9719ee)" style="fill: none; stroke: #b0b0b0; stroke-width: 0.8; stroke-linecap: square"/>
     </g>
     <g id="line2d_24">
      <g>
       <use xlink:href="#med53c1415d" x="108" y="136.592617" style="stroke: #000000; stroke-width: 0.8"/>
      </g>
     </g>
     <g id="text_12">
      <!-- 10 -->
      <g transform="translate(88.275 140.391835)scale(0.1 -0.1)">
       <use xlink:href="#DejaVuSans-31"/>
       <use xlink:href="#DejaVuSans-30" x="63.623047"/>
      </g>
     </g>
    </g>
    <g id="ytick_4">
     <g id="line2d_25">
      <path d="M 108 114.101744 
L 412.363636 114.101744 
" clip-path="url(#p517d9719ee)" style="fill: none; stroke: #b0b0b0; stroke-width: 0.8; stroke-linecap: square"/>
     </g>
     <g id="line2d_26">
      <g>
       <use xlink:href="#med53c1415d" x="108" y="114.101744" style="stroke: #000000; stroke-width: 0.8"/>
      </g>
     </g>
     <g id="text_13">
      <!-- 15 -->
      <g transform="translate(88.275 117.900963)scale(0.1 -0.1)">
       <use xlink:href="#DejaVuSans-31"/>
       <use xlink:href="#DejaVuSans-35" x="63.623047"/>
      </g>
     </g>
    </g>
    <g id="ytick_5">
     <g id="line2d_27">
      <path d="M 108 91.610872 
L 412.363636 91.610872 
" clip-path="url(#p517d9719ee)" style="fill: none; stroke: #b0b0b0; stroke-width: 0.8; stroke-linecap: square"/>
     </g>
     <g id="line2d_28">
      <g>
       <use xlink:href="#med53c1415d" x="108" y="91.610872" style="stroke: #000000; stroke-width: 0.8"/>
      </g>
     </g>
     <g id="text_14">
      <!-- 20 -->
      <g transform="translate(88.275 95.410091)scale(0.1 -0.1)">
       <use xlink:href="#DejaVuSans-32"/>
       <use xlink:href="#DejaVuSans-30" x="63.623047"/>
      </g>
     </g>
    </g>
    <g id="ytick_6">
     <g id="line2d_29">
      <path d="M 108 69.12 
L 412.363636 69.12 
" clip-path="url(#p517d9719ee)" style="fill: none; stroke: #b0b0b0; stroke-width: 0.8; stroke-linecap: square"/>
     </g>
     <g id="line2d_30">
      <g>
       <use xlink:href="#med53c1415d" x="108" y="69.12" style="stroke: #000000; stroke-width: 0.8"/>
      </g>
     </g>
     <g id="text_15">
      <!-- 25 -->
      <g transform="translate(88.275 72.919219)scale(0.1 -0.1)">
       <use xlink:href="#DejaVuSans-32"/>
       <use xlink:href="#DejaVuSans-35" x="63.623047"/>
      </g>
     </g>
    </g>
    <g id="text_16">
     <!-- Position -->
     <g transform="translate(82.195312 153.807592)rotate(-90)scale(0.1 -0.1)">
      <defs>
       <path id="DejaVuSans-50" d="M 1259 4147 
L 1259 2394 
L 2053 2394 
Q 2494 2394 2734 2622 
Q 2975 2850 2975 3272 
Q 2975 3691 2734 3919 
Q 2494 4147 2053 4147 
L 1259 4147 
z
M 628 4666 
L 2053 4666 
Q 2838 4666 3239 4311 
Q 3641 3956 3641 3272 
Q 3641 2581 3239 2228 
Q 2838 1875 2053 1875 
L 1259 1875 
L 1259 0 
L 628 0 
L 628 4666 
z
" transform="scale(0.015625)"/>
       <path id="DejaVuSans-6f" d="M 1959 3097 
Q 1497 3097 1228 2736 
Q 959 2375 959 1747 
Q 959 1119 1226 758 
Q 1494 397 1959 397 
Q 2419 397 2687 759 
Q 2956 1122 2956 1747 
Q 2956 2369 2687 2733 
Q 2419 3097 1959 3097 
z
M 1959 3584 
Q 2709 3584 3137 3096 
Q 3566 2609 3566 1747 
Q 3566 888 3137 398 
Q 2709 -91 1959 -91 
Q 1206 -91 779 398 
Q 353 888 353 1747 
Q 353 2609 779 3096 
Q 1206 3584 1959 3584 
z
" transform="scale(0.015625)"/>
       <path id="DejaVuSans-73" d="M 2834 3397 
L 2834 2853 
Q 2591 2978 2328 3040 
Q 2066 3103 1784 3103 
Q 1356 3103 1142 2972 
Q 928 2841 928 2578 
Q 928 2378 1081 2264 
Q 1234 2150 1697 2047 
L 1894 2003 
Q 2506 1872 2764 1633 
Q 3022 1394 3022 966 
Q 3022 478 2636 193 
Q 2250 -91 1575 -91 
Q 1294 -91 989 -36 
Q 684 19 347 128 
L 347 722 
Q 666 556 975 473 
Q 1284 391 1588 391 
Q 1994 391 2212 530 
Q 2431 669 2431 922 
Q 2431 1156 2273 1281 
Q 2116 1406 1581 1522 
L 1381 1569 
Q 847 1681 609 1914 
Q 372 2147 372 2553 
Q 372 3047 722 3315 
Q 1072 3584 1716 3584 
Q 2034 3584 2315 3537 
Q 2597 3491 2834 3397 
z
" transform="scale(0.015625)"/>
       <path id="DejaVuSans-69" d="M 603 3500 
L 1178 3500 
L 1178 0 
L 603 0 
L 603 3500 
z
M 603 4863 
L 1178 4863 
L 1178 4134 
L 603 4134 
L 603 4863 
z
" transform="scale(0.015625)"/>
       <path id="DejaVuSans-74" d="M 1172 4494 
L 1172 3500 
L 2356 3500 
L 2356 3053 
L 1172 3053 
L 1172 1153 
Q 1172 725 1289 603 
Q 1406 481 1766 481 
L 2356 481 
L 2356 0 
L 1766 0 
Q 1100 0 847 248 
Q 594 497 594 1153 
L 594 3053 
L 172 3053 
L 172 3500 
L 594 3500 
L 594 4494 
L 1172 4494 
z
" transform="scale(0.015625)"/>
       <path id="DejaVuSans-6e" d="M 3513 2113 
L 3513 0 
L 2938 0 
L 2938 2094 
Q 2938 2591 2744 2837 
Q 2550 3084 2163 3084 
Q 1697 3084 1428 2787 
Q 1159 2491 1159 1978 
L 1159 0 
L 581 0 
L 581 3500 
L 1159 3500 
L 1159 2956 
Q 1366 3272 1645 3428 
Q 1925 3584 2291 3584 
Q 2894 3584 3203 3211 
Q 3513 2838 3513 2113 
z
" transform="scale(0.015625)"/>
      </defs>
      <use xlink:href="#DejaVuSans-50"/>
      <use xlink:href="#DejaVuSans-6f" x="56.677734"/>
      <use xlink:href="#DejaVuSans-73" x="117.859375"/>
      <use xlink:href="#DejaVuSans-69" x="169.958984"/>
      <use xlink:href="#DejaVuSans-74" x="197.742188"/>
      <use xlink:href="#DejaVuSans-69" x="236.951172"/>
      <use xlink:href="#DejaVuSans-6f" x="264.734375"/>
      <use xlink:href="#DejaVuSans-6e" x="325.916016"/>
     </g>
    </g>
   </g>
   <g id="line2d_31">
    <path d="M 121.834711 181.574361 
L 137.052893 181.469913 
L 145.353719 181.171708 
L 152.271074 180.699282 
L 159.18843 179.977868 
L 164.722314 179.202999 
L 170.256198 178.245531 
L 175.790083 177.106804 
L 177.173554 193.989724 
L 184.090909 193.112425 
L 191.008264 192.005186 
L 199.309091 190.442207 
L 213.143802 187.5477 
L 225.595041 185.025168 
L 232.512397 183.806091 
L 233.895868 177.625024 
L 240.813223 176.192282 
L 247.730579 175.006871 
L 254.647934 174.090534 
L 261.565289 173.447764 
L 268.482645 173.065523 
L 275.4 172.914058 
L 283.700826 172.973242 
L 287.85124 173.072838 
L 289.234711 158.013203 
L 312.753719 154.493636 
L 319.671074 153.211177 
L 326.58843 151.712489 
L 333.505785 149.958417 
L 340.42314 147.925491 
L 343.190083 147.032235 
L 344.573554 162.8522 
L 351.490909 161.686887 
L 358.408264 160.262575 
L 365.32562 158.616682 
L 373.626446 156.421676 
L 397.145455 149.847961 
L 398.528926 138.190065 
L 398.528926 138.190065 
" clip-path="url(#p517d9719ee)" style="fill: none; stroke: #1f77b4; stroke-width: 1.5; stroke-linecap: square"/>
   </g>
   <g id="line2d_32">
    <path d="M 121.834711 181.574361 
L 123.218182 179.553321 
L 125.985124 179.554123 
L 127.368595 180.517099 
L 128.752066 185.523256 
L 130.135537 187.122098 
L 131.519008 190.201946 
L 132.902479 186.949331 
L 134.28595 188.031544 
L 135.669421 188.503596 
L 137.052893 189.661914 
L 138.436364 188.870985 
L 139.819835 189.343934 
L 141.203306 190.407233 
L 142.586777 190.319831 
L 143.970248 188.456049 
L 145.353719 187.432612 
L 146.73719 187.957209 
L 148.120661 188.162352 
L 149.504132 193.025129 
L 150.887603 192.108011 
L 152.271074 191.943498 
L 153.654545 193.996489 
L 155.038017 192.937625 
L 156.421488 190.265571 
L 157.804959 188.789094 
L 159.18843 182.378403 
L 160.571901 184.877478 
L 161.955372 187.736004 
L 163.338843 187.005566 
L 164.722314 188.506195 
L 166.105785 189.130949 
L 167.489256 191.3054 
L 168.872727 191.945243 
L 170.256198 195.271739 
L 171.639669 196.800111 
L 173.02314 198.834079 
L 174.406612 195.380175 
L 175.790083 193.885844 
L 177.173554 194.311463 
L 178.557025 194.169049 
L 179.940496 198.649286 
L 181.323967 197.022516 
L 182.707438 197.042344 
L 184.090909 197.795106 
L 185.47438 198.911364 
L 186.857851 198.674032 
L 188.241322 199.680582 
L 189.624793 199.732413 
L 191.008264 201.260375 
L 192.391736 199.409654 
L 193.775207 195.718285 
L 195.158678 196.426551 
L 196.542149 192.115113 
L 197.92562 192.087794 
L 199.309091 190.357314 
L 200.692562 188.378224 
L 202.076033 185.743582 
L 203.459504 187.710944 
L 204.842975 185.591595 
L 206.226446 188.11106 
L 207.609917 187.958317 
L 210.37686 189.904453 
L 211.760331 188.966399 
L 213.143802 190.128717 
L 214.527273 189.398184 
L 215.910744 187.726244 
L 217.294215 184.709806 
L 218.677686 183.9453 
L 220.061157 186.59914 
L 221.444628 184.716773 
L 222.828099 184.363482 
L 224.21157 183.797845 
L 225.595041 183.501953 
L 226.978512 183.413267 
L 228.361983 181.875384 
L 229.745455 183.020228 
L 231.128926 179.113955 
L 232.512397 177.174514 
L 233.895868 177.665364 
L 235.279339 175.852393 
L 236.66281 170.782843 
L 238.046281 172.442776 
L 239.429752 176.740463 
L 240.813223 177.368192 
L 242.196694 176.553267 
L 243.580165 173.822564 
L 244.963636 174.391038 
L 246.347107 172.255236 
L 247.730579 172.020681 
L 249.11405 173.188806 
L 250.497521 176.46046 
L 251.880992 177.374794 
L 254.647934 172.943186 
L 256.031405 172.846189 
L 257.414876 174.035311 
L 258.798347 175.416494 
L 260.181818 175.142785 
L 261.565289 178.40737 
L 262.94876 173.864837 
L 264.332231 171.002549 
L 265.715702 171.239657 
L 267.099174 172.644172 
L 268.482645 175.156287 
L 269.866116 175.932365 
L 271.249587 173.949335 
L 272.633058 174.493309 
L 274.016529 173.01623 
L 275.4 177.06927 
L 276.783471 173.70244 
L 279.550413 167.485612 
L 280.933884 165.90943 
L 282.317355 163.973088 
L 283.700826 164.85435 
L 285.084298 162.812941 
L 286.467769 159.935757 
L 287.85124 159.439483 
L 289.234711 158.533738 
L 290.618182 158.707456 
L 292.001653 156.440025 
L 293.385124 158.425714 
L 294.768595 155.411456 
L 297.535537 155.166016 
L 298.919008 153.134882 
L 300.302479 154.326808 
L 301.68595 156.197757 
L 303.069421 158.786332 
L 304.452893 158.442101 
L 305.836364 159.259755 
L 307.219835 160.883396 
L 308.603306 163.887275 
L 309.986777 162.957743 
L 311.370248 162.524043 
L 312.753719 160.794884 
L 314.13719 161.240308 
L 315.520661 163.053673 
L 316.904132 163.742689 
L 319.671074 160.429132 
L 321.054545 161.417433 
L 322.438017 161.860203 
L 323.821488 162.539286 
L 325.204959 161.003521 
L 326.58843 161.528806 
L 327.971901 160.815578 
L 329.355372 163.619503 
L 332.122314 160.932985 
L 333.505785 161.62546 
L 336.272727 158.273264 
L 337.656198 159.851642 
L 339.039669 163.479144 
L 340.42314 162.097631 
L 341.806612 163.956807 
L 343.190083 164.067696 
L 344.573554 162.672393 
L 345.957025 161.033398 
L 347.340496 163.444591 
L 348.723967 166.404771 
L 350.107438 167.027947 
L 351.490909 168.084155 
L 352.87438 170.994041 
L 354.257851 167.435863 
L 355.641322 165.394326 
L 358.408264 160.12593 
L 359.791736 161.257433 
L 361.175207 161.696072 
L 362.558678 161.470972 
L 363.942149 157.321167 
L 365.32562 154.006425 
L 366.709091 153.897456 
L 368.092562 147.833355 
L 369.476033 144.677633 
L 370.859504 142.237505 
L 372.242975 140.230059 
L 373.626446 140.281981 
L 375.009917 139.315045 
L 376.393388 139.562093 
L 377.77686 138.754046 
L 379.160331 140.065451 
L 380.543802 140.445535 
L 381.927273 142.491986 
L 383.310744 137.669242 
L 384.694215 139.447908 
L 386.077686 140.660851 
L 387.461157 140.242347 
L 388.844628 137.546962 
L 390.228099 140.405347 
L 392.995041 140.411732 
L 394.378512 139.971249 
L 395.761983 142.448291 
L 397.145455 142.070859 
L 398.528926 138.45301 
L 398.528926 138.45301 
" clip-path="url(#p517d9719ee)" style="fill: none; stroke: #ff7f0e; stroke-width: 1.5; stroke-linecap: square"/>
   </g>
   <g id="line2d_33">
    <path d="M 121.834711 181.574361 
L 137.052893 181.469913 
L 145.353719 181.171708 
L 152.271074 180.699282 
L 159.18843 179.977868 
L 164.722314 179.202999 
L 170.256198 178.245531 
L 177.173554 176.794642 
L 184.090909 175.07931 
L 191.008264 173.134037 
L 199.309091 170.565418 
L 213.143802 165.994843 
L 225.595041 161.963851 
L 233.895868 159.517871 
L 240.813223 157.706645 
L 247.730579 156.142749 
L 254.647934 154.847927 
L 261.565289 153.826673 
L 268.482645 153.065948 
L 275.4 152.535998 
L 283.700826 152.141001 
L 296.152066 151.828148 
L 309.986777 151.44354 
L 318.287603 150.978098 
L 325.204959 150.366694 
L 332.122314 149.506547 
L 337.656198 148.620792 
L 343.190083 147.552458 
L 350.107438 145.962918 
L 357.024793 144.108746 
L 363.942149 142.024337 
L 372.242975 139.288238 
L 386.077686 134.437028 
L 398.528926 130.151796 
L 398.528926 130.151796 
" clip-path="url(#p517d9719ee)" style="fill: none; stroke: #2ca02c; stroke-width: 1.5; stroke-linecap: square"/>
   </g>
   <g id="patch_3">
    <path d="M 108 199.567059 
L 108 69.12 
" style="fill: none; stroke: #000000; stroke-width: 0.8; stroke-linejoin: miter; stroke-linecap: square"/>
   </g>
   <g id="patch_4">
    <path d="M 412.363636 199.567059 
L 412.363636 69.12 
" style="fill: none; stroke: #000000; stroke-width: 0.8; stroke-linejoin: miter; stroke-linecap: square"/>
   </g>
   <g id="patch_5">
    <path d="M 108 199.567059 
L 412.363636 199.567059 
" style="fill: none; stroke: #000000; stroke-width: 0.8; stroke-linejoin: miter; stroke-linecap: square"/>
   </g>
   <g id="patch_6">
    <path d="M 108 69.12 
L 412.363636 69.12 
" style="fill: none; stroke: #000000; stroke-width: 0.8; stroke-linejoin: miter; stroke-linecap: square"/>
   </g>
   <g id="legend_1">
    <g id="patch_7">
     <path d="M 280.740199 121.154375 
L 405.363636 121.154375 
Q 407.363636 121.154375 407.363636 119.154375 
L 407.363636 76.12 
Q 407.363636 74.12 405.363636 74.12 
L 280.740199 74.12 
Q 278.740199 74.12 278.740199 76.12 
L 278.740199 119.154375 
Q 278.740199 121.154375 280.740199 121.154375 
z
" style="fill: #ffffff; opacity: 0.8; stroke: #cccccc; stroke-linejoin: miter"/>
    </g>
    <g id="line2d_34">
     <path d="M 282.740199 82.218437 
L 292.740199 82.218437 
L 302.740199 82.218437 
" style="fill: none; stroke: #1f77b4; stroke-width: 1.5; stroke-linecap: square"/>
    </g>
    <g id="text_17">
     <!-- Estimated Position -->
     <g transform="translate(310.740199 85.718437)scale(0.1 -0.1)">
      <defs>
       <path id="DejaVuSans-45" d="M 628 4666 
L 3578 4666 
L 3578 4134 
L 1259 4134 
L 1259 2753 
L 3481 2753 
L 3481 2222 
L 1259 2222 
L 1259 531 
L 3634 531 
L 3634 0 
L 628 0 
L 628 4666 
z
" transform="scale(0.015625)"/>
       <path id="DejaVuSans-6d" d="M 3328 2828 
Q 3544 3216 3844 3400 
Q 4144 3584 4550 3584 
Q 5097 3584 5394 3201 
Q 5691 2819 5691 2113 
L 5691 0 
L 5113 0 
L 5113 2094 
Q 5113 2597 4934 2840 
Q 4756 3084 4391 3084 
Q 3944 3084 3684 2787 
Q 3425 2491 3425 1978 
L 3425 0 
L 2847 0 
L 2847 2094 
Q 2847 2600 2669 2842 
Q 2491 3084 2119 3084 
Q 1678 3084 1418 2786 
Q 1159 2488 1159 1978 
L 1159 0 
L 581 0 
L 581 3500 
L 1159 3500 
L 1159 2956 
Q 1356 3278 1631 3431 
Q 1906 3584 2284 3584 
Q 2666 3584 2933 3390 
Q 3200 3197 3328 2828 
z
" transform="scale(0.015625)"/>
       <path id="DejaVuSans-61" d="M 2194 1759 
Q 1497 1759 1228 1600 
Q 959 1441 959 1056 
Q 959 750 1161 570 
Q 1363 391 1709 391 
Q 2188 391 2477 730 
Q 2766 1069 2766 1631 
L 2766 1759 
L 2194 1759 
z
M 3341 1997 
L 3341 0 
L 2766 0 
L 2766 531 
Q 2569 213 2275 61 
Q 1981 -91 1556 -91 
Q 1019 -91 701 211 
Q 384 513 384 1019 
Q 384 1609 779 1909 
Q 1175 2209 1959 2209 
L 2766 2209 
L 2766 2266 
Q 2766 2663 2505 2880 
Q 2244 3097 1772 3097 
Q 1472 3097 1187 3025 
Q 903 2953 641 2809 
L 641 3341 
Q 956 3463 1253 3523 
Q 1550 3584 1831 3584 
Q 2591 3584 2966 3190 
Q 3341 2797 3341 1997 
z
" transform="scale(0.015625)"/>
       <path id="DejaVuSans-65" d="M 3597 1894 
L 3597 1613 
L 953 1613 
Q 991 1019 1311 708 
Q 1631 397 2203 397 
Q 2534 397 2845 478 
Q 3156 559 3463 722 
L 3463 178 
Q 3153 47 2828 -22 
Q 2503 -91 2169 -91 
Q 1331 -91 842 396 
Q 353 884 353 1716 
Q 353 2575 817 3079 
Q 1281 3584 2069 3584 
Q 2775 3584 3186 3129 
Q 3597 2675 3597 1894 
z
M 3022 2063 
Q 3016 2534 2758 2815 
Q 2500 3097 2075 3097 
Q 1594 3097 1305 2825 
Q 1016 2553 972 2059 
L 3022 2063 
z
" transform="scale(0.015625)"/>
       <path id="DejaVuSans-64" d="M 2906 2969 
L 2906 4863 
L 3481 4863 
L 3481 0 
L 2906 0 
L 2906 525 
Q 2725 213 2448 61 
Q 2172 -91 1784 -91 
Q 1150 -91 751 415 
Q 353 922 353 1747 
Q 353 2572 751 3078 
Q 1150 3584 1784 3584 
Q 2172 3584 2448 3432 
Q 2725 3281 2906 2969 
z
M 947 1747 
Q 947 1113 1208 752 
Q 1469 391 1925 391 
Q 2381 391 2643 752 
Q 2906 1113 2906 1747 
Q 2906 2381 2643 2742 
Q 2381 3103 1925 3103 
Q 1469 3103 1208 2742 
Q 947 2381 947 1747 
z
" transform="scale(0.015625)"/>
       <path id="DejaVuSans-20" transform="scale(0.015625)"/>
      </defs>
      <use xlink:href="#DejaVuSans-45"/>
      <use xlink:href="#DejaVuSans-73" x="63.183594"/>
      <use xlink:href="#DejaVuSans-74" x="115.283203"/>
      <use xlink:href="#DejaVuSans-69" x="154.492188"/>
      <use xlink:href="#DejaVuSans-6d" x="182.275391"/>
      <use xlink:href="#DejaVuSans-61" x="279.6875"/>
      <use xlink:href="#DejaVuSans-74" x="340.966797"/>
      <use xlink:href="#DejaVuSans-65" x="380.175781"/>
      <use xlink:href="#DejaVuSans-64" x="441.699219"/>
      <use xlink:href="#DejaVuSans-20" x="505.175781"/>
      <use xlink:href="#DejaVuSans-50" x="536.962891"/>
      <use xlink:href="#DejaVuSans-6f" x="593.640625"/>
      <use xlink:href="#DejaVuSans-73" x="654.822266"/>
      <use xlink:href="#DejaVuSans-69" x="706.921875"/>
      <use xlink:href="#DejaVuSans-74" x="734.705078"/>
      <use xlink:href="#DejaVuSans-69" x="773.914062"/>
      <use xlink:href="#DejaVuSans-6f" x="801.697266"/>
      <use xlink:href="#DejaVuSans-6e" x="862.878906"/>
     </g>
    </g>
    <g id="line2d_35">
     <path d="M 282.740199 96.896563 
L 292.740199 96.896563 
L 302.740199 96.896563 
" style="fill: none; stroke: #ff7f0e; stroke-width: 1.5; stroke-linecap: square"/>
    </g>
    <g id="text_18">
     <!-- True Position -->
     <g transform="translate(310.740199 100.396563)scale(0.1 -0.1)">
      <defs>
       <path id="DejaVuSans-54" d="M -19 4666 
L 3928 4666 
L 3928 4134 
L 2272 4134 
L 2272 0 
L 1638 0 
L 1638 4134 
L -19 4134 
L -19 4666 
z
" transform="scale(0.015625)"/>
       <path id="DejaVuSans-72" d="M 2631 2963 
Q 2534 3019 2420 3045 
Q 2306 3072 2169 3072 
Q 1681 3072 1420 2755 
Q 1159 2438 1159 1844 
L 1159 0 
L 581 0 
L 581 3500 
L 1159 3500 
L 1159 2956 
Q 1341 3275 1631 3429 
Q 1922 3584 2338 3584 
Q 2397 3584 2469 3576 
Q 2541 3569 2628 3553 
L 2631 2963 
z
" transform="scale(0.015625)"/>
       <path id="DejaVuSans-75" d="M 544 1381 
L 544 3500 
L 1119 3500 
L 1119 1403 
Q 1119 906 1312 657 
Q 1506 409 1894 409 
Q 2359 409 2629 706 
Q 2900 1003 2900 1516 
L 2900 3500 
L 3475 3500 
L 3475 0 
L 2900 0 
L 2900 538 
Q 2691 219 2414 64 
Q 2138 -91 1772 -91 
Q 1169 -91 856 284 
Q 544 659 544 1381 
z
M 1991 3584 
L 1991 3584 
z
" transform="scale(0.015625)"/>
      </defs>
      <use xlink:href="#DejaVuSans-54"/>
      <use xlink:href="#DejaVuSans-72" x="46.333984"/>
      <use xlink:href="#DejaVuSans-75" x="87.447266"/>
      <use xlink:href="#DejaVuSans-65" x="150.826172"/>
      <use xlink:href="#DejaVuSans-20" x="212.349609"/>
      <use xlink:href="#DejaVuSans-50" x="244.136719"/>
      <use xlink:href="#DejaVuSans-6f" x="300.814453"/>
      <use xlink:href="#DejaVuSans-73" x="361.996094"/>
      <use xlink:href="#DejaVuSans-69" x="414.095703"/>
      <use xlink:href="#DejaVuSans-74" x="441.878906"/>
      <use xlink:href="#DejaVuSans-69" x="481.087891"/>
      <use xlink:href="#DejaVuSans-6f" x="508.871094"/>
      <use xlink:href="#DejaVuSans-6e" x="570.052734"/>
     </g>
    </g>
    <g id="line2d_36">
     <path d="M 282.740199 111.574687 
L 292.740199 111.574687 
L 302.740199 111.574687 
" style="fill: none; stroke: #2ca02c; stroke-width: 1.5; stroke-linecap: square"/>
    </g>
    <g id="text_19">
     <!-- Dead Position -->
     <g transform="translate(310.740199 115.074687)scale(0.1 -0.1)">
      <defs>
       <path id="DejaVuSans-44" d="M 1259 4147 
L 1259 519 
L 2022 519 
Q 2988 519 3436 956 
Q 3884 1394 3884 2338 
Q 3884 3275 3436 3711 
Q 2988 4147 2022 4147 
L 1259 4147 
z
M 628 4666 
L 1925 4666 
Q 3281 4666 3915 4102 
Q 4550 3538 4550 2338 
Q 4550 1131 3912 565 
Q 3275 0 1925 0 
L 628 0 
L 628 4666 
z
" transform="scale(0.015625)"/>
      </defs>
      <use xlink:href="#DejaVuSans-44"/>
      <use xlink:href="#DejaVuSans-65" x="77.001953"/>
      <use xlink:href="#DejaVuSans-61" x="138.525391"/>
      <use xlink:href="#DejaVuSans-64" x="199.804688"/>
      <use xlink:href="#DejaVuSans-20" x="263.28125"/>
      <use xlink:href="#DejaVuSans-50" x="295.068359"/>
      <use xlink:href="#DejaVuSans-6f" x="351.746094"/>
      <use xlink:href="#DejaVuSans-73" x="412.927734"/>
      <use xlink:href="#DejaVuSans-69" x="465.027344"/>
      <use xlink:href="#DejaVuSans-74" x="492.810547"/>
      <use xlink:href="#DejaVuSans-69" x="532.019531"/>
      <use xlink:href="#DejaVuSans-6f" x="559.802734"/>
      <use xlink:href="#DejaVuSans-6e" x="620.984375"/>
     </g>
    </g>
   </g>
  </g>
  <g id="axes_2">
   <g id="patch_8">
    <path d="M 108 356.103529 
L 412.363636 356.103529 
L 412.363636 225.656471 
L 108 225.656471 
z
" style="fill: #ffffff"/>
   </g>
   <g id="matplotlib.axis_3">
    <g id="xtick_10">
     <g id="line2d_37">
      <path d="M 121.834711 356.103529 
L 121.834711 225.656471 
" clip-path="url(#p3a00f43ac5)" style="fill: none; stroke: #b0b0b0; stroke-width: 0.8; stroke-linecap: square"/>
     </g>
     <g id="line2d_38">
      <g>
       <use xlink:href="#m269112938b" x="121.834711" y="356.103529" style="stroke: #000000; stroke-width: 0.8"/>
      </g>
     </g>
     <g id="text_20">
      <!-- 0 -->
      <g transform="translate(118.653461 370.701967)scale(0.1 -0.1)">
       <use xlink:href="#DejaVuSans-30"/>
      </g>
     </g>
    </g>
    <g id="xtick_11">
     <g id="line2d_39">
      <path d="M 156.421488 356.103529 
L 156.421488 225.656471 
" clip-path="url(#p3a00f43ac5)" style="fill: none; stroke: #b0b0b0; stroke-width: 0.8; stroke-linecap: square"/>
     </g>
     <g id="line2d_40">
      <g>
       <use xlink:href="#m269112938b" x="156.421488" y="356.103529" style="stroke: #000000; stroke-width: 0.8"/>
      </g>
     </g>
     <g id="text_21">
      <!-- 25 -->
      <g transform="translate(150.058988 370.701967)scale(0.1 -0.1)">
       <use xlink:href="#DejaVuSans-32"/>
       <use xlink:href="#DejaVuSans-35" x="63.623047"/>
      </g>
     </g>
    </g>
    <g id="xtick_12">
     <g id="line2d_41">
      <path d="M 191.008264 356.103529 
L 191.008264 225.656471 
" clip-path="url(#p3a00f43ac5)" style="fill: none; stroke: #b0b0b0; stroke-width: 0.8; stroke-linecap: square"/>
     </g>
     <g id="line2d_42">
      <g>
       <use xlink:href="#m269112938b" x="191.008264" y="356.103529" style="stroke: #000000; stroke-width: 0.8"/>
      </g>
     </g>
     <g id="text_22">
      <!-- 50 -->
      <g transform="translate(184.645764 370.701967)scale(0.1 -0.1)">
       <use xlink:href="#DejaVuSans-35"/>
       <use xlink:href="#DejaVuSans-30" x="63.623047"/>
      </g>
     </g>
    </g>
    <g id="xtick_13">
     <g id="line2d_43">
      <path d="M 225.595041 356.103529 
L 225.595041 225.656471 
" clip-path="url(#p3a00f43ac5)" style="fill: none; stroke: #b0b0b0; stroke-width: 0.8; stroke-linecap: square"/>
     </g>
     <g id="line2d_44">
      <g>
       <use xlink:href="#m269112938b" x="225.595041" y="356.103529" style="stroke: #000000; stroke-width: 0.8"/>
      </g>
     </g>
     <g id="text_23">
      <!-- 75 -->
      <g transform="translate(219.232541 370.701967)scale(0.1 -0.1)">
       <use xlink:href="#DejaVuSans-37"/>
       <use xlink:href="#DejaVuSans-35" x="63.623047"/>
      </g>
     </g>
    </g>
    <g id="xtick_14">
     <g id="line2d_45">
      <path d="M 260.181818 356.103529 
L 260.181818 225.656471 
" clip-path="url(#p3a00f43ac5)" style="fill: none; stroke: #b0b0b0; stroke-width: 0.8; stroke-linecap: square"/>
     </g>
     <g id="line2d_46">
      <g>
       <use xlink:href="#m269112938b" x="260.181818" y="356.103529" style="stroke: #000000; stroke-width: 0.8"/>
      </g>
     </g>
     <g id="text_24">
      <!-- 100 -->
      <g transform="translate(250.638068 370.701967)scale(0.1 -0.1)">
       <use xlink:href="#DejaVuSans-31"/>
       <use xlink:href="#DejaVuSans-30" x="63.623047"/>
       <use xlink:href="#DejaVuSans-30" x="127.246094"/>
      </g>
     </g>
    </g>
    <g id="xtick_15">
     <g id="line2d_47">
      <path d="M 294.768595 356.103529 
L 294.768595 225.656471 
" clip-path="url(#p3a00f43ac5)" style="fill: none; stroke: #b0b0b0; stroke-width: 0.8; stroke-linecap: square"/>
     </g>
     <g id="line2d_48">
      <g>
       <use xlink:href="#m269112938b" x="294.768595" y="356.103529" style="stroke: #000000; stroke-width: 0.8"/>
      </g>
     </g>
     <g id="text_25">
      <!-- 125 -->
      <g transform="translate(285.224845 370.701967)scale(0.1 -0.1)">
       <use xlink:href="#DejaVuSans-31"/>
       <use xlink:href="#DejaVuSans-32" x="63.623047"/>
       <use xlink:href="#DejaVuSans-35" x="127.246094"/>
      </g>
     </g>
    </g>
    <g id="xtick_16">
     <g id="line2d_49">
      <path d="M 329.355372 356.103529 
L 329.355372 225.656471 
" clip-path="url(#p3a00f43ac5)" style="fill: none; stroke: #b0b0b0; stroke-width: 0.8; stroke-linecap: square"/>
     </g>
     <g id="line2d_50">
      <g>
       <use xlink:href="#m269112938b" x="329.355372" y="356.103529" style="stroke: #000000; stroke-width: 0.8"/>
      </g>
     </g>
     <g id="text_26">
      <!-- 150 -->
      <g transform="translate(319.811622 370.701967)scale(0.1 -0.1)">
       <use xlink:href="#DejaVuSans-31"/>
       <use xlink:href="#DejaVuSans-35" x="63.623047"/>
       <use xlink:href="#DejaVuSans-30" x="127.246094"/>
      </g>
     </g>
    </g>
    <g id="xtick_17">
     <g id="line2d_51">
      <path d="M 363.942149 356.103529 
L 363.942149 225.656471 
" clip-path="url(#p3a00f43ac5)" style="fill: none; stroke: #b0b0b0; stroke-width: 0.8; stroke-linecap: square"/>
     </g>
     <g id="line2d_52">
      <g>
       <use xlink:href="#m269112938b" x="363.942149" y="356.103529" style="stroke: #000000; stroke-width: 0.8"/>
      </g>
     </g>
     <g id="text_27">
      <!-- 175 -->
      <g transform="translate(354.398399 370.701967)scale(0.1 -0.1)">
       <use xlink:href="#DejaVuSans-31"/>
       <use xlink:href="#DejaVuSans-37" x="63.623047"/>
       <use xlink:href="#DejaVuSans-35" x="127.246094"/>
      </g>
     </g>
    </g>
    <g id="xtick_18">
     <g id="line2d_53">
      <path d="M 398.528926 356.103529 
L 398.528926 225.656471 
" clip-path="url(#p3a00f43ac5)" style="fill: none; stroke: #b0b0b0; stroke-width: 0.8; stroke-linecap: square"/>
     </g>
     <g id="line2d_54">
      <g>
       <use xlink:href="#m269112938b" x="398.528926" y="356.103529" style="stroke: #000000; stroke-width: 0.8"/>
      </g>
     </g>
     <g id="text_28">
      <!-- 200 -->
      <g transform="translate(388.985176 370.701967)scale(0.1 -0.1)">
       <use xlink:href="#DejaVuSans-32"/>
       <use xlink:href="#DejaVuSans-30" x="63.623047"/>
       <use xlink:href="#DejaVuSans-30" x="127.246094"/>
      </g>
     </g>
    </g>
   </g>
   <g id="matplotlib.axis_4">
    <g id="ytick_7">
     <g id="line2d_55">
      <path d="M 108 356.103529 
L 412.363636 356.103529 
" clip-path="url(#p3a00f43ac5)" style="fill: none; stroke: #b0b0b0; stroke-width: 0.8; stroke-linecap: square"/>
     </g>
     <g id="line2d_56">
      <g>
       <use xlink:href="#med53c1415d" x="108" y="356.103529" style="stroke: #000000; stroke-width: 0.8"/>
      </g>
     </g>
     <g id="text_29">
      <!-- −4 -->
      <g transform="translate(86.257812 359.902748)scale(0.1 -0.1)">
       <defs>
        <path id="DejaVuSans-2212" d="M 678 2272 
L 4684 2272 
L 4684 1741 
L 678 1741 
L 678 2272 
z
" transform="scale(0.015625)"/>
        <path id="DejaVuSans-34" d="M 2419 4116 
L 825 1625 
L 2419 1625 
L 2419 4116 
z
M 2253 4666 
L 3047 4666 
L 3047 1625 
L 3713 1625 
L 3713 1100 
L 3047 1100 
L 3047 0 
L 2419 0 
L 2419 1100 
L 313 1100 
L 313 1709 
L 2253 4666 
z
" transform="scale(0.015625)"/>
       </defs>
       <use xlink:href="#DejaVuSans-2212"/>
       <use xlink:href="#DejaVuSans-34" x="83.789062"/>
      </g>
     </g>
    </g>
    <g id="ytick_8">
     <g id="line2d_57">
      <path d="M 108 323.491765 
L 412.363636 323.491765 
" clip-path="url(#p3a00f43ac5)" style="fill: none; stroke: #b0b0b0; stroke-width: 0.8; stroke-linecap: square"/>
     </g>
     <g id="line2d_58">
      <g>
       <use xlink:href="#med53c1415d" x="108" y="323.491765" style="stroke: #000000; stroke-width: 0.8"/>
      </g>
     </g>
     <g id="text_30">
      <!-- −2 -->
      <g transform="translate(86.257812 327.290983)scale(0.1 -0.1)">
       <use xlink:href="#DejaVuSans-2212"/>
       <use xlink:href="#DejaVuSans-32" x="83.789062"/>
      </g>
     </g>
    </g>
    <g id="ytick_9">
     <g id="line2d_59">
      <path d="M 108 290.88 
L 412.363636 290.88 
" clip-path="url(#p3a00f43ac5)" style="fill: none; stroke: #b0b0b0; stroke-width: 0.8; stroke-linecap: square"/>
     </g>
     <g id="line2d_60">
      <g>
       <use xlink:href="#med53c1415d" x="108" y="290.88" style="stroke: #000000; stroke-width: 0.8"/>
      </g>
     </g>
     <g id="text_31">
      <!-- 0 -->
      <g transform="translate(94.6375 294.679219)scale(0.1 -0.1)">
       <use xlink:href="#DejaVuSans-30"/>
      </g>
     </g>
    </g>
    <g id="ytick_10">
     <g id="line2d_61">
      <path d="M 108 258.268235 
L 412.363636 258.268235 
" clip-path="url(#p3a00f43ac5)" style="fill: none; stroke: #b0b0b0; stroke-width: 0.8; stroke-linecap: square"/>
     </g>
     <g id="line2d_62">
      <g>
       <use xlink:href="#med53c1415d" x="108" y="258.268235" style="stroke: #000000; stroke-width: 0.8"/>
      </g>
     </g>
     <g id="text_32">
      <!-- 2 -->
      <g transform="translate(94.6375 262.067454)scale(0.1 -0.1)">
       <use xlink:href="#DejaVuSans-32"/>
      </g>
     </g>
    </g>
    <g id="ytick_11">
     <g id="line2d_63">
      <path d="M 108 225.656471 
L 412.363636 225.656471 
" clip-path="url(#p3a00f43ac5)" style="fill: none; stroke: #b0b0b0; stroke-width: 0.8; stroke-linecap: square"/>
     </g>
     <g id="line2d_64">
      <g>
       <use xlink:href="#med53c1415d" x="108" y="225.656471" style="stroke: #000000; stroke-width: 0.8"/>
      </g>
     </g>
     <g id="text_33">
      <!-- 4 -->
      <g transform="translate(94.6375 229.455689)scale(0.1 -0.1)">
       <use xlink:href="#DejaVuSans-34"/>
      </g>
     </g>
    </g>
    <g id="text_34">
     <!-- Speed -->
     <g transform="translate(80.178125 306.555781)rotate(-90)scale(0.1 -0.1)">
      <defs>
       <path id="DejaVuSans-53" d="M 3425 4513 
L 3425 3897 
Q 3066 4069 2747 4153 
Q 2428 4238 2131 4238 
Q 1616 4238 1336 4038 
Q 1056 3838 1056 3469 
Q 1056 3159 1242 3001 
Q 1428 2844 1947 2747 
L 2328 2669 
Q 3034 2534 3370 2195 
Q 3706 1856 3706 1288 
Q 3706 609 3251 259 
Q 2797 -91 1919 -91 
Q 1588 -91 1214 -16 
Q 841 59 441 206 
L 441 856 
Q 825 641 1194 531 
Q 1563 422 1919 422 
Q 2459 422 2753 634 
Q 3047 847 3047 1241 
Q 3047 1584 2836 1778 
Q 2625 1972 2144 2069 
L 1759 2144 
Q 1053 2284 737 2584 
Q 422 2884 422 3419 
Q 422 4038 858 4394 
Q 1294 4750 2059 4750 
Q 2388 4750 2728 4690 
Q 3069 4631 3425 4513 
z
" transform="scale(0.015625)"/>
       <path id="DejaVuSans-70" d="M 1159 525 
L 1159 -1331 
L 581 -1331 
L 581 3500 
L 1159 3500 
L 1159 2969 
Q 1341 3281 1617 3432 
Q 1894 3584 2278 3584 
Q 2916 3584 3314 3078 
Q 3713 2572 3713 1747 
Q 3713 922 3314 415 
Q 2916 -91 2278 -91 
Q 1894 -91 1617 61 
Q 1341 213 1159 525 
z
M 3116 1747 
Q 3116 2381 2855 2742 
Q 2594 3103 2138 3103 
Q 1681 3103 1420 2742 
Q 1159 2381 1159 1747 
Q 1159 1113 1420 752 
Q 1681 391 2138 391 
Q 2594 391 2855 752 
Q 3116 1113 3116 1747 
z
" transform="scale(0.015625)"/>
      </defs>
      <use xlink:href="#DejaVuSans-53"/>
      <use xlink:href="#DejaVuSans-70" x="63.476562"/>
      <use xlink:href="#DejaVuSans-65" x="126.953125"/>
      <use xlink:href="#DejaVuSans-65" x="188.476562"/>
      <use xlink:href="#DejaVuSans-64" x="250"/>
     </g>
    </g>
   </g>
   <g id="line2d_65">
    <path d="M 121.834711 290.88 
L 124.601653 290.806436 
L 127.368595 290.569579 
L 130.135537 290.171491 
L 132.902479 289.615861 
L 137.052893 288.49899 
L 141.203306 287.064111 
L 145.353719 285.342661 
L 149.504132 283.372579 
L 155.038017 280.435056 
L 161.955372 276.4285 
L 175.790083 268.248276 
L 177.173554 279.629076 
L 182.707438 276.72956 
L 186.857851 274.796646 
L 191.008264 273.118869 
L 195.158678 271.733175 
L 199.309091 270.669888 
L 202.076033 270.151825 
L 204.842975 269.792343 
L 207.609917 269.594738 
L 210.37686 269.560677 
L 213.143802 269.690174 
L 215.910744 269.981593 
L 218.677686 270.431664 
L 222.828099 271.39316 
L 226.978512 272.677378 
L 231.128926 274.254079 
L 232.512397 274.838444 
L 233.895868 268.786279 
L 238.046281 270.765602 
L 243.580165 273.678835 
L 251.880992 278.388855 
L 261.565289 283.878661 
L 267.099174 286.761601 
L 271.249587 288.709799 
L 275.4 290.423816 
L 279.550413 291.863663 
L 283.700826 292.995569 
L 286.467769 293.56556 
L 287.85124 293.792748 
L 289.234711 276.306122 
L 292.001653 276.561585 
L 294.768595 276.654617 
L 297.535537 276.58395 
L 300.302479 276.34997 
L 303.069421 275.954708 
L 305.836364 275.401823 
L 309.986777 274.288863 
L 314.13719 272.857565 
L 318.287603 271.139287 
L 322.438017 269.171894 
L 327.971901 266.237103 
L 334.889256 262.232441 
L 343.190083 257.261097 
L 344.573554 275.577623 
L 351.490909 271.658593 
L 355.641322 269.51105 
L 359.791736 267.575372 
L 363.942149 265.894357 
L 368.092562 264.505027 
L 372.242975 263.437788 
L 375.009917 262.916959 
L 377.77686 262.554637 
L 380.543802 262.354149 
L 383.310744 262.317189 
L 386.077686 262.443801 
L 388.844628 262.732379 
L 391.61157 263.17968 
L 395.761983 264.137218 
L 397.145455 264.529527 
L 398.528926 251.546967 
L 398.528926 251.546967 
" clip-path="url(#p3a00f43ac5)" style="fill: none; stroke: #1f77b4; stroke-width: 1.5; stroke-linecap: square"/>
   </g>
   <g id="line2d_66">
    <path d="M 121.834711 290.88 
L 123.218182 296.846161 
L 125.985124 294.79275 
L 127.368595 298.021869 
L 128.752066 300.245753 
L 130.135537 298.941254 
L 131.519008 297.893141 
L 132.902479 289.694082 
L 134.28595 292.50621 
L 135.669421 294.049679 
L 137.052893 289.045139 
L 138.436364 282.971054 
L 139.819835 288.359028 
L 141.203306 284.229281 
L 142.586777 285.200415 
L 143.970248 290.053367 
L 145.353719 294.351455 
L 146.73719 292.664117 
L 148.120661 298.145401 
L 149.504132 297.008163 
L 150.887603 297.477471 
L 152.271074 295.31863 
L 153.654545 300.038072 
L 155.038017 292.730758 
L 156.421488 286.781964 
L 157.804959 285.403009 
L 159.18843 282.071335 
L 160.571901 275.582281 
L 161.955372 268.558804 
L 163.338843 273.393144 
L 164.722314 272.969917 
L 166.105785 269.83328 
L 167.489256 269.139371 
L 168.872727 265.2119 
L 170.256198 266.253699 
L 171.639669 265.802959 
L 173.02314 266.270068 
L 174.406612 262.16221 
L 175.790083 258.741522 
L 177.173554 260.566323 
L 178.557025 259.180628 
L 179.940496 255.112989 
L 181.323967 258.184897 
L 182.707438 258.076085 
L 184.090909 253.064648 
L 185.47438 250.030263 
L 186.857851 250.049578 
L 188.241322 252.509075 
L 189.624793 251.176563 
L 192.391736 249.311833 
L 193.775207 255.313912 
L 195.158678 253.516829 
L 196.542149 257.82275 
L 197.92562 257.24397 
L 199.309091 255.984121 
L 200.692562 253.200429 
L 202.076033 249.333766 
L 203.459504 251.039256 
L 204.842975 253.680515 
L 206.226446 255.518329 
L 207.609917 260.035027 
L 208.993388 268.716306 
L 210.37686 267.680036 
L 211.760331 267.867655 
L 213.143802 270.895653 
L 214.527273 275.569504 
L 215.910744 276.733857 
L 217.294215 272.453058 
L 220.061157 268.228501 
L 221.444628 272.393213 
L 222.828099 272.369158 
L 224.21157 276.585166 
L 225.595041 277.169412 
L 226.978512 279.673096 
L 228.361983 277.468685 
L 229.745455 274.517509 
L 231.128926 274.57426 
L 232.512397 271.396217 
L 233.895868 270.011816 
L 235.279339 272.366302 
L 236.66281 273.828502 
L 238.046281 272.582593 
L 239.429752 274.215495 
L 240.813223 275.342859 
L 242.196694 274.34897 
L 243.580165 269.946159 
L 244.963636 263.933576 
L 246.347107 262.505615 
L 249.11405 261.253837 
L 250.497521 259.838647 
L 251.880992 261.858608 
L 253.264463 262.368854 
L 254.647934 264.091053 
L 256.031405 264.66017 
L 257.414876 267.661973 
L 258.798347 262.536671 
L 260.181818 268.208266 
L 261.565289 264.076588 
L 262.94876 260.913699 
L 264.332231 263.420372 
L 265.715702 267.096374 
L 267.099174 265.311723 
L 268.482645 267.014943 
L 269.866116 268.942931 
L 271.249587 263.84002 
L 272.633058 269.553432 
L 274.016529 269.896051 
L 275.4 266.072016 
L 276.783471 263.987044 
L 278.166942 267.299936 
L 279.550413 258.031572 
L 280.933884 251.950154 
L 283.700826 257.796961 
L 285.084298 257.728158 
L 286.467769 262.061201 
L 292.001653 253.953404 
L 293.385124 253.043532 
L 294.768595 263.212312 
L 296.152066 264.669432 
L 297.535537 260.458579 
L 298.919008 260.224954 
L 300.302479 260.503386 
L 301.68595 266.134041 
L 303.069421 268.059561 
L 304.452893 263.142335 
L 305.836364 261.095466 
L 307.219835 252.829808 
L 308.603306 250.204458 
L 309.986777 251.056076 
L 311.370248 252.726752 
L 312.753719 251.969103 
L 314.13719 253.992855 
L 315.520661 254.419747 
L 316.904132 257.881003 
L 318.287603 254.676474 
L 319.671074 260.710229 
L 321.054545 259.709139 
L 322.438017 253.483914 
L 323.821488 262.054623 
L 325.204959 261.735349 
L 326.58843 267.173539 
L 327.971901 268.704611 
L 329.355372 265.176431 
L 330.738843 262.344684 
L 332.122314 261.357621 
L 333.505785 262.356426 
L 334.889256 266.307245 
L 336.272727 270.800077 
L 337.656198 275.864879 
L 339.039669 277.126921 
L 340.42314 282.126046 
L 341.806612 273.148912 
L 343.190083 278.926921 
L 344.573554 274.496441 
L 345.957025 277.3226 
L 347.340496 275.790759 
L 348.723967 277.945457 
L 350.107438 274.674304 
L 351.490909 268.723061 
L 352.87438 269.488051 
L 354.257851 260.703703 
L 355.641322 268.867211 
L 357.024793 270.189265 
L 358.408264 268.14609 
L 359.791736 267.944869 
L 361.175207 263.279333 
L 362.558678 262.903696 
L 363.942149 263.401381 
L 365.32562 260.564997 
L 366.709091 262.823573 
L 368.092562 262.644147 
L 369.476033 264.124031 
L 370.859504 265.139455 
L 372.242975 262.307457 
L 373.626446 264.585879 
L 375.009917 265.903808 
L 376.393388 264.24819 
L 377.77686 259.721378 
L 379.160331 253.331708 
L 380.543802 258.748697 
L 381.927273 255.979921 
L 383.310744 260.762901 
L 384.694215 257.161731 
L 386.077686 256.545763 
L 387.461157 265.16336 
L 388.844628 266.075632 
L 390.228099 266.373523 
L 391.61157 269.090461 
L 392.995041 265.822881 
L 394.378512 263.401883 
L 397.145455 269.986752 
L 398.528926 273.042347 
L 398.528926 273.042347 
" clip-path="url(#p3a00f43ac5)" style="fill: none; stroke: #ff7f0e; stroke-width: 1.5; stroke-linecap: square"/>
   </g>
   <g id="line2d_67">
    <path d="M 121.834711 290.88 
L 124.601653 290.806436 
L 127.368595 290.569579 
L 130.135537 290.171491 
L 132.902479 289.615861 
L 137.052893 288.49899 
L 141.203306 287.064111 
L 145.353719 285.342661 
L 149.504132 283.372579 
L 155.038017 280.435056 
L 161.955372 276.4285 
L 175.790083 268.248276 
L 181.323967 265.271835 
L 185.47438 263.263115 
L 189.624793 261.495882 
L 193.775207 260.009115 
L 197.92562 258.835429 
L 200.692562 258.239816 
L 203.459504 257.80053 
L 206.226446 257.521675 
L 208.993388 257.405737 
L 211.760331 257.453556 
L 214.527273 257.664322 
L 217.294215 258.035576 
L 220.061157 258.563245 
L 224.21157 259.635236 
L 228.361983 261.020651 
L 232.512397 262.686956 
L 236.66281 264.595242 
L 242.196694 267.438637 
L 249.11405 271.306721 
L 262.94876 279.136499 
L 268.482645 281.946297 
L 272.633058 283.821226 
L 276.783471 285.448007 
L 280.933884 286.788629 
L 285.084298 287.811571 
L 287.85124 288.304722 
L 290.618182 288.640411 
L 293.385124 288.81492 
L 296.152066 288.826158 
L 298.919008 288.673683 
L 301.68595 288.358706 
L 304.452893 287.884074 
L 308.603306 286.882965 
L 312.753719 285.554639 
L 316.904132 283.928118 
L 321.054545 282.039188 
L 325.204959 279.929587 
L 330.738843 276.854902 
L 339.039669 271.931264 
L 348.723967 266.237015 
L 354.257851 263.257986 
L 358.408264 261.246672 
L 362.558678 259.476352 
L 366.709091 257.986073 
L 370.859504 256.80853 
L 373.626446 256.210198 
L 376.393388 255.768105 
L 379.160331 255.486386 
L 381.927273 255.367553 
L 384.694215 255.412477 
L 387.461157 255.620376 
L 390.228099 255.988822 
L 392.995041 256.513767 
L 397.145455 257.581894 
L 398.528926 258.009126 
L 398.528926 258.009126 
" clip-path="url(#p3a00f43ac5)" style="fill: none; stroke: #2ca02c; stroke-width: 1.5; stroke-linecap: square"/>
   </g>
   <g id="patch_9">
    <path d="M 108 356.103529 
L 108 225.656471 
" style="fill: none; stroke: #000000; stroke-width: 0.8; stroke-linejoin: miter; stroke-linecap: square"/>
   </g>
   <g id="patch_10">
    <path d="M 412.363636 356.103529 
L 412.363636 225.656471 
" style="fill: none; stroke: #000000; stroke-width: 0.8; stroke-linejoin: miter; stroke-linecap: square"/>
   </g>
   <g id="patch_11">
    <path d="M 108 356.103529 
L 412.363636 356.103529 
" style="fill: none; stroke: #000000; stroke-width: 0.8; stroke-linejoin: miter; stroke-linecap: square"/>
   </g>
   <g id="patch_12">
    <path d="M 108 225.656471 
L 412.363636 225.656471 
" style="fill: none; stroke: #000000; stroke-width: 0.8; stroke-linejoin: miter; stroke-linecap: square"/>
   </g>
  </g>
  <g id="axes_3">
   <g id="patch_13">
    <path d="M 108 512.64 
L 412.363636 512.64 
L 412.363636 382.192941 
L 108 382.192941 
z
" style="fill: #ffffff"/>
   </g>
   <g id="matplotlib.axis_5">
    <g id="xtick_19">
     <g id="line2d_68">
      <path d="M 121.834711 512.64 
L 121.834711 382.192941 
" clip-path="url(#p8220b6b640)" style="fill: none; stroke: #b0b0b0; stroke-width: 0.8; stroke-linecap: square"/>
     </g>
     <g id="line2d_69">
      <g>
       <use xlink:href="#m269112938b" x="121.834711" y="512.64" style="stroke: #000000; stroke-width: 0.8"/>
      </g>
     </g>
     <g id="text_35">
      <!-- 0 -->
      <g transform="translate(118.653461 527.238438)scale(0.1 -0.1)">
       <use xlink:href="#DejaVuSans-30"/>
      </g>
     </g>
    </g>
    <g id="xtick_20">
     <g id="line2d_70">
      <path d="M 156.595291 512.64 
L 156.595291 382.192941 
" clip-path="url(#p8220b6b640)" style="fill: none; stroke: #b0b0b0; stroke-width: 0.8; stroke-linecap: square"/>
     </g>
     <g id="line2d_71">
      <g>
       <use xlink:href="#m269112938b" x="156.595291" y="512.64" style="stroke: #000000; stroke-width: 0.8"/>
      </g>
     </g>
     <g id="text_36">
      <!-- 25 -->
      <g transform="translate(150.232791 527.238438)scale(0.1 -0.1)">
       <use xlink:href="#DejaVuSans-32"/>
       <use xlink:href="#DejaVuSans-35" x="63.623047"/>
      </g>
     </g>
    </g>
    <g id="xtick_21">
     <g id="line2d_72">
      <path d="M 191.35587 512.64 
L 191.35587 382.192941 
" clip-path="url(#p8220b6b640)" style="fill: none; stroke: #b0b0b0; stroke-width: 0.8; stroke-linecap: square"/>
     </g>
     <g id="line2d_73">
      <g>
       <use xlink:href="#m269112938b" x="191.35587" y="512.64" style="stroke: #000000; stroke-width: 0.8"/>
      </g>
     </g>
     <g id="text_37">
      <!-- 50 -->
      <g transform="translate(184.99337 527.238438)scale(0.1 -0.1)">
       <use xlink:href="#DejaVuSans-35"/>
       <use xlink:href="#DejaVuSans-30" x="63.623047"/>
      </g>
     </g>
    </g>
    <g id="xtick_22">
     <g id="line2d_74">
      <path d="M 226.11645 512.64 
L 226.11645 382.192941 
" clip-path="url(#p8220b6b640)" style="fill: none; stroke: #b0b0b0; stroke-width: 0.8; stroke-linecap: square"/>
     </g>
     <g id="line2d_75">
      <g>
       <use xlink:href="#m269112938b" x="226.11645" y="512.64" style="stroke: #000000; stroke-width: 0.8"/>
      </g>
     </g>
     <g id="text_38">
      <!-- 75 -->
      <g transform="translate(219.75395 527.238438)scale(0.1 -0.1)">
       <use xlink:href="#DejaVuSans-37"/>
       <use xlink:href="#DejaVuSans-35" x="63.623047"/>
      </g>
     </g>
    </g>
    <g id="xtick_23">
     <g id="line2d_76">
      <path d="M 260.87703 512.64 
L 260.87703 382.192941 
" clip-path="url(#p8220b6b640)" style="fill: none; stroke: #b0b0b0; stroke-width: 0.8; stroke-linecap: square"/>
     </g>
     <g id="line2d_77">
      <g>
       <use xlink:href="#m269112938b" x="260.87703" y="512.64" style="stroke: #000000; stroke-width: 0.8"/>
      </g>
     </g>
     <g id="text_39">
      <!-- 100 -->
      <g transform="translate(251.33328 527.238438)scale(0.1 -0.1)">
       <use xlink:href="#DejaVuSans-31"/>
       <use xlink:href="#DejaVuSans-30" x="63.623047"/>
       <use xlink:href="#DejaVuSans-30" x="127.246094"/>
      </g>
     </g>
    </g>
    <g id="xtick_24">
     <g id="line2d_78">
      <path d="M 295.63761 512.64 
L 295.63761 382.192941 
" clip-path="url(#p8220b6b640)" style="fill: none; stroke: #b0b0b0; stroke-width: 0.8; stroke-linecap: square"/>
     </g>
     <g id="line2d_79">
      <g>
       <use xlink:href="#m269112938b" x="295.63761" y="512.64" style="stroke: #000000; stroke-width: 0.8"/>
      </g>
     </g>
     <g id="text_40">
      <!-- 125 -->
      <g transform="translate(286.09386 527.238438)scale(0.1 -0.1)">
       <use xlink:href="#DejaVuSans-31"/>
       <use xlink:href="#DejaVuSans-32" x="63.623047"/>
       <use xlink:href="#DejaVuSans-35" x="127.246094"/>
      </g>
     </g>
    </g>
    <g id="xtick_25">
     <g id="line2d_80">
      <path d="M 330.398189 512.64 
L 330.398189 382.192941 
" clip-path="url(#p8220b6b640)" style="fill: none; stroke: #b0b0b0; stroke-width: 0.8; stroke-linecap: square"/>
     </g>
     <g id="line2d_81">
      <g>
       <use xlink:href="#m269112938b" x="330.398189" y="512.64" style="stroke: #000000; stroke-width: 0.8"/>
      </g>
     </g>
     <g id="text_41">
      <!-- 150 -->
      <g transform="translate(320.854439 527.238438)scale(0.1 -0.1)">
       <use xlink:href="#DejaVuSans-31"/>
       <use xlink:href="#DejaVuSans-35" x="63.623047"/>
       <use xlink:href="#DejaVuSans-30" x="127.246094"/>
      </g>
     </g>
    </g>
    <g id="xtick_26">
     <g id="line2d_82">
      <path d="M 365.158769 512.64 
L 365.158769 382.192941 
" clip-path="url(#p8220b6b640)" style="fill: none; stroke: #b0b0b0; stroke-width: 0.8; stroke-linecap: square"/>
     </g>
     <g id="line2d_83">
      <g>
       <use xlink:href="#m269112938b" x="365.158769" y="512.64" style="stroke: #000000; stroke-width: 0.8"/>
      </g>
     </g>
     <g id="text_42">
      <!-- 175 -->
      <g transform="translate(355.615019 527.238438)scale(0.1 -0.1)">
       <use xlink:href="#DejaVuSans-31"/>
       <use xlink:href="#DejaVuSans-37" x="63.623047"/>
       <use xlink:href="#DejaVuSans-35" x="127.246094"/>
      </g>
     </g>
    </g>
    <g id="xtick_27">
     <g id="line2d_84">
      <path d="M 399.919349 512.64 
L 399.919349 382.192941 
" clip-path="url(#p8220b6b640)" style="fill: none; stroke: #b0b0b0; stroke-width: 0.8; stroke-linecap: square"/>
     </g>
     <g id="line2d_85">
      <g>
       <use xlink:href="#m269112938b" x="399.919349" y="512.64" style="stroke: #000000; stroke-width: 0.8"/>
      </g>
     </g>
     <g id="text_43">
      <!-- 200 -->
      <g transform="translate(390.375599 527.238438)scale(0.1 -0.1)">
       <use xlink:href="#DejaVuSans-32"/>
       <use xlink:href="#DejaVuSans-30" x="63.623047"/>
       <use xlink:href="#DejaVuSans-30" x="127.246094"/>
      </g>
     </g>
    </g>
   </g>
   <g id="matplotlib.axis_6">
    <g id="ytick_12">
     <g id="line2d_86">
      <path d="M 108 507.900297 
L 412.363636 507.900297 
" clip-path="url(#p8220b6b640)" style="fill: none; stroke: #b0b0b0; stroke-width: 0.8; stroke-linecap: square"/>
     </g>
     <g id="line2d_87">
      <g>
       <use xlink:href="#med53c1415d" x="108" y="507.900297" style="stroke: #000000; stroke-width: 0.8"/>
      </g>
     </g>
     <g id="text_44">
      <!-- −1.0 -->
      <g transform="translate(76.717187 511.699515)scale(0.1 -0.1)">
       <defs>
        <path id="DejaVuSans-2e" d="M 684 794 
L 1344 794 
L 1344 0 
L 684 0 
L 684 794 
z
" transform="scale(0.015625)"/>
       </defs>
       <use xlink:href="#DejaVuSans-2212"/>
       <use xlink:href="#DejaVuSans-31" x="83.789062"/>
       <use xlink:href="#DejaVuSans-2e" x="147.412109"/>
       <use xlink:href="#DejaVuSans-30" x="179.199219"/>
      </g>
     </g>
    </g>
    <g id="ytick_13">
     <g id="line2d_88">
      <path d="M 108 478.251049 
L 412.363636 478.251049 
" clip-path="url(#p8220b6b640)" style="fill: none; stroke: #b0b0b0; stroke-width: 0.8; stroke-linecap: square"/>
     </g>
     <g id="line2d_89">
      <g>
       <use xlink:href="#med53c1415d" x="108" y="478.251049" style="stroke: #000000; stroke-width: 0.8"/>
      </g>
     </g>
     <g id="text_45">
      <!-- −0.5 -->
      <g transform="translate(76.717187 482.050268)scale(0.1 -0.1)">
       <use xlink:href="#DejaVuSans-2212"/>
       <use xlink:href="#DejaVuSans-30" x="83.789062"/>
       <use xlink:href="#DejaVuSans-2e" x="147.412109"/>
       <use xlink:href="#DejaVuSans-35" x="179.199219"/>
      </g>
     </g>
    </g>
    <g id="ytick_14">
     <g id="line2d_90">
      <path d="M 108 448.601802 
L 412.363636 448.601802 
" clip-path="url(#p8220b6b640)" style="fill: none; stroke: #b0b0b0; stroke-width: 0.8; stroke-linecap: square"/>
     </g>
     <g id="line2d_91">
      <g>
       <use xlink:href="#med53c1415d" x="108" y="448.601802" style="stroke: #000000; stroke-width: 0.8"/>
      </g>
     </g>
     <g id="text_46">
      <!-- 0.0 -->
      <g transform="translate(85.096875 452.40102)scale(0.1 -0.1)">
       <use xlink:href="#DejaVuSans-30"/>
       <use xlink:href="#DejaVuSans-2e" x="63.623047"/>
       <use xlink:href="#DejaVuSans-30" x="95.410156"/>
      </g>
     </g>
    </g>
    <g id="ytick_15">
     <g id="line2d_92">
      <path d="M 108 418.952554 
L 412.363636 418.952554 
" clip-path="url(#p8220b6b640)" style="fill: none; stroke: #b0b0b0; stroke-width: 0.8; stroke-linecap: square"/>
     </g>
     <g id="line2d_93">
      <g>
       <use xlink:href="#med53c1415d" x="108" y="418.952554" style="stroke: #000000; stroke-width: 0.8"/>
      </g>
     </g>
     <g id="text_47">
      <!-- 0.5 -->
      <g transform="translate(85.096875 422.751773)scale(0.1 -0.1)">
       <use xlink:href="#DejaVuSans-30"/>
       <use xlink:href="#DejaVuSans-2e" x="63.623047"/>
       <use xlink:href="#DejaVuSans-35" x="95.410156"/>
      </g>
     </g>
    </g>
    <g id="ytick_16">
     <g id="line2d_94">
      <path d="M 108 389.303306 
L 412.363636 389.303306 
" clip-path="url(#p8220b6b640)" style="fill: none; stroke: #b0b0b0; stroke-width: 0.8; stroke-linecap: square"/>
     </g>
     <g id="line2d_95">
      <g>
       <use xlink:href="#med53c1415d" x="108" y="389.303306" style="stroke: #000000; stroke-width: 0.8"/>
      </g>
     </g>
     <g id="text_48">
      <!-- 1.0 -->
      <g transform="translate(85.096875 393.102525)scale(0.1 -0.1)">
       <use xlink:href="#DejaVuSans-31"/>
       <use xlink:href="#DejaVuSans-2e" x="63.623047"/>
       <use xlink:href="#DejaVuSans-30" x="95.410156"/>
      </g>
     </g>
    </g>
    <g id="text_49">
     <!-- Acceleration Input -->
     <g transform="translate(70.6375 493.022721)rotate(-90)scale(0.1 -0.1)">
      <defs>
       <path id="DejaVuSans-41" d="M 2188 4044 
L 1331 1722 
L 3047 1722 
L 2188 4044 
z
M 1831 4666 
L 2547 4666 
L 4325 0 
L 3669 0 
L 3244 1197 
L 1141 1197 
L 716 0 
L 50 0 
L 1831 4666 
z
" transform="scale(0.015625)"/>
       <path id="DejaVuSans-63" d="M 3122 3366 
L 3122 2828 
Q 2878 2963 2633 3030 
Q 2388 3097 2138 3097 
Q 1578 3097 1268 2742 
Q 959 2388 959 1747 
Q 959 1106 1268 751 
Q 1578 397 2138 397 
Q 2388 397 2633 464 
Q 2878 531 3122 666 
L 3122 134 
Q 2881 22 2623 -34 
Q 2366 -91 2075 -91 
Q 1284 -91 818 406 
Q 353 903 353 1747 
Q 353 2603 823 3093 
Q 1294 3584 2113 3584 
Q 2378 3584 2631 3529 
Q 2884 3475 3122 3366 
z
" transform="scale(0.015625)"/>
       <path id="DejaVuSans-6c" d="M 603 4863 
L 1178 4863 
L 1178 0 
L 603 0 
L 603 4863 
z
" transform="scale(0.015625)"/>
       <path id="DejaVuSans-49" d="M 628 4666 
L 1259 4666 
L 1259 0 
L 628 0 
L 628 4666 
z
" transform="scale(0.015625)"/>
      </defs>
      <use xlink:href="#DejaVuSans-41"/>
      <use xlink:href="#DejaVuSans-63" x="66.658203"/>
      <use xlink:href="#DejaVuSans-63" x="121.638672"/>
      <use xlink:href="#DejaVuSans-65" x="176.619141"/>
      <use xlink:href="#DejaVuSans-6c" x="238.142578"/>
      <use xlink:href="#DejaVuSans-65" x="265.925781"/>
      <use xlink:href="#DejaVuSans-72" x="327.449219"/>
      <use xlink:href="#DejaVuSans-61" x="368.5625"/>
      <use xlink:href="#DejaVuSans-74" x="429.841797"/>
      <use xlink:href="#DejaVuSans-69" x="469.050781"/>
      <use xlink:href="#DejaVuSans-6f" x="496.833984"/>
      <use xlink:href="#DejaVuSans-6e" x="558.015625"/>
      <use xlink:href="#DejaVuSans-20" x="621.394531"/>
      <use xlink:href="#DejaVuSans-49" x="653.181641"/>
      <use xlink:href="#DejaVuSans-6e" x="682.673828"/>
      <use xlink:href="#DejaVuSans-70" x="746.052734"/>
      <use xlink:href="#DejaVuSans-75" x="809.529297"/>
      <use xlink:href="#DejaVuSans-74" x="872.908203"/>
     </g>
    </g>
   </g>
   <g id="line2d_96">
    <path d="M 121.834711 447.415832 
L 130.17725 429.806546 
L 134.348519 421.502353 
L 138.519789 413.785974 
L 141.300635 409.055392 
L 144.081482 404.711954 
L 146.862328 400.799494 
L 149.643175 397.357499 
L 152.424021 394.420705 
L 155.204867 392.018751 
L 156.595291 391.026132 
L 157.985714 390.175878 
L 159.376137 389.470136 
L 160.76656 388.910686 
L 162.156983 388.498942 
L 163.547406 388.235943 
L 164.93783 388.122353 
L 166.328253 388.158458 
L 167.718676 388.344169 
L 169.109099 388.679014 
L 170.499522 389.162151 
L 171.889946 389.792357 
L 173.280369 390.568044 
L 174.670792 391.487251 
L 177.451638 393.746591 
L 180.232485 396.547574 
L 183.013331 399.861932 
L 185.794177 403.656217 
L 188.575024 407.892135 
L 191.35587 412.526936 
L 194.136717 417.513844 
L 198.307986 425.543467 
L 202.479256 434.069236 
L 210.821795 451.82876 
L 217.773911 466.392167 
L 221.94518 474.614267 
L 226.11645 482.219407 
L 228.897296 486.860856 
L 231.678143 491.104215 
L 234.458989 494.906661 
L 237.239836 498.229816 
L 240.020682 501.040144 
L 242.801528 503.309282 
L 244.191951 504.233528 
L 245.582375 505.014329 
L 246.972798 505.649713 
L 248.363221 506.138077 
L 249.753644 506.478187 
L 251.144067 506.669185 
L 252.534491 506.710588 
L 253.924914 506.602293 
L 255.315337 506.344572 
L 256.70576 505.938076 
L 258.096183 505.383831 
L 259.486607 504.683238 
L 260.87703 503.838063 
L 262.267453 502.850442 
L 265.048299 500.458186 
L 267.829146 497.530613 
L 270.609992 494.097269 
L 273.390838 490.192804 
L 276.171685 485.856623 
L 278.952531 481.132487 
L 281.733378 476.068074 
L 285.904647 467.946055 
L 291.46634 456.42572 
L 305.370572 427.083593 
L 309.541841 418.948414 
L 312.322688 413.872878 
L 315.103534 409.135865 
L 317.884381 404.785184 
L 320.665227 400.864742 
L 323.446073 397.414106 
L 326.22692 394.468099 
L 329.007766 392.056455 
L 330.398189 391.058842 
L 331.788612 390.203512 
L 333.179036 389.492623 
L 334.569459 388.92797 
L 335.959882 388.510979 
L 337.350305 388.242703 
L 338.740728 388.123818 
L 340.131152 388.154626 
L 341.521575 388.335048 
L 342.911998 388.664628 
L 344.302421 389.142535 
L 345.692844 389.767562 
L 347.083268 390.538132 
L 348.473691 391.452298 
L 351.254537 393.701832 
L 354.035384 396.493461 
L 356.81623 399.799012 
L 359.597076 403.585124 
L 362.377923 407.813586 
L 365.158769 412.441725 
L 367.939615 417.422831 
L 372.110885 425.445488 
L 376.282155 433.966514 
L 384.624694 451.723596 
L 391.57681 466.292234 
L 395.748079 474.520522 
L 398.528926 479.675465 
L 398.528926 479.675465 
" clip-path="url(#p8220b6b640)" style="fill: none; stroke: #1f77b4; stroke-width: 1.5; stroke-linecap: square"/>
   </g>
   <g id="patch_14">
    <path d="M 108 512.64 
L 108 382.192941 
" style="fill: none; stroke: #000000; stroke-width: 0.8; stroke-linejoin: miter; stroke-linecap: square"/>
   </g>
   <g id="patch_15">
    <path d="M 412.363636 512.64 
L 412.363636 382.192941 
" style="fill: none; stroke: #000000; stroke-width: 0.8; stroke-linejoin: miter; stroke-linecap: square"/>
   </g>
   <g id="patch_16">
    <path d="M 108 512.64 
L 412.363636 512.64 
" style="fill: none; stroke: #000000; stroke-width: 0.8; stroke-linejoin: miter; stroke-linecap: square"/>
   </g>
   <g id="patch_17">
    <path d="M 108 382.192941 
L 412.363636 382.192941 
" style="fill: none; stroke: #000000; stroke-width: 0.8; stroke-linejoin: miter; stroke-linecap: square"/>
   </g>
  </g>
  <g id="axes_4">
   <g id="patch_18">
    <path d="M 473.236364 199.567059 
L 777.6 199.567059 
L 777.6 69.12 
L 473.236364 69.12 
z
" style="fill: #ffffff"/>
   </g>
   <g id="matplotlib.axis_7">
    <g id="xtick_28">
     <g id="line2d_97">
      <path d="M 487.071074 199.567059 
L 487.071074 69.12 
" clip-path="url(#pe60af95121)" style="fill: none; stroke: #b0b0b0; stroke-width: 0.8; stroke-linecap: square"/>
     </g>
     <g id="line2d_98">
      <g>
       <use xlink:href="#m269112938b" x="487.071074" y="199.567059" style="stroke: #000000; stroke-width: 0.8"/>
      </g>
     </g>
     <g id="text_50">
      <!-- 0 -->
      <g transform="translate(483.889824 214.165496)scale(0.1 -0.1)">
       <use xlink:href="#DejaVuSans-30"/>
      </g>
     </g>
    </g>
    <g id="xtick_29">
     <g id="line2d_99">
      <path d="M 521.657851 199.567059 
L 521.657851 69.12 
" clip-path="url(#pe60af95121)" style="fill: none; stroke: #b0b0b0; stroke-width: 0.8; stroke-linecap: square"/>
     </g>
     <g id="line2d_100">
      <g>
       <use xlink:href="#m269112938b" x="521.657851" y="199.567059" style="stroke: #000000; stroke-width: 0.8"/>
      </g>
     </g>
     <g id="text_51">
      <!-- 25 -->
      <g transform="translate(515.295351 214.165496)scale(0.1 -0.1)">
       <use xlink:href="#DejaVuSans-32"/>
       <use xlink:href="#DejaVuSans-35" x="63.623047"/>
      </g>
     </g>
    </g>
    <g id="xtick_30">
     <g id="line2d_101">
      <path d="M 556.244628 199.567059 
L 556.244628 69.12 
" clip-path="url(#pe60af95121)" style="fill: none; stroke: #b0b0b0; stroke-width: 0.8; stroke-linecap: square"/>
     </g>
     <g id="line2d_102">
      <g>
       <use xlink:href="#m269112938b" x="556.244628" y="199.567059" style="stroke: #000000; stroke-width: 0.8"/>
      </g>
     </g>
     <g id="text_52">
      <!-- 50 -->
      <g transform="translate(549.882128 214.165496)scale(0.1 -0.1)">
       <use xlink:href="#DejaVuSans-35"/>
       <use xlink:href="#DejaVuSans-30" x="63.623047"/>
      </g>
     </g>
    </g>
    <g id="xtick_31">
     <g id="line2d_103">
      <path d="M 590.831405 199.567059 
L 590.831405 69.12 
" clip-path="url(#pe60af95121)" style="fill: none; stroke: #b0b0b0; stroke-width: 0.8; stroke-linecap: square"/>
     </g>
     <g id="line2d_104">
      <g>
       <use xlink:href="#m269112938b" x="590.831405" y="199.567059" style="stroke: #000000; stroke-width: 0.8"/>
      </g>
     </g>
     <g id="text_53">
      <!-- 75 -->
      <g transform="translate(584.468905 214.165496)scale(0.1 -0.1)">
       <use xlink:href="#DejaVuSans-37"/>
       <use xlink:href="#DejaVuSans-35" x="63.623047"/>
      </g>
     </g>
    </g>
    <g id="xtick_32">
     <g id="line2d_105">
      <path d="M 625.418182 199.567059 
L 625.418182 69.12 
" clip-path="url(#pe60af95121)" style="fill: none; stroke: #b0b0b0; stroke-width: 0.8; stroke-linecap: square"/>
     </g>
     <g id="line2d_106">
      <g>
       <use xlink:href="#m269112938b" x="625.418182" y="199.567059" style="stroke: #000000; stroke-width: 0.8"/>
      </g>
     </g>
     <g id="text_54">
      <!-- 100 -->
      <g transform="translate(615.874432 214.165496)scale(0.1 -0.1)">
       <use xlink:href="#DejaVuSans-31"/>
       <use xlink:href="#DejaVuSans-30" x="63.623047"/>
       <use xlink:href="#DejaVuSans-30" x="127.246094"/>
      </g>
     </g>
    </g>
    <g id="xtick_33">
     <g id="line2d_107">
      <path d="M 660.004959 199.567059 
L 660.004959 69.12 
" clip-path="url(#pe60af95121)" style="fill: none; stroke: #b0b0b0; stroke-width: 0.8; stroke-linecap: square"/>
     </g>
     <g id="line2d_108">
      <g>
       <use xlink:href="#m269112938b" x="660.004959" y="199.567059" style="stroke: #000000; stroke-width: 0.8"/>
      </g>
     </g>
     <g id="text_55">
      <!-- 125 -->
      <g transform="translate(650.461209 214.165496)scale(0.1 -0.1)">
       <use xlink:href="#DejaVuSans-31"/>
       <use xlink:href="#DejaVuSans-32" x="63.623047"/>
       <use xlink:href="#DejaVuSans-35" x="127.246094"/>
      </g>
     </g>
    </g>
    <g id="xtick_34">
     <g id="line2d_109">
      <path d="M 694.591736 199.567059 
L 694.591736 69.12 
" clip-path="url(#pe60af95121)" style="fill: none; stroke: #b0b0b0; stroke-width: 0.8; stroke-linecap: square"/>
     </g>
     <g id="line2d_110">
      <g>
       <use xlink:href="#m269112938b" x="694.591736" y="199.567059" style="stroke: #000000; stroke-width: 0.8"/>
      </g>
     </g>
     <g id="text_56">
      <!-- 150 -->
      <g transform="translate(685.047986 214.165496)scale(0.1 -0.1)">
       <use xlink:href="#DejaVuSans-31"/>
       <use xlink:href="#DejaVuSans-35" x="63.623047"/>
       <use xlink:href="#DejaVuSans-30" x="127.246094"/>
      </g>
     </g>
    </g>
    <g id="xtick_35">
     <g id="line2d_111">
      <path d="M 729.178512 199.567059 
L 729.178512 69.12 
" clip-path="url(#pe60af95121)" style="fill: none; stroke: #b0b0b0; stroke-width: 0.8; stroke-linecap: square"/>
     </g>
     <g id="line2d_112">
      <g>
       <use xlink:href="#m269112938b" x="729.178512" y="199.567059" style="stroke: #000000; stroke-width: 0.8"/>
      </g>
     </g>
     <g id="text_57">
      <!-- 175 -->
      <g transform="translate(719.634762 214.165496)scale(0.1 -0.1)">
       <use xlink:href="#DejaVuSans-31"/>
       <use xlink:href="#DejaVuSans-37" x="63.623047"/>
       <use xlink:href="#DejaVuSans-35" x="127.246094"/>
      </g>
     </g>
    </g>
    <g id="xtick_36">
     <g id="line2d_113">
      <path d="M 763.765289 199.567059 
L 763.765289 69.12 
" clip-path="url(#pe60af95121)" style="fill: none; stroke: #b0b0b0; stroke-width: 0.8; stroke-linecap: square"/>
     </g>
     <g id="line2d_114">
      <g>
       <use xlink:href="#m269112938b" x="763.765289" y="199.567059" style="stroke: #000000; stroke-width: 0.8"/>
      </g>
     </g>
     <g id="text_58">
      <!-- 200 -->
      <g transform="translate(754.221539 214.165496)scale(0.1 -0.1)">
       <use xlink:href="#DejaVuSans-32"/>
       <use xlink:href="#DejaVuSans-30" x="63.623047"/>
       <use xlink:href="#DejaVuSans-30" x="127.246094"/>
      </g>
     </g>
    </g>
   </g>
   <g id="matplotlib.axis_8">
    <g id="ytick_17">
     <g id="line2d_115">
      <path d="M 473.236364 196.483059 
L 777.6 196.483059 
" clip-path="url(#pe60af95121)" style="fill: none; stroke: #b0b0b0; stroke-width: 0.8; stroke-linecap: square"/>
     </g>
     <g id="line2d_116">
      <g>
       <use xlink:href="#med53c1415d" x="473.236364" y="196.483059" style="stroke: #000000; stroke-width: 0.8"/>
      </g>
     </g>
     <g id="text_59">
      <!-- 0 -->
      <g transform="translate(459.873864 200.282277)scale(0.1 -0.1)">
       <use xlink:href="#DejaVuSans-30"/>
      </g>
     </g>
    </g>
    <g id="ytick_18">
     <g id="line2d_117">
      <path d="M 473.236364 168.017625 
L 777.6 168.017625 
" clip-path="url(#pe60af95121)" style="fill: none; stroke: #b0b0b0; stroke-width: 0.8; stroke-linecap: square"/>
     </g>
     <g id="line2d_118">
      <g>
       <use xlink:href="#med53c1415d" x="473.236364" y="168.017625" style="stroke: #000000; stroke-width: 0.8"/>
      </g>
     </g>
     <g id="text_60">
      <!-- 1 -->
      <g transform="translate(459.873864 171.816844)scale(0.1 -0.1)">
       <use xlink:href="#DejaVuSans-31"/>
      </g>
     </g>
    </g>
    <g id="ytick_19">
     <g id="line2d_119">
      <path d="M 473.236364 139.552192 
L 777.6 139.552192 
" clip-path="url(#pe60af95121)" style="fill: none; stroke: #b0b0b0; stroke-width: 0.8; stroke-linecap: square"/>
     </g>
     <g id="line2d_120">
      <g>
       <use xlink:href="#med53c1415d" x="473.236364" y="139.552192" style="stroke: #000000; stroke-width: 0.8"/>
      </g>
     </g>
     <g id="text_61">
      <!-- 2 -->
      <g transform="translate(459.873864 143.35141)scale(0.1 -0.1)">
       <use xlink:href="#DejaVuSans-32"/>
      </g>
     </g>
    </g>
    <g id="ytick_20">
     <g id="line2d_121">
      <path d="M 473.236364 111.086758 
L 777.6 111.086758 
" clip-path="url(#pe60af95121)" style="fill: none; stroke: #b0b0b0; stroke-width: 0.8; stroke-linecap: square"/>
     </g>
     <g id="line2d_122">
      <g>
       <use xlink:href="#med53c1415d" x="473.236364" y="111.086758" style="stroke: #000000; stroke-width: 0.8"/>
      </g>
     </g>
     <g id="text_62">
      <!-- 3 -->
      <g transform="translate(459.873864 114.885977)scale(0.1 -0.1)">
       <defs>
        <path id="DejaVuSans-33" d="M 2597 2516 
Q 3050 2419 3304 2112 
Q 3559 1806 3559 1356 
Q 3559 666 3084 287 
Q 2609 -91 1734 -91 
Q 1441 -91 1130 -33 
Q 819 25 488 141 
L 488 750 
Q 750 597 1062 519 
Q 1375 441 1716 441 
Q 2309 441 2620 675 
Q 2931 909 2931 1356 
Q 2931 1769 2642 2001 
Q 2353 2234 1838 2234 
L 1294 2234 
L 1294 2753 
L 1863 2753 
Q 2328 2753 2575 2939 
Q 2822 3125 2822 3475 
Q 2822 3834 2567 4026 
Q 2313 4219 1838 4219 
Q 1578 4219 1281 4162 
Q 984 4106 628 3988 
L 628 4550 
Q 988 4650 1302 4700 
Q 1616 4750 1894 4750 
Q 2613 4750 3031 4423 
Q 3450 4097 3450 3541 
Q 3450 3153 3228 2886 
Q 3006 2619 2597 2516 
z
" transform="scale(0.015625)"/>
       </defs>
       <use xlink:href="#DejaVuSans-33"/>
      </g>
     </g>
    </g>
    <g id="ytick_21">
     <g id="line2d_123">
      <path d="M 473.236364 82.621324 
L 777.6 82.621324 
" clip-path="url(#pe60af95121)" style="fill: none; stroke: #b0b0b0; stroke-width: 0.8; stroke-linecap: square"/>
     </g>
     <g id="line2d_124">
      <g>
       <use xlink:href="#med53c1415d" x="473.236364" y="82.621324" style="stroke: #000000; stroke-width: 0.8"/>
      </g>
     </g>
     <g id="text_63">
      <!-- 4 -->
      <g transform="translate(459.873864 86.420543)scale(0.1 -0.1)">
       <use xlink:href="#DejaVuSans-34"/>
      </g>
     </g>
    </g>
    <g id="text_64">
     <!-- Position Covariance -->
     <g transform="translate(453.794176 183.473998)rotate(-90)scale(0.1 -0.1)">
      <defs>
       <path id="DejaVuSans-43" d="M 4122 4306 
L 4122 3641 
Q 3803 3938 3442 4084 
Q 3081 4231 2675 4231 
Q 1875 4231 1450 3742 
Q 1025 3253 1025 2328 
Q 1025 1406 1450 917 
Q 1875 428 2675 428 
Q 3081 428 3442 575 
Q 3803 722 4122 1019 
L 4122 359 
Q 3791 134 3420 21 
Q 3050 -91 2638 -91 
Q 1578 -91 968 557 
Q 359 1206 359 2328 
Q 359 3453 968 4101 
Q 1578 4750 2638 4750 
Q 3056 4750 3426 4639 
Q 3797 4528 4122 4306 
z
" transform="scale(0.015625)"/>
       <path id="DejaVuSans-76" d="M 191 3500 
L 800 3500 
L 1894 563 
L 2988 3500 
L 3597 3500 
L 2284 0 
L 1503 0 
L 191 3500 
z
" transform="scale(0.015625)"/>
      </defs>
      <use xlink:href="#DejaVuSans-50"/>
      <use xlink:href="#DejaVuSans-6f" x="56.677734"/>
      <use xlink:href="#DejaVuSans-73" x="117.859375"/>
      <use xlink:href="#DejaVuSans-69" x="169.958984"/>
      <use xlink:href="#DejaVuSans-74" x="197.742188"/>
      <use xlink:href="#DejaVuSans-69" x="236.951172"/>
      <use xlink:href="#DejaVuSans-6f" x="264.734375"/>
      <use xlink:href="#DejaVuSans-6e" x="325.916016"/>
      <use xlink:href="#DejaVuSans-20" x="389.294922"/>
      <use xlink:href="#DejaVuSans-43" x="421.082031"/>
      <use xlink:href="#DejaVuSans-6f" x="490.90625"/>
      <use xlink:href="#DejaVuSans-76" x="552.087891"/>
      <use xlink:href="#DejaVuSans-61" x="611.267578"/>
      <use xlink:href="#DejaVuSans-72" x="672.546875"/>
      <use xlink:href="#DejaVuSans-69" x="713.660156"/>
      <use xlink:href="#DejaVuSans-61" x="741.443359"/>
      <use xlink:href="#DejaVuSans-6e" x="802.722656"/>
      <use xlink:href="#DejaVuSans-63" x="866.101562"/>
      <use xlink:href="#DejaVuSans-65" x="921.082031"/>
     </g>
    </g>
   </g>
   <g id="line2d_125">
    <path d="M 487.071074 168.017625 
L 489.838017 162.770743 
L 492.604959 158.168226 
L 495.371901 153.981059 
L 499.522314 148.208125 
L 503.672727 142.825528 
L 509.206612 135.998199 
L 520.27438 122.799362 
L 531.342149 109.479356 
L 539.642975 99.118896 
L 541.026446 97.351394 
L 542.409917 193.637647 
L 543.793388 183.295888 
L 545.17686 177.855391 
L 546.560331 173.514285 
L 547.943802 169.728101 
L 550.710744 163.073029 
L 553.477686 157.115335 
L 557.628099 148.880893 
L 563.161983 138.585698 
L 571.46281 123.757918 
L 590.831405 89.381477 
L 597.74876 76.805224 
L 599.132231 193.637287 
L 600.515702 183.269526 
L 601.899174 177.785896 
L 603.282645 173.390629 
L 604.666116 169.541839 
L 607.433058 162.742057 
L 610.2 156.619765 
L 614.350413 148.111377 
L 619.884298 137.415878 
L 628.185124 121.942107 
L 647.553719 85.977863 
L 653.087603 75.478827 
L 654.471074 193.637269 
L 655.854545 183.2665 
L 657.238017 177.777979 
L 658.621488 173.37659 
L 660.004959 169.52074 
L 662.771901 162.70468 
L 665.538843 156.563924 
L 669.689256 148.024889 
L 675.22314 137.284744 
L 684.907438 119.17285 
L 701.509091 88.21552 
L 708.426446 75.049412 
L 709.809917 193.637264 
L 711.193388 183.266142 
L 712.57686 177.777022 
L 713.960331 173.37488 
L 715.343802 169.518161 
L 718.110744 162.700093 
L 720.877686 156.557057 
L 725.028099 148.014239 
L 730.561983 137.268581 
L 740.246281 119.146295 
L 756.847934 88.170319 
L 762.381818 77.648434 
L 763.765289 193.637296 
L 763.765289 193.637296 
" clip-path="url(#pe60af95121)" style="fill: none; stroke: #1f77b4; stroke-width: 1.5; stroke-linecap: square"/>
   </g>
   <g id="patch_19">
    <path d="M 473.236364 199.567059 
L 473.236364 69.12 
" style="fill: none; stroke: #000000; stroke-width: 0.8; stroke-linejoin: miter; stroke-linecap: square"/>
   </g>
   <g id="patch_20">
    <path d="M 777.6 199.567059 
L 777.6 69.12 
" style="fill: none; stroke: #000000; stroke-width: 0.8; stroke-linejoin: miter; stroke-linecap: square"/>
   </g>
   <g id="patch_21">
    <path d="M 473.236364 199.567059 
L 777.6 199.567059 
" style="fill: none; stroke: #000000; stroke-width: 0.8; stroke-linejoin: miter; stroke-linecap: square"/>
   </g>
   <g id="patch_22">
    <path d="M 473.236364 69.12 
L 777.6 69.12 
" style="fill: none; stroke: #000000; stroke-width: 0.8; stroke-linejoin: miter; stroke-linecap: square"/>
   </g>
  </g>
  <g id="axes_5">
   <g id="patch_23">
    <path d="M 473.236364 356.103529 
L 777.6 356.103529 
L 777.6 225.656471 
L 473.236364 225.656471 
z
" style="fill: #ffffff"/>
   </g>
   <g id="matplotlib.axis_9">
    <g id="xtick_37">
     <g id="line2d_126">
      <path d="M 487.071074 356.103529 
L 487.071074 225.656471 
" clip-path="url(#p2a9f505796)" style="fill: none; stroke: #b0b0b0; stroke-width: 0.8; stroke-linecap: square"/>
     </g>
     <g id="line2d_127">
      <g>
       <use xlink:href="#m269112938b" x="487.071074" y="356.103529" style="stroke: #000000; stroke-width: 0.8"/>
      </g>
     </g>
     <g id="text_65">
      <!-- 0 -->
      <g transform="translate(483.889824 370.701967)scale(0.1 -0.1)">
       <use xlink:href="#DejaVuSans-30"/>
      </g>
     </g>
    </g>
    <g id="xtick_38">
     <g id="line2d_128">
      <path d="M 521.657851 356.103529 
L 521.657851 225.656471 
" clip-path="url(#p2a9f505796)" style="fill: none; stroke: #b0b0b0; stroke-width: 0.8; stroke-linecap: square"/>
     </g>
     <g id="line2d_129">
      <g>
       <use xlink:href="#m269112938b" x="521.657851" y="356.103529" style="stroke: #000000; stroke-width: 0.8"/>
      </g>
     </g>
     <g id="text_66">
      <!-- 25 -->
      <g transform="translate(515.295351 370.701967)scale(0.1 -0.1)">
       <use xlink:href="#DejaVuSans-32"/>
       <use xlink:href="#DejaVuSans-35" x="63.623047"/>
      </g>
     </g>
    </g>
    <g id="xtick_39">
     <g id="line2d_130">
      <path d="M 556.244628 356.103529 
L 556.244628 225.656471 
" clip-path="url(#p2a9f505796)" style="fill: none; stroke: #b0b0b0; stroke-width: 0.8; stroke-linecap: square"/>
     </g>
     <g id="line2d_131">
      <g>
       <use xlink:href="#m269112938b" x="556.244628" y="356.103529" style="stroke: #000000; stroke-width: 0.8"/>
      </g>
     </g>
     <g id="text_67">
      <!-- 50 -->
      <g transform="translate(549.882128 370.701967)scale(0.1 -0.1)">
       <use xlink:href="#DejaVuSans-35"/>
       <use xlink:href="#DejaVuSans-30" x="63.623047"/>
      </g>
     </g>
    </g>
    <g id="xtick_40">
     <g id="line2d_132">
      <path d="M 590.831405 356.103529 
L 590.831405 225.656471 
" clip-path="url(#p2a9f505796)" style="fill: none; stroke: #b0b0b0; stroke-width: 0.8; stroke-linecap: square"/>
     </g>
     <g id="line2d_133">
      <g>
       <use xlink:href="#m269112938b" x="590.831405" y="356.103529" style="stroke: #000000; stroke-width: 0.8"/>
      </g>
     </g>
     <g id="text_68">
      <!-- 75 -->
      <g transform="translate(584.468905 370.701967)scale(0.1 -0.1)">
       <use xlink:href="#DejaVuSans-37"/>
       <use xlink:href="#DejaVuSans-35" x="63.623047"/>
      </g>
     </g>
    </g>
    <g id="xtick_41">
     <g id="line2d_134">
      <path d="M 625.418182 356.103529 
L 625.418182 225.656471 
" clip-path="url(#p2a9f505796)" style="fill: none; stroke: #b0b0b0; stroke-width: 0.8; stroke-linecap: square"/>
     </g>
     <g id="line2d_135">
      <g>
       <use xlink:href="#m269112938b" x="625.418182" y="356.103529" style="stroke: #000000; stroke-width: 0.8"/>
      </g>
     </g>
     <g id="text_69">
      <!-- 100 -->
      <g transform="translate(615.874432 370.701967)scale(0.1 -0.1)">
       <use xlink:href="#DejaVuSans-31"/>
       <use xlink:href="#DejaVuSans-30" x="63.623047"/>
       <use xlink:href="#DejaVuSans-30" x="127.246094"/>
      </g>
     </g>
    </g>
    <g id="xtick_42">
     <g id="line2d_136">
      <path d="M 660.004959 356.103529 
L 660.004959 225.656471 
" clip-path="url(#p2a9f505796)" style="fill: none; stroke: #b0b0b0; stroke-width: 0.8; stroke-linecap: square"/>
     </g>
     <g id="line2d_137">
      <g>
       <use xlink:href="#m269112938b" x="660.004959" y="356.103529" style="stroke: #000000; stroke-width: 0.8"/>
      </g>
     </g>
     <g id="text_70">
      <!-- 125 -->
      <g transform="translate(650.461209 370.701967)scale(0.1 -0.1)">
       <use xlink:href="#DejaVuSans-31"/>
       <use xlink:href="#DejaVuSans-32" x="63.623047"/>
       <use xlink:href="#DejaVuSans-35" x="127.246094"/>
      </g>
     </g>
    </g>
    <g id="xtick_43">
     <g id="line2d_138">
      <path d="M 694.591736 356.103529 
L 694.591736 225.656471 
" clip-path="url(#p2a9f505796)" style="fill: none; stroke: #b0b0b0; stroke-width: 0.8; stroke-linecap: square"/>
     </g>
     <g id="line2d_139">
      <g>
       <use xlink:href="#m269112938b" x="694.591736" y="356.103529" style="stroke: #000000; stroke-width: 0.8"/>
      </g>
     </g>
     <g id="text_71">
      <!-- 150 -->
      <g transform="translate(685.047986 370.701967)scale(0.1 -0.1)">
       <use xlink:href="#DejaVuSans-31"/>
       <use xlink:href="#DejaVuSans-35" x="63.623047"/>
       <use xlink:href="#DejaVuSans-30" x="127.246094"/>
      </g>
     </g>
    </g>
    <g id="xtick_44">
     <g id="line2d_140">
      <path d="M 729.178512 356.103529 
L 729.178512 225.656471 
" clip-path="url(#p2a9f505796)" style="fill: none; stroke: #b0b0b0; stroke-width: 0.8; stroke-linecap: square"/>
     </g>
     <g id="line2d_141">
      <g>
       <use xlink:href="#m269112938b" x="729.178512" y="356.103529" style="stroke: #000000; stroke-width: 0.8"/>
      </g>
     </g>
     <g id="text_72">
      <!-- 175 -->
      <g transform="translate(719.634762 370.701967)scale(0.1 -0.1)">
       <use xlink:href="#DejaVuSans-31"/>
       <use xlink:href="#DejaVuSans-37" x="63.623047"/>
       <use xlink:href="#DejaVuSans-35" x="127.246094"/>
      </g>
     </g>
    </g>
    <g id="xtick_45">
     <g id="line2d_142">
      <path d="M 763.765289 356.103529 
L 763.765289 225.656471 
" clip-path="url(#p2a9f505796)" style="fill: none; stroke: #b0b0b0; stroke-width: 0.8; stroke-linecap: square"/>
     </g>
     <g id="line2d_143">
      <g>
       <use xlink:href="#m269112938b" x="763.765289" y="356.103529" style="stroke: #000000; stroke-width: 0.8"/>
      </g>
     </g>
     <g id="text_73">
      <!-- 200 -->
      <g transform="translate(754.221539 370.701967)scale(0.1 -0.1)">
       <use xlink:href="#DejaVuSans-32"/>
       <use xlink:href="#DejaVuSans-30" x="63.623047"/>
       <use xlink:href="#DejaVuSans-30" x="127.246094"/>
      </g>
     </g>
    </g>
   </g>
   <g id="matplotlib.axis_10">
    <g id="ytick_22">
     <g id="line2d_144">
      <path d="M 473.236364 356.103529 
L 777.6 356.103529 
" clip-path="url(#p2a9f505796)" style="fill: none; stroke: #b0b0b0; stroke-width: 0.8; stroke-linecap: square"/>
     </g>
     <g id="line2d_145">
      <g>
       <use xlink:href="#med53c1415d" x="473.236364" y="356.103529" style="stroke: #000000; stroke-width: 0.8"/>
      </g>
     </g>
     <g id="text_74">
      <!-- 0 -->
      <g transform="translate(459.873864 359.902748)scale(0.1 -0.1)">
       <use xlink:href="#DejaVuSans-30"/>
      </g>
     </g>
    </g>
    <g id="ytick_23">
     <g id="line2d_146">
      <path d="M 473.236364 323.491765 
L 777.6 323.491765 
" clip-path="url(#p2a9f505796)" style="fill: none; stroke: #b0b0b0; stroke-width: 0.8; stroke-linecap: square"/>
     </g>
     <g id="line2d_147">
      <g>
       <use xlink:href="#med53c1415d" x="473.236364" y="323.491765" style="stroke: #000000; stroke-width: 0.8"/>
      </g>
     </g>
     <g id="text_75">
      <!-- 1 -->
      <g transform="translate(459.873864 327.290983)scale(0.1 -0.1)">
       <use xlink:href="#DejaVuSans-31"/>
      </g>
     </g>
    </g>
    <g id="ytick_24">
     <g id="line2d_148">
      <path d="M 473.236364 290.88 
L 777.6 290.88 
" clip-path="url(#p2a9f505796)" style="fill: none; stroke: #b0b0b0; stroke-width: 0.8; stroke-linecap: square"/>
     </g>
     <g id="line2d_149">
      <g>
       <use xlink:href="#med53c1415d" x="473.236364" y="290.88" style="stroke: #000000; stroke-width: 0.8"/>
      </g>
     </g>
     <g id="text_76">
      <!-- 2 -->
      <g transform="translate(459.873864 294.679219)scale(0.1 -0.1)">
       <use xlink:href="#DejaVuSans-32"/>
      </g>
     </g>
    </g>
    <g id="ytick_25">
     <g id="line2d_150">
      <path d="M 473.236364 258.268235 
L 777.6 258.268235 
" clip-path="url(#p2a9f505796)" style="fill: none; stroke: #b0b0b0; stroke-width: 0.8; stroke-linecap: square"/>
     </g>
     <g id="line2d_151">
      <g>
       <use xlink:href="#med53c1415d" x="473.236364" y="258.268235" style="stroke: #000000; stroke-width: 0.8"/>
      </g>
     </g>
     <g id="text_77">
      <!-- 3 -->
      <g transform="translate(459.873864 262.067454)scale(0.1 -0.1)">
       <use xlink:href="#DejaVuSans-33"/>
      </g>
     </g>
    </g>
    <g id="ytick_26">
     <g id="line2d_152">
      <path d="M 473.236364 225.656471 
L 777.6 225.656471 
" clip-path="url(#p2a9f505796)" style="fill: none; stroke: #b0b0b0; stroke-width: 0.8; stroke-linecap: square"/>
     </g>
     <g id="line2d_153">
      <g>
       <use xlink:href="#med53c1415d" x="473.236364" y="225.656471" style="stroke: #000000; stroke-width: 0.8"/>
      </g>
     </g>
     <g id="text_78">
      <!-- 4 -->
      <g transform="translate(459.873864 229.455689)scale(0.1 -0.1)">
       <use xlink:href="#DejaVuSans-34"/>
      </g>
     </g>
    </g>
    <g id="text_79">
     <!-- Velocity Covariance -->
     <g transform="translate(453.794176 340.162031)rotate(-90)scale(0.1 -0.1)">
      <defs>
       <path id="DejaVuSans-56" d="M 1831 0 
L 50 4666 
L 709 4666 
L 2188 738 
L 3669 4666 
L 4325 4666 
L 2547 0 
L 1831 0 
z
" transform="scale(0.015625)"/>
       <path id="DejaVuSans-79" d="M 2059 -325 
Q 1816 -950 1584 -1140 
Q 1353 -1331 966 -1331 
L 506 -1331 
L 506 -850 
L 844 -850 
Q 1081 -850 1212 -737 
Q 1344 -625 1503 -206 
L 1606 56 
L 191 3500 
L 800 3500 
L 1894 763 
L 2988 3500 
L 3597 3500 
L 2059 -325 
z
" transform="scale(0.015625)"/>
      </defs>
      <use xlink:href="#DejaVuSans-56"/>
      <use xlink:href="#DejaVuSans-65" x="60.658203"/>
      <use xlink:href="#DejaVuSans-6c" x="122.181641"/>
      <use xlink:href="#DejaVuSans-6f" x="149.964844"/>
      <use xlink:href="#DejaVuSans-63" x="211.146484"/>
      <use xlink:href="#DejaVuSans-69" x="266.126953"/>
      <use xlink:href="#DejaVuSans-74" x="293.910156"/>
      <use xlink:href="#DejaVuSans-79" x="333.119141"/>
      <use xlink:href="#DejaVuSans-20" x="392.298828"/>
      <use xlink:href="#DejaVuSans-43" x="424.085938"/>
      <use xlink:href="#DejaVuSans-6f" x="493.910156"/>
      <use xlink:href="#DejaVuSans-76" x="555.091797"/>
      <use xlink:href="#DejaVuSans-61" x="614.271484"/>
      <use xlink:href="#DejaVuSans-72" x="675.550781"/>
      <use xlink:href="#DejaVuSans-69" x="716.664062"/>
      <use xlink:href="#DejaVuSans-61" x="744.447266"/>
      <use xlink:href="#DejaVuSans-6e" x="805.726562"/>
      <use xlink:href="#DejaVuSans-63" x="869.105469"/>
      <use xlink:href="#DejaVuSans-65" x="924.085938"/>
     </g>
    </g>
   </g>
   <g id="line2d_154">
    <path d="M 487.071074 339.797647 
L 489.838017 336.810149 
L 492.604959 334.226893 
L 495.371901 331.917997 
L 499.522314 328.818569 
L 503.672727 326.036968 
L 507.82314 323.491765 
L 513.357025 320.379131 
L 518.890909 317.516769 
L 525.808264 314.212959 
L 532.72562 311.151314 
L 541.026446 307.732465 
L 542.409917 312.682598 
L 550.710744 309.152113 
L 559.01157 305.869143 
L 568.695868 302.291559 
L 579.763636 298.474205 
L 590.831405 294.894462 
L 597.74876 292.759771 
L 599.132231 309.184148 
L 607.433058 305.899082 
L 617.117355 302.319507 
L 628.185124 298.500301 
L 639.252893 294.919031 
L 651.704132 291.12561 
L 653.087603 290.717702 
L 654.471074 308.804418 
L 662.771901 305.544019 
L 672.456198 301.987925 
L 683.523967 298.190582 
L 694.591736 294.627352 
L 707.042975 290.850885 
L 708.426446 290.444684 
L 709.809917 308.757607 
L 718.110744 305.500224 
L 727.795041 301.947006 
L 738.86281 298.152344 
L 749.930579 294.591329 
L 762.381818 290.816946 
L 763.765289 308.790273 
L 763.765289 308.790273 
" clip-path="url(#p2a9f505796)" style="fill: none; stroke: #1f77b4; stroke-width: 1.5; stroke-linecap: square"/>
   </g>
   <g id="patch_24">
    <path d="M 473.236364 356.103529 
L 473.236364 225.656471 
" style="fill: none; stroke: #000000; stroke-width: 0.8; stroke-linejoin: miter; stroke-linecap: square"/>
   </g>
   <g id="patch_25">
    <path d="M 777.6 356.103529 
L 777.6 225.656471 
" style="fill: none; stroke: #000000; stroke-width: 0.8; stroke-linejoin: miter; stroke-linecap: square"/>
   </g>
   <g id="patch_26">
    <path d="M 473.236364 356.103529 
L 777.6 356.103529 
" style="fill: none; stroke: #000000; stroke-width: 0.8; stroke-linejoin: miter; stroke-linecap: square"/>
   </g>
   <g id="patch_27">
    <path d="M 473.236364 225.656471 
L 777.6 225.656471 
" style="fill: none; stroke: #000000; stroke-width: 0.8; stroke-linejoin: miter; stroke-linecap: square"/>
   </g>
  </g>
 </g>
 <defs>
  <clipPath id="p517d9719ee">
   <rect x="108" y="69.12" width="304.363636" height="130.447059"/>
  </clipPath>
  <clipPath id="p3a00f43ac5">
   <rect x="108" y="225.656471" width="304.363636" height="130.447059"/>
  </clipPath>
  <clipPath id="p8220b6b640">
   <rect x="108" y="382.192941" width="304.363636" height="130.447059"/>
  </clipPath>
  <clipPath id="pe60af95121">
   <rect x="473.236364" y="69.12" width="304.363636" height="130.447059"/>
  </clipPath>
  <clipPath id="p2a9f505796">
   <rect x="473.236364" y="225.656471" width="304.363636" height="130.447059"/>
  </clipPath>
 </defs>
</svg>
