<?xml version="1.0" encoding="utf-8" standalone="no"?>
<!DOCTYPE svg PUBLIC "-//W3C//DTD SVG 1.1//EN"
  "http://www.w3.org/Graphics/SVG/1.1/DTD/svg11.dtd">
<svg xmlns:xlink="http://www.w3.org/1999/xlink" width="720pt" height="360pt" viewBox="0 0 720 360" xmlns="http://www.w3.org/2000/svg" version="1.1">
 <metadata>
  <rdf:RDF xmlns:dc="http://purl.org/dc/elements/1.1/" xmlns:cc="http://creativecommons.org/ns#" xmlns:rdf="http://www.w3.org/1999/02/22-rdf-syntax-ns#">
   <cc:Work>
    <dc:type rdf:resource="http://purl.org/dc/dcmitype/StillImage"/>
    <dc:date>2023-10-20T15:53:59.913363</dc:date>
    <dc:format>image/svg+xml</dc:format>
    <dc:creator>
     <cc:Agent>
      <dc:title>Matplotlib v3.5.2, https://matplotlib.org/</dc:title>
     </cc:Agent>
    </dc:creator>
   </cc:Work>
  </rdf:RDF>
 </metadata>
 <defs>
  <style type="text/css">*{stroke-linejoin: round; stroke-linecap: butt}</style>
 </defs>
 <g id="figure_1">
  <g id="patch_1">
   <path d="M 0 360 
L 720 360 
L 720 0 
L 0 0 
z
" style="fill: #ffffff"/>
  </g>
  <g id="axes_1">
   <g id="patch_2">
    <path d="M 90 276.61983 
L 343.636364 276.61983 
L 343.636364 86.98017 
L 90 86.98017 
z
" style="fill: #ffffff"/>
   </g>
   <g id="matplotlib.axis_1">
    <g id="xtick_1">
     <g id="line2d_1">
      <path d="M 112.267839 276.61983 
L 112.267839 86.98017 
" clip-path="url(#pea7bdba1c0)" style="fill: none; stroke: #b0b0b0; stroke-width: 0.8; stroke-linecap: square"/>
     </g>
     <g id="line2d_2">
      <defs>
       <path id="m9401b1e128" d="M 0 0 
L 0 3.5 
" style="stroke: #000000; stroke-width: 0.8"/>
      </defs>
      <g>
       <use xlink:href="#m9401b1e128" x="112.267839" y="276.61983" style="stroke: #000000; stroke-width: 0.8"/>
      </g>
     </g>
     <g id="text_1">
      <!-- 0 -->
      <g transform="translate(109.086589 291.218267)scale(0.1 -0.1)">
       <defs>
        <path id="DejaVuSans-30" d="M 2034 4250 
Q 1547 4250 1301 3770 
Q 1056 3291 1056 2328 
Q 1056 1369 1301 889 
Q 1547 409 2034 409 
Q 2525 409 2770 889 
Q 3016 1369 3016 2328 
Q 3016 3291 2770 3770 
Q 2525 4250 2034 4250 
z
M 2034 4750 
Q 2819 4750 3233 4129 
Q 3647 3509 3647 2328 
Q 3647 1150 3233 529 
Q 2819 -91 2034 -91 
Q 1250 -91 836 529 
Q 422 1150 422 2328 
Q 422 3509 836 4129 
Q 1250 4750 2034 4750 
z
" transform="scale(0.015625)"/>
       </defs>
       <use xlink:href="#DejaVuSans-30"/>
      </g>
     </g>
    </g>
    <g id="xtick_2">
     <g id="line2d_3">
      <path d="M 155.77843 276.61983 
L 155.77843 86.98017 
" clip-path="url(#pea7bdba1c0)" style="fill: none; stroke: #b0b0b0; stroke-width: 0.8; stroke-linecap: square"/>
     </g>
     <g id="line2d_4">
      <g>
       <use xlink:href="#m9401b1e128" x="155.77843" y="276.61983" style="stroke: #000000; stroke-width: 0.8"/>
      </g>
     </g>
     <g id="text_2">
      <!-- 5 -->
      <g transform="translate(152.59718 291.218267)scale(0.1 -0.1)">
       <defs>
        <path id="DejaVuSans-35" d="M 691 4666 
L 3169 4666 
L 3169 4134 
L 1269 4134 
L 1269 2991 
Q 1406 3038 1543 3061 
Q 1681 3084 1819 3084 
Q 2600 3084 3056 2656 
Q 3513 2228 3513 1497 
Q 3513 744 3044 326 
Q 2575 -91 1722 -91 
Q 1428 -91 1123 -41 
Q 819 9 494 109 
L 494 744 
Q 775 591 1075 516 
Q 1375 441 1709 441 
Q 2250 441 2565 725 
Q 2881 1009 2881 1497 
Q 2881 1984 2565 2268 
Q 2250 2553 1709 2553 
Q 1456 2553 1204 2497 
Q 953 2441 691 2322 
L 691 4666 
z
" transform="scale(0.015625)"/>
       </defs>
       <use xlink:href="#DejaVuSans-35"/>
      </g>
     </g>
    </g>
    <g id="xtick_3">
     <g id="line2d_5">
      <path d="M 199.289021 276.61983 
L 199.289021 86.98017 
" clip-path="url(#pea7bdba1c0)" style="fill: none; stroke: #b0b0b0; stroke-width: 0.8; stroke-linecap: square"/>
     </g>
     <g id="line2d_6">
      <g>
       <use xlink:href="#m9401b1e128" x="199.289021" y="276.61983" style="stroke: #000000; stroke-width: 0.8"/>
      </g>
     </g>
     <g id="text_3">
      <!-- 10 -->
      <g transform="translate(192.926521 291.218267)scale(0.1 -0.1)">
       <defs>
        <path id="DejaVuSans-31" d="M 794 531 
L 1825 531 
L 1825 4091 
L 703 3866 
L 703 4441 
L 1819 4666 
L 2450 4666 
L 2450 531 
L 3481 531 
L 3481 0 
L 794 0 
L 794 531 
z
" transform="scale(0.015625)"/>
       </defs>
       <use xlink:href="#DejaVuSans-31"/>
       <use xlink:href="#DejaVuSans-30" x="63.623047"/>
      </g>
     </g>
    </g>
    <g id="xtick_4">
     <g id="line2d_7">
      <path d="M 242.799612 276.61983 
L 242.799612 86.98017 
" clip-path="url(#pea7bdba1c0)" style="fill: none; stroke: #b0b0b0; stroke-width: 0.8; stroke-linecap: square"/>
     </g>
     <g id="line2d_8">
      <g>
       <use xlink:href="#m9401b1e128" x="242.799612" y="276.61983" style="stroke: #000000; stroke-width: 0.8"/>
      </g>
     </g>
     <g id="text_4">
      <!-- 15 -->
      <g transform="translate(236.437112 291.218267)scale(0.1 -0.1)">
       <use xlink:href="#DejaVuSans-31"/>
       <use xlink:href="#DejaVuSans-35" x="63.623047"/>
      </g>
     </g>
    </g>
    <g id="xtick_5">
     <g id="line2d_9">
      <path d="M 286.310203 276.61983 
L 286.310203 86.98017 
" clip-path="url(#pea7bdba1c0)" style="fill: none; stroke: #b0b0b0; stroke-width: 0.8; stroke-linecap: square"/>
     </g>
     <g id="line2d_10">
      <g>
       <use xlink:href="#m9401b1e128" x="286.310203" y="276.61983" style="stroke: #000000; stroke-width: 0.8"/>
      </g>
     </g>
     <g id="text_5">
      <!-- 20 -->
      <g transform="translate(279.947703 291.218267)scale(0.1 -0.1)">
       <defs>
        <path id="DejaVuSans-32" d="M 1228 531 
L 3431 531 
L 3431 0 
L 469 0 
L 469 531 
Q 828 903 1448 1529 
Q 2069 2156 2228 2338 
Q 2531 2678 2651 2914 
Q 2772 3150 2772 3378 
Q 2772 3750 2511 3984 
Q 2250 4219 1831 4219 
Q 1534 4219 1204 4116 
Q 875 4013 500 3803 
L 500 4441 
Q 881 4594 1212 4672 
Q 1544 4750 1819 4750 
Q 2544 4750 2975 4387 
Q 3406 4025 3406 3419 
Q 3406 3131 3298 2873 
Q 3191 2616 2906 2266 
Q 2828 2175 2409 1742 
Q 1991 1309 1228 531 
z
" transform="scale(0.015625)"/>
       </defs>
       <use xlink:href="#DejaVuSans-32"/>
       <use xlink:href="#DejaVuSans-30" x="63.623047"/>
      </g>
     </g>
    </g>
    <g id="xtick_6">
     <g id="line2d_11">
      <path d="M 329.820795 276.61983 
L 329.820795 86.98017 
" clip-path="url(#pea7bdba1c0)" style="fill: none; stroke: #b0b0b0; stroke-width: 0.8; stroke-linecap: square"/>
     </g>
     <g id="line2d_12">
      <g>
       <use xlink:href="#m9401b1e128" x="329.820795" y="276.61983" style="stroke: #000000; stroke-width: 0.8"/>
      </g>
     </g>
     <g id="text_6">
      <!-- 25 -->
      <g transform="translate(323.458295 291.218267)scale(0.1 -0.1)">
       <use xlink:href="#DejaVuSans-32"/>
       <use xlink:href="#DejaVuSans-35" x="63.623047"/>
      </g>
     </g>
    </g>
   </g>
   <g id="matplotlib.axis_2">
    <g id="ytick_1">
     <g id="line2d_13">
      <path d="M 90 269.642519 
L 343.636364 269.642519 
" clip-path="url(#pea7bdba1c0)" style="fill: none; stroke: #b0b0b0; stroke-width: 0.8; stroke-linecap: square"/>
     </g>
     <g id="line2d_14">
      <defs>
       <path id="m372b3d0a3a" d="M 0 0 
L -3.5 0 
" style="stroke: #000000; stroke-width: 0.8"/>
      </defs>
      <g>
       <use xlink:href="#m372b3d0a3a" x="90" y="269.642519" style="stroke: #000000; stroke-width: 0.8"/>
      </g>
     </g>
     <g id="text_7">
      <!-- 0 -->
      <g transform="translate(76.6375 273.441738)scale(0.1 -0.1)">
       <use xlink:href="#DejaVuSans-30"/>
      </g>
     </g>
    </g>
    <g id="ytick_2">
     <g id="line2d_15">
      <path d="M 90 226.131928 
L 343.636364 226.131928 
" clip-path="url(#pea7bdba1c0)" style="fill: none; stroke: #b0b0b0; stroke-width: 0.8; stroke-linecap: square"/>
     </g>
     <g id="line2d_16">
      <g>
       <use xlink:href="#m372b3d0a3a" x="90" y="226.131928" style="stroke: #000000; stroke-width: 0.8"/>
      </g>
     </g>
     <g id="text_8">
      <!-- 5 -->
      <g transform="translate(76.6375 229.931147)scale(0.1 -0.1)">
       <use xlink:href="#DejaVuSans-35"/>
      </g>
     </g>
    </g>
    <g id="ytick_3">
     <g id="line2d_17">
      <path d="M 90 182.621337 
L 343.636364 182.621337 
" clip-path="url(#pea7bdba1c0)" style="fill: none; stroke: #b0b0b0; stroke-width: 0.8; stroke-linecap: square"/>
     </g>
     <g id="line2d_18">
      <g>
       <use xlink:href="#m372b3d0a3a" x="90" y="182.621337" style="stroke: #000000; stroke-width: 0.8"/>
      </g>
     </g>
     <g id="text_9">
      <!-- 10 -->
      <g transform="translate(70.275 186.420556)scale(0.1 -0.1)">
       <use xlink:href="#DejaVuSans-31"/>
       <use xlink:href="#DejaVuSans-30" x="63.623047"/>
      </g>
     </g>
    </g>
    <g id="ytick_4">
     <g id="line2d_19">
      <path d="M 90 139.110746 
L 343.636364 139.110746 
" clip-path="url(#pea7bdba1c0)" style="fill: none; stroke: #b0b0b0; stroke-width: 0.8; stroke-linecap: square"/>
     </g>
     <g id="line2d_20">
      <g>
       <use xlink:href="#m372b3d0a3a" x="90" y="139.110746" style="stroke: #000000; stroke-width: 0.8"/>
      </g>
     </g>
     <g id="text_10">
      <!-- 15 -->
      <g transform="translate(70.275 142.909965)scale(0.1 -0.1)">
       <use xlink:href="#DejaVuSans-31"/>
       <use xlink:href="#DejaVuSans-35" x="63.623047"/>
      </g>
     </g>
    </g>
    <g id="ytick_5">
     <g id="line2d_21">
      <path d="M 90 95.600155 
L 343.636364 95.600155 
" clip-path="url(#pea7bdba1c0)" style="fill: none; stroke: #b0b0b0; stroke-width: 0.8; stroke-linecap: square"/>
     </g>
     <g id="line2d_22">
      <g>
       <use xlink:href="#m372b3d0a3a" x="90" y="95.600155" style="stroke: #000000; stroke-width: 0.8"/>
      </g>
     </g>
     <g id="text_11">
      <!-- 20 -->
      <g transform="translate(70.275 99.399374)scale(0.1 -0.1)">
       <use xlink:href="#DejaVuSans-32"/>
       <use xlink:href="#DejaVuSans-30" x="63.623047"/>
      </g>
     </g>
    </g>
   </g>
   <g id="line2d_23">
    <path d="M 286.310203 95.600155 
L 290.831957 98.21079 
L 295.189029 101.087871 
L 299.36574 104.221041 
L 303.347057 107.599026 
L 307.118653 111.209668 
L 310.666954 115.039973 
L 313.979188 119.076155 
L 317.043437 123.30369 
L 319.848673 127.707362 
L 322.384798 132.271322 
L 324.642686 136.979147 
L 326.614212 141.813892 
L 328.292279 146.758157 
L 329.670848 151.794149 
L 330.744959 156.903744 
L 331.510744 162.068552 
L 331.96545 167.269986 
L 332.107438 172.489326 
L 331.936198 177.707788 
L 331.452347 182.906591 
L 330.657625 188.067026 
L 329.554893 193.17052 
L 328.148119 198.198707 
L 326.442366 203.133489 
L 324.443774 207.957108 
L 322.159534 212.652203 
L 319.597868 217.201878 
L 316.767995 221.589757 
L 313.680099 225.800051 
L 310.345294 229.817605 
L 306.775581 233.627962 
L 302.983808 237.217408 
L 298.983619 240.573025 
L 294.789413 243.682737 
L 290.416284 246.535351 
L 285.879969 249.120601 
L 281.196796 251.429184 
L 276.383617 253.452791 
L 271.457757 255.184139 
L 266.436941 256.616998 
L 261.339241 257.746209 
L 256.183001 258.56771 
L 250.986779 259.078544 
L 245.769277 259.276873 
L 240.54927 259.161982 
L 235.345546 258.734286 
L 230.176832 257.995323 
L 225.06173 256.947753 
L 220.018649 255.595346 
L 215.065738 253.942969 
L 210.220824 251.99657 
L 205.501341 249.763152 
L 200.924276 247.250754 
L 196.5061 244.468418 
L 192.262715 241.426157 
L 188.209391 238.13492 
L 184.360718 234.606553 
L 180.730544 230.853752 
L 177.331936 226.890025 
L 174.177125 222.729636 
L 171.277464 218.387558 
L 168.64339 213.879419 
L 166.284381 209.221442 
L 164.208929 204.430391 
L 162.424501 199.523509 
L 160.937521 194.518456 
L 159.75334 189.433243 
L 158.876219 184.286173 
L 158.309316 179.09577 
L 158.05467 173.880712 
" clip-path="url(#pea7bdba1c0)" style="fill: none; stroke: #1f77b4; stroke-width: 1.5; stroke-linecap: square"/>
   </g>
   <g id="line2d_24">
    <path d="M 286.310203 95.600155 
L 290.831957 98.21079 
L 295.189029 101.087871 
L 299.36574 104.221041 
L 303.347057 107.599026 
L 307.118653 111.209668 
L 310.666954 115.039973 
L 313.979188 119.076155 
L 317.043437 123.30369 
L 319.848673 127.707362 
L 322.384798 132.271322 
L 317.657734 143.261441 
L 318.776951 148.361345 
L 319.588344 153.519185 
L 320.088992 158.716398 
L 320.277093 163.934279 
L 320.151971 169.154051 
L 319.714075 174.356927 
L 318.964983 179.524182 
L 317.907388 184.637221 
L 299.144472 188.624758 
L 295.641932 192.496951 
L 291.913502 196.15215 
L 287.9726 199.5772 
L 283.833411 202.759775 
L 279.51083 205.68842 
L 275.020414 208.352597 
L 270.378324 210.742715 
L 265.601265 212.850175 
L 260.706432 214.66739 
L 255.570106 215.902217 
L 250.483708 217.081296 
L 245.335761 217.953253 
L 240.144791 218.51495 
L 234.929481 218.764364 
L 229.708599 218.700599 
L 224.500936 218.323883 
L 219.325233 217.635573 
L 214.200118 216.638146 
L 209.144035 215.335191 
L 204.631178 222.382482 
L 199.508932 221.370419 
L 194.456591 220.053027 
L 189.492338 218.435047 
L 184.634038 216.522302 
L 179.899177 214.321676 
L 175.304794 211.841088 
L 170.867424 209.089466 
L 166.603038 206.076714 
L 162.526981 202.813673 
L 158.653925 199.312087 
L 141.326267 216.144262 
L 136.339857 214.595912 
L 131.455265 212.751343 
L 126.690071 210.617194 
L 122.061424 208.201144 
L 117.585981 205.511891 
L 113.279851 202.55911 
L 109.15853 199.353431 
L 105.23685 195.906389 
L 101.528926 192.23039 
L 108.269188 174.321195 
L 106.952049 169.268789 
L 105.940242 164.146492 
L 105.23741 158.972742 
L 104.846081 153.766156 
L 104.767664 148.545474 
L 105.002441 143.329484 
L 105.549567 138.136959 
L 106.407074 132.986585 
L 107.571874 127.896898 
" clip-path="url(#pea7bdba1c0)" style="fill: none; stroke: #ff7f0e; stroke-width: 1.5; stroke-linecap: square"/>
   </g>
   <g id="line2d_25">
    <path d="M 286.310203 95.600155 
L 290.917529 98.062575 
L 294.023379 103.054968 
L 296.353447 108.318242 
L 300.559082 111.18378 
L 302.385002 116.506249 
L 308.537749 118.091002 
L 307.014772 125.933205 
L 305.764464 132.874359 
L 300.680681 141.310579 
L 298.667697 146.844552 
L 304.572021 149.591537 
L 305.951209 154.391416 
L 310.237693 158.733122 
L 306.327111 164.637997 
L 304.748197 169.879955 
L 307.482405 174.695961 
L 306.471814 179.844055 
L 302.980612 184.897631 
L 301.921471 189.818367 
L 293.988692 193.972274 
L 293.395599 198.605733 
L 285.178964 201.532563 
L 277.919478 203.8103 
L 276.793245 208.02077 
L 273.06249 211.290537 
L 272.812416 216.781074 
L 271.909326 222.30975 
L 269.886641 227.229234 
L 264.241733 229.316339 
L 260.591094 232.863906 
L 249.844692 229.714116 
L 246.775113 233.179891 
L 246.248908 240.239832 
L 239.612883 239.920886 
L 231.794894 237.226506 
L 229.252684 242.22747 
L 224.106629 243.136116 
L 220.025263 246.191462 
L 214.239574 245.402939 
L 209.18196 246.021172 
L 205.98785 252.798563 
L 203.434159 263.076679 
L 198.695837 265.371392 
L 193.486337 266.15874 
L 187.461669 264.173788 
L 182.540826 265.68391 
L 177.039963 264.775434 
L 172.362915 267.297975 
L 167.273925 267.999845 
L 160.594881 257.206583 
L 155.692745 252.629036 
L 151.20937 253.506947 
L 146.572356 251.88311 
L 142.110665 249.092528 
L 138.018767 245.157957 
L 136.295722 233.737549 
L 135.427878 224.533434 
L 132.482976 221.960466 
L 130.291392 217.615251 
L 131.454537 209.22992 
L 135.671512 199.342834 
L 138.820415 192.553405 
L 140.575605 187.62295 
L 139.216213 184.130613 
L 142.070174 178.861545 
L 139.530874 174.844518 
L 143.614511 169.678963 
L 146.808484 165.011413 
L 150.239129 160.631978 
L 152.096393 156.22016 
" clip-path="url(#pea7bdba1c0)" style="fill: none; stroke: #2ca02c; stroke-width: 1.5; stroke-linecap: square"/>
   </g>
   <g id="line2d_26">
    <path d="M 286.310203 95.600155 
L 290.917529 98.062575 
L 294.023379 103.054968 
L 296.353447 108.318242 
L 300.559082 111.18378 
L 302.385002 116.506249 
L 308.537749 118.091002 
L 307.014772 125.933205 
L 305.764464 132.874359 
L 300.680681 141.310579 
L 298.667697 146.844552 
L 316.576443 142.180489 
L 317.45319 147.544235 
L 319.422098 153.251643 
L 318.075543 158.030513 
L 317.168832 163.148582 
L 318.540567 168.643479 
L 317.754402 173.800768 
L 315.091944 178.681341 
L 313.928255 183.730564 
L 296.696956 186.177005 
L 293.321345 190.192013 
L 288.758725 192.992867 
L 283.781672 195.183108 
L 280.135823 198.874585 
L 275.882688 201.858584 
L 272.928452 206.804129 
L 270.055772 211.925423 
L 266.925527 216.594247 
L 261.998933 218.645762 
L 255.830967 216.164168 
L 248.443754 215.151387 
L 244.313511 217.434772 
L 241.389721 222.361703 
L 235.646174 222.453614 
L 229.218135 220.484826 
L 225.397671 224.394644 
L 220.272572 225.150807 
L 215.667556 227.731234 
L 210.200148 227.024286 
L 203.955217 221.706921 
L 198.674073 221.384848 
L 193.230952 222.570093 
L 188.010637 223.394756 
L 182.799247 223.789498 
L 177.582757 222.921426 
L 172.364945 223.236676 
L 167.193958 222.36904 
L 161.902551 223.378112 
L 156.657142 223.462187 
L 152.2893 215.687582 
L 146.312177 221.130096 
L 141.504253 219.047765 
L 136.763032 216.852245 
L 132.21038 214.293331 
L 127.985348 211.170697 
L 125.664431 205.051406 
L 124.192158 198.742762 
L 121.178424 194.906704 
L 118.840766 190.312901 
L 119.490937 183.50489 
L 115.527687 181.579033 
L 115.615954 176.567997 
L 116.145833 171.410005 
L 115.948349 166.059552 
L 117.427758 161.02306 
L 116.555073 155.545226 
L 119.207459 150.731291 
L 121.770441 145.982654 
L 124.75267 141.454385 
L 126.755681 136.744069 
" clip-path="url(#pea7bdba1c0)" style="fill: none; stroke: #d62728; stroke-width: 1.5; stroke-linecap: square"/>
   </g>
   <g id="line2d_27">
    <path d="M 286.310203 95.600155 
L 290.744329 97.801304 
L 294.783553 99.868206 
L 296.829177 104.237263 
L 299.980144 107.538495 
L 303.879542 110.188999 
L 303.81037 113.869516 
L 306.556609 119.31555 
L 309.819008 125.012686 
L 312.312057 130.748643 
L 313.948475 135.180855 
L 313.495471 139.18791 
L 311.377218 144.727302 
L 308.806226 149.168676 
L 307.319122 154.071314 
L 306.559375 160.659316 
L 305.435121 166.800668 
L 303.952476 171.880543 
L 301.41435 176.694184 
L 297.983947 180.165471 
L 295.10122 184.570713 
L 289.708175 187.834636 
L 285.118617 192.05866 
L 281.861512 194.490192 
L 278.663543 198.622162 
L 276.348326 203.226769 
L 272.794729 208.724017 
L 271.018296 212.38303 
L 267.892233 215.765366 
L 266.599264 219.732368 
L 262.425838 222.725505 
L 257.808376 223.667656 
L 253.567192 224.997783 
L 247.413996 226.421274 
L 242.402911 227.1691 
L 237.585683 227.628875 
L 232.215061 227.932089 
L 227.040095 227.08158 
L 222.172144 227.289267 
L 217.414122 227.860588 
L 212.312705 229.995731 
L 207.019167 232.906078 
L 202.695224 237.04037 
L 197.301636 238.553448 
L 192.312689 239.130111 
L 188.945514 239.310187 
L 182.518551 239.695344 
L 176.611705 239.003416 
L 172.705103 240.540477 
L 168.529502 239.139789 
L 164.096044 236.810515 
L 159.953104 234.699947 
L 155.489691 231.700496 
L 152.266841 229.692107 
L 148.946338 226.916993 
L 145.69384 223.692302 
L 141.905381 220.48673 
L 138.769033 216.347309 
L 135.365595 211.02061 
L 131.761493 206.15846 
L 130.203428 199.813321 
L 128.821706 194.975358 
L 126.766729 190.011395 
L 125.716836 183.972798 
L 124.011151 176.406766 
L 123.998749 170.592472 
L 123.537234 163.89719 
L 123.157065 159.339378 
L 121.424484 154.742705 
L 122.303488 149.522411 
L 123.163821 143.8219 
" clip-path="url(#pea7bdba1c0)" style="fill: none; stroke: #000000; stroke-width: 1.5; stroke-linecap: square"/>
   </g>
   <g id="patch_3">
    <path d="M 90 276.61983 
L 90 86.98017 
" style="fill: none; stroke: #000000; stroke-width: 0.8; stroke-linejoin: miter; stroke-linecap: square"/>
   </g>
   <g id="patch_4">
    <path d="M 343.636364 276.61983 
L 343.636364 86.98017 
" style="fill: none; stroke: #000000; stroke-width: 0.8; stroke-linejoin: miter; stroke-linecap: square"/>
   </g>
   <g id="patch_5">
    <path d="M 90 276.61983 
L 343.636364 276.61983 
" style="fill: none; stroke: #000000; stroke-width: 0.8; stroke-linejoin: miter; stroke-linecap: square"/>
   </g>
   <g id="patch_6">
    <path d="M 90 86.98017 
L 343.636364 86.98017 
" style="fill: none; stroke: #000000; stroke-width: 0.8; stroke-linejoin: miter; stroke-linecap: square"/>
   </g>
   <g id="text_12">
    <!-- Vehicle position -->
    <g transform="translate(169.687244 80.98017)scale(0.12 -0.12)">
     <defs>
      <path id="DejaVuSans-56" d="M 1831 0 
L 50 4666 
L 709 4666 
L 2188 738 
L 3669 4666 
L 4325 4666 
L 2547 0 
L 1831 0 
z
" transform="scale(0.015625)"/>
      <path id="DejaVuSans-65" d="M 3597 1894 
L 3597 1613 
L 953 1613 
Q 991 1019 1311 708 
Q 1631 397 2203 397 
Q 2534 397 2845 478 
Q 3156 559 3463 722 
L 3463 178 
Q 3153 47 2828 -22 
Q 2503 -91 2169 -91 
Q 1331 -91 842 396 
Q 353 884 353 1716 
Q 353 2575 817 3079 
Q 1281 3584 2069 3584 
Q 2775 3584 3186 3129 
Q 3597 2675 3597 1894 
z
M 3022 2063 
Q 3016 2534 2758 2815 
Q 2500 3097 2075 3097 
Q 1594 3097 1305 2825 
Q 1016 2553 972 2059 
L 3022 2063 
z
" transform="scale(0.015625)"/>
      <path id="DejaVuSans-68" d="M 3513 2113 
L 3513 0 
L 2938 0 
L 2938 2094 
Q 2938 2591 2744 2837 
Q 2550 3084 2163 3084 
Q 1697 3084 1428 2787 
Q 1159 2491 1159 1978 
L 1159 0 
L 581 0 
L 581 4863 
L 1159 4863 
L 1159 2956 
Q 1366 3272 1645 3428 
Q 1925 3584 2291 3584 
Q 2894 3584 3203 3211 
Q 3513 2838 3513 2113 
z
" transform="scale(0.015625)"/>
      <path id="DejaVuSans-69" d="M 603 3500 
L 1178 3500 
L 1178 0 
L 603 0 
L 603 3500 
z
M 603 4863 
L 1178 4863 
L 1178 4134 
L 603 4134 
L 603 4863 
z
" transform="scale(0.015625)"/>
      <path id="DejaVuSans-63" d="M 3122 3366 
L 3122 2828 
Q 2878 2963 2633 3030 
Q 2388 3097 2138 3097 
Q 1578 3097 1268 2742 
Q 959 2388 959 1747 
Q 959 1106 1268 751 
Q 1578 397 2138 397 
Q 2388 397 2633 464 
Q 2878 531 3122 666 
L 3122 134 
Q 2881 22 2623 -34 
Q 2366 -91 2075 -91 
Q 1284 -91 818 406 
Q 353 903 353 1747 
Q 353 2603 823 3093 
Q 1294 3584 2113 3584 
Q 2378 3584 2631 3529 
Q 2884 3475 3122 3366 
z
" transform="scale(0.015625)"/>
      <path id="DejaVuSans-6c" d="M 603 4863 
L 1178 4863 
L 1178 0 
L 603 0 
L 603 4863 
z
" transform="scale(0.015625)"/>
      <path id="DejaVuSans-20" transform="scale(0.015625)"/>
      <path id="DejaVuSans-70" d="M 1159 525 
L 1159 -1331 
L 581 -1331 
L 581 3500 
L 1159 3500 
L 1159 2969 
Q 1341 3281 1617 3432 
Q 1894 3584 2278 3584 
Q 2916 3584 3314 3078 
Q 3713 2572 3713 1747 
Q 3713 922 3314 415 
Q 2916 -91 2278 -91 
Q 1894 -91 1617 61 
Q 1341 213 1159 525 
z
M 3116 1747 
Q 3116 2381 2855 2742 
Q 2594 3103 2138 3103 
Q 1681 3103 1420 2742 
Q 1159 2381 1159 1747 
Q 1159 1113 1420 752 
Q 1681 391 2138 391 
Q 2594 391 2855 752 
Q 3116 1113 3116 1747 
z
" transform="scale(0.015625)"/>
      <path id="DejaVuSans-6f" d="M 1959 3097 
Q 1497 3097 1228 2736 
Q 959 2375 959 1747 
Q 959 1119 1226 758 
Q 1494 397 1959 397 
Q 2419 397 2687 759 
Q 2956 1122 2956 1747 
Q 2956 2369 2687 2733 
Q 2419 3097 1959 3097 
z
M 1959 3584 
Q 2709 3584 3137 3096 
Q 3566 2609 3566 1747 
Q 3566 888 3137 398 
Q 2709 -91 1959 -91 
Q 1206 -91 779 398 
Q 353 888 353 1747 
Q 353 2609 779 3096 
Q 1206 3584 1959 3584 
z
" transform="scale(0.015625)"/>
      <path id="DejaVuSans-73" d="M 2834 3397 
L 2834 2853 
Q 2591 2978 2328 3040 
Q 2066 3103 1784 3103 
Q 1356 3103 1142 2972 
Q 928 2841 928 2578 
Q 928 2378 1081 2264 
Q 1234 2150 1697 2047 
L 1894 2003 
Q 2506 1872 2764 1633 
Q 3022 1394 3022 966 
Q 3022 478 2636 193 
Q 2250 -91 1575 -91 
Q 1294 -91 989 -36 
Q 684 19 347 128 
L 347 722 
Q 666 556 975 473 
Q 1284 391 1588 391 
Q 1994 391 2212 530 
Q 2431 669 2431 922 
Q 2431 1156 2273 1281 
Q 2116 1406 1581 1522 
L 1381 1569 
Q 847 1681 609 1914 
Q 372 2147 372 2553 
Q 372 3047 722 3315 
Q 1072 3584 1716 3584 
Q 2034 3584 2315 3537 
Q 2597 3491 2834 3397 
z
" transform="scale(0.015625)"/>
      <path id="DejaVuSans-74" d="M 1172 4494 
L 1172 3500 
L 2356 3500 
L 2356 3053 
L 1172 3053 
L 1172 1153 
Q 1172 725 1289 603 
Q 1406 481 1766 481 
L 2356 481 
L 2356 0 
L 1766 0 
Q 1100 0 847 248 
Q 594 497 594 1153 
L 594 3053 
L 172 3053 
L 172 3500 
L 594 3500 
L 594 4494 
L 1172 4494 
z
" transform="scale(0.015625)"/>
      <path id="DejaVuSans-6e" d="M 3513 2113 
L 3513 0 
L 2938 0 
L 2938 2094 
Q 2938 2591 2744 2837 
Q 2550 3084 2163 3084 
Q 1697 3084 1428 2787 
Q 1159 2491 1159 1978 
L 1159 0 
L 581 0 
L 581 3500 
L 1159 3500 
L 1159 2956 
Q 1366 3272 1645 3428 
Q 1925 3584 2291 3584 
Q 2894 3584 3203 3211 
Q 3513 2838 3513 2113 
z
" transform="scale(0.015625)"/>
     </defs>
     <use xlink:href="#DejaVuSans-56"/>
     <use xlink:href="#DejaVuSans-65" x="60.658203"/>
     <use xlink:href="#DejaVuSans-68" x="122.181641"/>
     <use xlink:href="#DejaVuSans-69" x="185.560547"/>
     <use xlink:href="#DejaVuSans-63" x="213.34375"/>
     <use xlink:href="#DejaVuSans-6c" x="268.324219"/>
     <use xlink:href="#DejaVuSans-65" x="296.107422"/>
     <use xlink:href="#DejaVuSans-20" x="357.630859"/>
     <use xlink:href="#DejaVuSans-70" x="389.417969"/>
     <use xlink:href="#DejaVuSans-6f" x="452.894531"/>
     <use xlink:href="#DejaVuSans-73" x="514.076172"/>
     <use xlink:href="#DejaVuSans-69" x="566.175781"/>
     <use xlink:href="#DejaVuSans-74" x="593.958984"/>
     <use xlink:href="#DejaVuSans-69" x="633.167969"/>
     <use xlink:href="#DejaVuSans-6f" x="660.951172"/>
     <use xlink:href="#DejaVuSans-6e" x="722.132812"/>
    </g>
   </g>
  </g>
  <g id="axes_2">
   <g id="patch_7">
    <path d="M 394.363636 169.2 
L 648 169.2 
L 648 43.2 
L 394.363636 43.2 
z
" style="fill: #ffffff"/>
   </g>
   <g id="matplotlib.axis_3">
    <g id="xtick_7">
     <g id="line2d_28">
      <path d="M 405.892562 169.2 
L 405.892562 43.2 
" clip-path="url(#p55eb9d1fe2)" style="fill: none; stroke: #b0b0b0; stroke-width: 0.8; stroke-linecap: square"/>
     </g>
     <g id="line2d_29">
      <g>
       <use xlink:href="#m9401b1e128" x="405.892562" y="169.2" style="stroke: #000000; stroke-width: 0.8"/>
      </g>
     </g>
     <g id="text_13">
      <!-- 0 -->
      <g transform="translate(402.711312 183.798437)scale(0.1 -0.1)">
       <use xlink:href="#DejaVuSans-30"/>
      </g>
     </g>
    </g>
    <g id="xtick_8">
     <g id="line2d_30">
      <path d="M 438.832349 169.2 
L 438.832349 43.2 
" clip-path="url(#p55eb9d1fe2)" style="fill: none; stroke: #b0b0b0; stroke-width: 0.8; stroke-linecap: square"/>
     </g>
     <g id="line2d_31">
      <g>
       <use xlink:href="#m9401b1e128" x="438.832349" y="169.2" style="stroke: #000000; stroke-width: 0.8"/>
      </g>
     </g>
     <g id="text_14">
      <!-- 10 -->
      <g transform="translate(432.469849 183.798437)scale(0.1 -0.1)">
       <use xlink:href="#DejaVuSans-31"/>
       <use xlink:href="#DejaVuSans-30" x="63.623047"/>
      </g>
     </g>
    </g>
    <g id="xtick_9">
     <g id="line2d_32">
      <path d="M 471.772137 169.2 
L 471.772137 43.2 
" clip-path="url(#p55eb9d1fe2)" style="fill: none; stroke: #b0b0b0; stroke-width: 0.8; stroke-linecap: square"/>
     </g>
     <g id="line2d_33">
      <g>
       <use xlink:href="#m9401b1e128" x="471.772137" y="169.2" style="stroke: #000000; stroke-width: 0.8"/>
      </g>
     </g>
     <g id="text_15">
      <!-- 20 -->
      <g transform="translate(465.409637 183.798437)scale(0.1 -0.1)">
       <use xlink:href="#DejaVuSans-32"/>
       <use xlink:href="#DejaVuSans-30" x="63.623047"/>
      </g>
     </g>
    </g>
    <g id="xtick_10">
     <g id="line2d_34">
      <path d="M 504.711924 169.2 
L 504.711924 43.2 
" clip-path="url(#p55eb9d1fe2)" style="fill: none; stroke: #b0b0b0; stroke-width: 0.8; stroke-linecap: square"/>
     </g>
     <g id="line2d_35">
      <g>
       <use xlink:href="#m9401b1e128" x="504.711924" y="169.2" style="stroke: #000000; stroke-width: 0.8"/>
      </g>
     </g>
     <g id="text_16">
      <!-- 30 -->
      <g transform="translate(498.349424 183.798437)scale(0.1 -0.1)">
       <defs>
        <path id="DejaVuSans-33" d="M 2597 2516 
Q 3050 2419 3304 2112 
Q 3559 1806 3559 1356 
Q 3559 666 3084 287 
Q 2609 -91 1734 -91 
Q 1441 -91 1130 -33 
Q 819 25 488 141 
L 488 750 
Q 750 597 1062 519 
Q 1375 441 1716 441 
Q 2309 441 2620 675 
Q 2931 909 2931 1356 
Q 2931 1769 2642 2001 
Q 2353 2234 1838 2234 
L 1294 2234 
L 1294 2753 
L 1863 2753 
Q 2328 2753 2575 2939 
Q 2822 3125 2822 3475 
Q 2822 3834 2567 4026 
Q 2313 4219 1838 4219 
Q 1578 4219 1281 4162 
Q 984 4106 628 3988 
L 628 4550 
Q 988 4650 1302 4700 
Q 1616 4750 1894 4750 
Q 2613 4750 3031 4423 
Q 3450 4097 3450 3541 
Q 3450 3153 3228 2886 
Q 3006 2619 2597 2516 
z
" transform="scale(0.015625)"/>
       </defs>
       <use xlink:href="#DejaVuSans-33"/>
       <use xlink:href="#DejaVuSans-30" x="63.623047"/>
      </g>
     </g>
    </g>
    <g id="xtick_11">
     <g id="line2d_36">
      <path d="M 537.651712 169.2 
L 537.651712 43.2 
" clip-path="url(#p55eb9d1fe2)" style="fill: none; stroke: #b0b0b0; stroke-width: 0.8; stroke-linecap: square"/>
     </g>
     <g id="line2d_37">
      <g>
       <use xlink:href="#m9401b1e128" x="537.651712" y="169.2" style="stroke: #000000; stroke-width: 0.8"/>
      </g>
     </g>
     <g id="text_17">
      <!-- 40 -->
      <g transform="translate(531.289212 183.798437)scale(0.1 -0.1)">
       <defs>
        <path id="DejaVuSans-34" d="M 2419 4116 
L 825 1625 
L 2419 1625 
L 2419 4116 
z
M 2253 4666 
L 3047 4666 
L 3047 1625 
L 3713 1625 
L 3713 1100 
L 3047 1100 
L 3047 0 
L 2419 0 
L 2419 1100 
L 313 1100 
L 313 1709 
L 2253 4666 
z
" transform="scale(0.015625)"/>
       </defs>
       <use xlink:href="#DejaVuSans-34"/>
       <use xlink:href="#DejaVuSans-30" x="63.623047"/>
      </g>
     </g>
    </g>
    <g id="xtick_12">
     <g id="line2d_38">
      <path d="M 570.591499 169.2 
L 570.591499 43.2 
" clip-path="url(#p55eb9d1fe2)" style="fill: none; stroke: #b0b0b0; stroke-width: 0.8; stroke-linecap: square"/>
     </g>
     <g id="line2d_39">
      <g>
       <use xlink:href="#m9401b1e128" x="570.591499" y="169.2" style="stroke: #000000; stroke-width: 0.8"/>
      </g>
     </g>
     <g id="text_18">
      <!-- 50 -->
      <g transform="translate(564.228999 183.798437)scale(0.1 -0.1)">
       <use xlink:href="#DejaVuSans-35"/>
       <use xlink:href="#DejaVuSans-30" x="63.623047"/>
      </g>
     </g>
    </g>
    <g id="xtick_13">
     <g id="line2d_40">
      <path d="M 603.531287 169.2 
L 603.531287 43.2 
" clip-path="url(#p55eb9d1fe2)" style="fill: none; stroke: #b0b0b0; stroke-width: 0.8; stroke-linecap: square"/>
     </g>
     <g id="line2d_41">
      <g>
       <use xlink:href="#m9401b1e128" x="603.531287" y="169.2" style="stroke: #000000; stroke-width: 0.8"/>
      </g>
     </g>
     <g id="text_19">
      <!-- 60 -->
      <g transform="translate(597.168787 183.798437)scale(0.1 -0.1)">
       <defs>
        <path id="DejaVuSans-36" d="M 2113 2584 
Q 1688 2584 1439 2293 
Q 1191 2003 1191 1497 
Q 1191 994 1439 701 
Q 1688 409 2113 409 
Q 2538 409 2786 701 
Q 3034 994 3034 1497 
Q 3034 2003 2786 2293 
Q 2538 2584 2113 2584 
z
M 3366 4563 
L 3366 3988 
Q 3128 4100 2886 4159 
Q 2644 4219 2406 4219 
Q 1781 4219 1451 3797 
Q 1122 3375 1075 2522 
Q 1259 2794 1537 2939 
Q 1816 3084 2150 3084 
Q 2853 3084 3261 2657 
Q 3669 2231 3669 1497 
Q 3669 778 3244 343 
Q 2819 -91 2113 -91 
Q 1303 -91 875 529 
Q 447 1150 447 2328 
Q 447 3434 972 4092 
Q 1497 4750 2381 4750 
Q 2619 4750 2861 4703 
Q 3103 4656 3366 4563 
z
" transform="scale(0.015625)"/>
       </defs>
       <use xlink:href="#DejaVuSans-36"/>
       <use xlink:href="#DejaVuSans-30" x="63.623047"/>
      </g>
     </g>
    </g>
    <g id="xtick_14">
     <g id="line2d_42">
      <path d="M 636.471074 169.2 
L 636.471074 43.2 
" clip-path="url(#p55eb9d1fe2)" style="fill: none; stroke: #b0b0b0; stroke-width: 0.8; stroke-linecap: square"/>
     </g>
     <g id="line2d_43">
      <g>
       <use xlink:href="#m9401b1e128" x="636.471074" y="169.2" style="stroke: #000000; stroke-width: 0.8"/>
      </g>
     </g>
     <g id="text_20">
      <!-- 70 -->
      <g transform="translate(630.108574 183.798437)scale(0.1 -0.1)">
       <defs>
        <path id="DejaVuSans-37" d="M 525 4666 
L 3525 4666 
L 3525 4397 
L 1831 0 
L 1172 0 
L 2766 4134 
L 525 4134 
L 525 4666 
z
" transform="scale(0.015625)"/>
       </defs>
       <use xlink:href="#DejaVuSans-37"/>
       <use xlink:href="#DejaVuSans-30" x="63.623047"/>
      </g>
     </g>
    </g>
   </g>
   <g id="matplotlib.axis_4">
    <g id="ytick_6">
     <g id="line2d_44">
      <path d="M 394.363636 136.716564 
L 648 136.716564 
" clip-path="url(#p55eb9d1fe2)" style="fill: none; stroke: #b0b0b0; stroke-width: 0.8; stroke-linecap: square"/>
     </g>
     <g id="line2d_45">
      <g>
       <use xlink:href="#m372b3d0a3a" x="394.363636" y="136.716564" style="stroke: #000000; stroke-width: 0.8"/>
      </g>
     </g>
     <g id="text_21">
      <!-- 5 -->
      <g transform="translate(381.001136 140.515783)scale(0.1 -0.1)">
       <use xlink:href="#DejaVuSans-35"/>
      </g>
     </g>
    </g>
    <g id="ytick_7">
     <g id="line2d_46">
      <path d="M 394.363636 104.095887 
L 648 104.095887 
" clip-path="url(#p55eb9d1fe2)" style="fill: none; stroke: #b0b0b0; stroke-width: 0.8; stroke-linecap: square"/>
     </g>
     <g id="line2d_47">
      <g>
       <use xlink:href="#m372b3d0a3a" x="394.363636" y="104.095887" style="stroke: #000000; stroke-width: 0.8"/>
      </g>
     </g>
     <g id="text_22">
      <!-- 10 -->
      <g transform="translate(374.638636 107.895106)scale(0.1 -0.1)">
       <use xlink:href="#DejaVuSans-31"/>
       <use xlink:href="#DejaVuSans-30" x="63.623047"/>
      </g>
     </g>
    </g>
    <g id="ytick_8">
     <g id="line2d_48">
      <path d="M 394.363636 71.475211 
L 648 71.475211 
" clip-path="url(#p55eb9d1fe2)" style="fill: none; stroke: #b0b0b0; stroke-width: 0.8; stroke-linecap: square"/>
     </g>
     <g id="line2d_49">
      <g>
       <use xlink:href="#m372b3d0a3a" x="394.363636" y="71.475211" style="stroke: #000000; stroke-width: 0.8"/>
      </g>
     </g>
     <g id="text_23">
      <!-- 15 -->
      <g transform="translate(374.638636 75.27443)scale(0.1 -0.1)">
       <use xlink:href="#DejaVuSans-31"/>
       <use xlink:href="#DejaVuSans-35" x="63.623047"/>
      </g>
     </g>
    </g>
    <g id="text_24">
     <!-- Position Covariance -->
     <g transform="translate(368.558949 155.330469)rotate(-90)scale(0.1 -0.1)">
      <defs>
       <path id="DejaVuSans-50" d="M 1259 4147 
L 1259 2394 
L 2053 2394 
Q 2494 2394 2734 2622 
Q 2975 2850 2975 3272 
Q 2975 3691 2734 3919 
Q 2494 4147 2053 4147 
L 1259 4147 
z
M 628 4666 
L 2053 4666 
Q 2838 4666 3239 4311 
Q 3641 3956 3641 3272 
Q 3641 2581 3239 2228 
Q 2838 1875 2053 1875 
L 1259 1875 
L 1259 0 
L 628 0 
L 628 4666 
z
" transform="scale(0.015625)"/>
       <path id="DejaVuSans-43" d="M 4122 4306 
L 4122 3641 
Q 3803 3938 3442 4084 
Q 3081 4231 2675 4231 
Q 1875 4231 1450 3742 
Q 1025 3253 1025 2328 
Q 1025 1406 1450 917 
Q 1875 428 2675 428 
Q 3081 428 3442 575 
Q 3803 722 4122 1019 
L 4122 359 
Q 3791 134 3420 21 
Q 3050 -91 2638 -91 
Q 1578 -91 968 557 
Q 359 1206 359 2328 
Q 359 3453 968 4101 
Q 1578 4750 2638 4750 
Q 3056 4750 3426 4639 
Q 3797 4528 4122 4306 
z
" transform="scale(0.015625)"/>
       <path id="DejaVuSans-76" d="M 191 3500 
L 800 3500 
L 1894 563 
L 2988 3500 
L 3597 3500 
L 2284 0 
L 1503 0 
L 191 3500 
z
" transform="scale(0.015625)"/>
       <path id="DejaVuSans-61" d="M 2194 1759 
Q 1497 1759 1228 1600 
Q 959 1441 959 1056 
Q 959 750 1161 570 
Q 1363 391 1709 391 
Q 2188 391 2477 730 
Q 2766 1069 2766 1631 
L 2766 1759 
L 2194 1759 
z
M 3341 1997 
L 3341 0 
L 2766 0 
L 2766 531 
Q 2569 213 2275 61 
Q 1981 -91 1556 -91 
Q 1019 -91 701 211 
Q 384 513 384 1019 
Q 384 1609 779 1909 
Q 1175 2209 1959 2209 
L 2766 2209 
L 2766 2266 
Q 2766 2663 2505 2880 
Q 2244 3097 1772 3097 
Q 1472 3097 1187 3025 
Q 903 2953 641 2809 
L 641 3341 
Q 956 3463 1253 3523 
Q 1550 3584 1831 3584 
Q 2591 3584 2966 3190 
Q 3341 2797 3341 1997 
z
" transform="scale(0.015625)"/>
       <path id="DejaVuSans-72" d="M 2631 2963 
Q 2534 3019 2420 3045 
Q 2306 3072 2169 3072 
Q 1681 3072 1420 2755 
Q 1159 2438 1159 1844 
L 1159 0 
L 581 0 
L 581 3500 
L 1159 3500 
L 1159 2956 
Q 1341 3275 1631 3429 
Q 1922 3584 2338 3584 
Q 2397 3584 2469 3576 
Q 2541 3569 2628 3553 
L 2631 2963 
z
" transform="scale(0.015625)"/>
      </defs>
      <use xlink:href="#DejaVuSans-50"/>
      <use xlink:href="#DejaVuSans-6f" x="56.677734"/>
      <use xlink:href="#DejaVuSans-73" x="117.859375"/>
      <use xlink:href="#DejaVuSans-69" x="169.958984"/>
      <use xlink:href="#DejaVuSans-74" x="197.742188"/>
      <use xlink:href="#DejaVuSans-69" x="236.951172"/>
      <use xlink:href="#DejaVuSans-6f" x="264.734375"/>
      <use xlink:href="#DejaVuSans-6e" x="325.916016"/>
      <use xlink:href="#DejaVuSans-20" x="389.294922"/>
      <use xlink:href="#DejaVuSans-43" x="421.082031"/>
      <use xlink:href="#DejaVuSans-6f" x="490.90625"/>
      <use xlink:href="#DejaVuSans-76" x="552.087891"/>
      <use xlink:href="#DejaVuSans-61" x="611.267578"/>
      <use xlink:href="#DejaVuSans-72" x="672.546875"/>
      <use xlink:href="#DejaVuSans-69" x="713.660156"/>
      <use xlink:href="#DejaVuSans-61" x="741.443359"/>
      <use xlink:href="#DejaVuSans-6e" x="802.722656"/>
      <use xlink:href="#DejaVuSans-63" x="866.101562"/>
      <use xlink:href="#DejaVuSans-65" x="921.082031"/>
     </g>
    </g>
   </g>
   <g id="line2d_50">
    <path d="M 405.892562 161.578692 
L 409.186541 161.367282 
L 412.480519 160.816189 
L 415.774498 159.958354 
L 419.068477 158.856369 
L 422.362456 157.574152 
L 425.656434 156.159615 
L 428.950413 154.642413 
L 432.244392 153.037845 
L 435.538371 151.351406 
L 438.832349 149.582508 
L 442.126328 147.727324 
L 445.420307 145.780972 
L 448.714286 143.739153 
L 452.008264 141.599304 
L 455.302243 139.361301 
L 458.596222 137.027767 
L 461.890201 134.604067 
L 465.184179 132.098085 
L 468.478158 129.519881 
L 471.772137 126.881292 
L 475.066116 124.195541 
L 478.360094 121.47687 
L 481.654073 118.740225 
L 484.948052 116.000975 
L 488.242031 113.274677 
L 491.536009 110.576872 
L 494.829988 107.922899 
L 498.123967 105.327726 
L 501.417946 102.805786 
L 504.711924 100.370813 
L 508.005903 98.035668 
L 511.299882 95.812165 
L 514.593861 93.710869 
L 517.887839 91.740875 
L 521.181818 89.909576 
L 524.475797 88.222381 
L 527.769776 86.682428 
L 531.063754 85.290245 
L 534.357733 84.043406 
L 537.651712 82.936158 
L 540.945691 81.959062 
L 544.239669 81.098668 
L 547.533648 80.337288 
L 550.827627 79.652921 
L 554.121606 79.019435 
L 557.415584 78.407105 
L 560.709563 77.783601 
L 564.003542 77.115489 
L 567.297521 76.370217 
L 570.591499 75.518469 
L 573.885478 74.536604 
L 577.179457 73.408835 
L 580.473436 72.12877 
L 583.767414 70.700045 
L 587.061393 69.13594 
L 590.355372 67.45811 
L 593.649351 65.694708 
L 596.943329 63.878226 
L 600.237308 62.043389 
L 603.531287 60.225301 
L 606.825266 58.457956 
L 610.119244 56.773132 
L 613.413223 55.199624 
L 616.707202 53.762741 
L 620.001181 52.483984 
L 623.295159 51.380857 
L 626.589138 50.466722 
L 629.883117 49.750684 
L 633.177096 49.237469 
L 636.471074 48.927273 
" clip-path="url(#p55eb9d1fe2)" style="fill: none; stroke: #1f77b4; stroke-width: 1.5; stroke-linecap: square"/>
   </g>
   <g id="line2d_51">
    <path d="M 405.892562 161.578692 
L 409.186541 161.367282 
L 412.480519 160.816189 
L 415.774498 159.958354 
L 419.068477 158.856369 
L 422.362456 157.574152 
L 425.656434 156.159615 
L 428.950413 154.642413 
L 432.244392 153.037845 
L 435.538371 151.351406 
L 438.832349 149.582508 
L 442.126328 163.472727 
L 445.420307 163.242096 
L 448.714286 162.774716 
L 452.008264 162.047974 
L 455.302243 161.074312 
L 458.596222 159.892173 
L 461.890201 158.54587 
L 465.184179 157.07404 
L 468.478158 155.50744 
L 471.772137 162.975817 
L 475.066116 162.710835 
L 478.360094 162.311304 
L 481.654073 161.771009 
L 484.948052 161.091331 
L 488.242031 160.276708 
L 491.536009 159.331339 
L 494.829988 158.258075 
L 498.123967 157.058837 
L 501.417946 155.735606 
L 504.711924 159.972282 
L 508.005903 159.544184 
L 511.299882 159.008072 
L 514.593861 158.342271 
L 517.887839 157.531617 
L 521.181818 156.570836 
L 524.475797 155.465048 
L 527.769776 154.227516 
L 531.063754 152.876312 
L 534.357733 151.431395 
L 537.651712 159.807324 
L 540.945691 159.775206 
L 544.239669 159.650359 
L 547.533648 159.412059 
L 550.827627 159.041832 
L 554.121606 158.527644 
L 557.415584 157.867733 
L 560.709563 157.071128 
L 564.003542 156.154481 
L 567.297521 155.137331 
L 570.591499 154.038058 
L 573.885478 159.642116 
L 577.179457 159.581152 
L 580.473436 159.424757 
L 583.767414 159.153283 
L 587.061393 158.751446 
L 590.355372 158.212014 
L 593.649351 157.537617 
L 596.943329 156.73922 
L 600.237308 155.832206 
L 603.531287 154.83219 
L 606.825266 159.473069 
L 610.119244 159.389281 
L 613.413223 159.214152 
L 616.707202 158.924483 
L 620.001181 158.497013 
L 623.295159 157.911935 
L 626.589138 157.157879 
L 629.883117 156.235306 
L 633.177096 155.156089 
L 636.471074 153.939989 
" clip-path="url(#p55eb9d1fe2)" style="fill: none; stroke: #ff7f0e; stroke-width: 1.5; stroke-linecap: square"/>
   </g>
   <g id="line2d_52">
    <path d="M 405.892562 161.578692 
L 409.186541 161.401122 
L 412.480519 161.045252 
L 415.774498 160.63247 
L 419.068477 160.200109 
L 422.362456 159.724023 
L 425.656434 159.248781 
L 428.950413 158.758368 
L 432.244392 158.286307 
L 435.538371 157.8269 
L 438.832349 157.412874 
L 442.126328 156.988354 
L 445.420307 156.486191 
L 448.714286 155.980965 
L 452.008264 155.472742 
L 455.302243 154.988503 
L 458.596222 154.523911 
L 461.890201 154.052746 
L 465.184179 153.599203 
L 468.478158 153.181317 
L 471.772137 152.778086 
L 475.066116 152.461748 
L 478.360094 152.136992 
L 481.654073 151.904969 
L 484.948052 151.74312 
L 488.242031 151.540636 
L 491.536009 151.344139 
L 494.829988 151.103819 
L 498.123967 150.841469 
L 501.417946 150.57561 
L 504.711924 150.345367 
L 508.005903 150.121145 
L 511.299882 149.990431 
L 514.593861 149.827681 
L 517.887839 149.611617 
L 521.181818 149.422269 
L 524.475797 149.268592 
L 527.769776 149.071689 
L 531.063754 148.872248 
L 534.357733 148.656684 
L 537.651712 148.446019 
L 540.945691 148.229075 
L 544.239669 147.986449 
L 547.533648 147.736984 
L 550.827627 147.484607 
L 554.121606 147.230991 
L 557.415584 146.982227 
L 560.709563 146.731065 
L 564.003542 146.483268 
L 567.297521 146.228845 
L 570.591499 145.973527 
L 573.885478 145.764977 
L 577.179457 145.571111 
L 580.473436 145.354246 
L 583.767414 145.135252 
L 587.061393 144.921122 
L 590.355372 144.717737 
L 593.649351 144.579355 
L 596.943329 144.481209 
L 600.237308 144.351035 
L 603.531287 144.210845 
L 606.825266 144.097541 
L 610.119244 144.023686 
L 613.413223 143.949114 
L 616.707202 143.851273 
L 620.001181 143.710952 
L 623.295159 143.567189 
L 626.589138 143.39039 
L 629.883117 143.22068 
L 633.177096 143.051087 
L 636.471074 142.881814 
" clip-path="url(#p55eb9d1fe2)" style="fill: none; stroke: #2ca02c; stroke-width: 1.5; stroke-linecap: square"/>
   </g>
   <g id="line2d_53">
    <path d="M 405.892562 161.578692 
L 409.186541 161.401122 
L 412.480519 161.045252 
L 415.774498 160.63247 
L 419.068477 160.200109 
L 422.362456 159.724023 
L 425.656434 159.248781 
L 428.950413 158.758368 
L 432.244392 158.286307 
L 435.538371 157.8269 
L 438.832349 157.412874 
L 442.126328 163.06832 
L 445.420307 162.783104 
L 448.714286 162.376073 
L 452.008264 161.885952 
L 455.302243 161.315835 
L 458.596222 160.714463 
L 461.890201 160.095471 
L 465.184179 159.478206 
L 468.478158 158.888349 
L 471.772137 162.692998 
L 475.066116 162.483361 
L 478.360094 162.196974 
L 481.654073 161.848862 
L 484.948052 161.453128 
L 488.242031 161.011045 
L 491.536009 160.538841 
L 494.829988 160.052142 
L 498.123967 159.566037 
L 501.417946 159.083159 
L 504.711924 160.151935 
L 508.005903 159.781393 
L 511.299882 159.414371 
L 514.593861 158.997118 
L 517.887839 158.540814 
L 521.181818 158.07222 
L 524.475797 157.603463 
L 527.769776 157.109239 
L 531.063754 156.611518 
L 534.357733 156.111218 
L 537.651712 159.910759 
L 540.945691 159.847542 
L 544.239669 159.715841 
L 547.533648 159.517628 
L 550.827627 159.252255 
L 554.121606 158.926686 
L 557.415584 158.553225 
L 560.709563 158.140451 
L 564.003542 157.703078 
L 567.297521 157.243121 
L 570.591499 156.772249 
L 573.885478 159.62931 
L 577.179457 159.565892 
L 580.473436 159.436768 
L 583.767414 159.243829 
L 587.061393 158.99472 
L 590.355372 158.70177 
L 593.649351 158.399698 
L 596.943329 158.097936 
L 600.237308 157.761969 
L 603.531287 157.406341 
L 606.825266 159.403697 
L 610.119244 159.299842 
L 613.413223 159.130158 
L 616.707202 158.899225 
L 620.001181 158.612807 
L 623.295159 158.279698 
L 626.589138 157.904871 
L 629.883117 157.508416 
L 633.177096 157.104179 
L 636.471074 156.704167 
" clip-path="url(#p55eb9d1fe2)" style="fill: none; stroke: #d62728; stroke-width: 1.5; stroke-linecap: square"/>
   </g>
   <g id="patch_8">
    <path d="M 394.363636 169.2 
L 394.363636 43.2 
" style="fill: none; stroke: #000000; stroke-width: 0.8; stroke-linejoin: miter; stroke-linecap: square"/>
   </g>
   <g id="patch_9">
    <path d="M 648 169.2 
L 648 43.2 
" style="fill: none; stroke: #000000; stroke-width: 0.8; stroke-linejoin: miter; stroke-linecap: square"/>
   </g>
   <g id="patch_10">
    <path d="M 394.363636 169.2 
L 648 169.2 
" style="fill: none; stroke: #000000; stroke-width: 0.8; stroke-linejoin: miter; stroke-linecap: square"/>
   </g>
   <g id="patch_11">
    <path d="M 394.363636 43.2 
L 648 43.2 
" style="fill: none; stroke: #000000; stroke-width: 0.8; stroke-linejoin: miter; stroke-linecap: square"/>
   </g>
  </g>
  <g id="axes_3">
   <g id="patch_12">
    <path d="M 394.363636 320.4 
L 648 320.4 
L 648 194.4 
L 394.363636 194.4 
z
" style="fill: #ffffff"/>
   </g>
   <g id="matplotlib.axis_5">
    <g id="xtick_15">
     <g id="line2d_54">
      <path d="M 405.892562 320.4 
L 405.892562 194.4 
" clip-path="url(#p3ff737b17c)" style="fill: none; stroke: #b0b0b0; stroke-width: 0.8; stroke-linecap: square"/>
     </g>
     <g id="line2d_55">
      <g>
       <use xlink:href="#m9401b1e128" x="405.892562" y="320.4" style="stroke: #000000; stroke-width: 0.8"/>
      </g>
     </g>
     <g id="text_25">
      <!-- 0 -->
      <g transform="translate(402.711312 334.998438)scale(0.1 -0.1)">
       <use xlink:href="#DejaVuSans-30"/>
      </g>
     </g>
    </g>
    <g id="xtick_16">
     <g id="line2d_56">
      <path d="M 438.832349 320.4 
L 438.832349 194.4 
" clip-path="url(#p3ff737b17c)" style="fill: none; stroke: #b0b0b0; stroke-width: 0.8; stroke-linecap: square"/>
     </g>
     <g id="line2d_57">
      <g>
       <use xlink:href="#m9401b1e128" x="438.832349" y="320.4" style="stroke: #000000; stroke-width: 0.8"/>
      </g>
     </g>
     <g id="text_26">
      <!-- 10 -->
      <g transform="translate(432.469849 334.998438)scale(0.1 -0.1)">
       <use xlink:href="#DejaVuSans-31"/>
       <use xlink:href="#DejaVuSans-30" x="63.623047"/>
      </g>
     </g>
    </g>
    <g id="xtick_17">
     <g id="line2d_58">
      <path d="M 471.772137 320.4 
L 471.772137 194.4 
" clip-path="url(#p3ff737b17c)" style="fill: none; stroke: #b0b0b0; stroke-width: 0.8; stroke-linecap: square"/>
     </g>
     <g id="line2d_59">
      <g>
       <use xlink:href="#m9401b1e128" x="471.772137" y="320.4" style="stroke: #000000; stroke-width: 0.8"/>
      </g>
     </g>
     <g id="text_27">
      <!-- 20 -->
      <g transform="translate(465.409637 334.998438)scale(0.1 -0.1)">
       <use xlink:href="#DejaVuSans-32"/>
       <use xlink:href="#DejaVuSans-30" x="63.623047"/>
      </g>
     </g>
    </g>
    <g id="xtick_18">
     <g id="line2d_60">
      <path d="M 504.711924 320.4 
L 504.711924 194.4 
" clip-path="url(#p3ff737b17c)" style="fill: none; stroke: #b0b0b0; stroke-width: 0.8; stroke-linecap: square"/>
     </g>
     <g id="line2d_61">
      <g>
       <use xlink:href="#m9401b1e128" x="504.711924" y="320.4" style="stroke: #000000; stroke-width: 0.8"/>
      </g>
     </g>
     <g id="text_28">
      <!-- 30 -->
      <g transform="translate(498.349424 334.998438)scale(0.1 -0.1)">
       <use xlink:href="#DejaVuSans-33"/>
       <use xlink:href="#DejaVuSans-30" x="63.623047"/>
      </g>
     </g>
    </g>
    <g id="xtick_19">
     <g id="line2d_62">
      <path d="M 537.651712 320.4 
L 537.651712 194.4 
" clip-path="url(#p3ff737b17c)" style="fill: none; stroke: #b0b0b0; stroke-width: 0.8; stroke-linecap: square"/>
     </g>
     <g id="line2d_63">
      <g>
       <use xlink:href="#m9401b1e128" x="537.651712" y="320.4" style="stroke: #000000; stroke-width: 0.8"/>
      </g>
     </g>
     <g id="text_29">
      <!-- 40 -->
      <g transform="translate(531.289212 334.998438)scale(0.1 -0.1)">
       <use xlink:href="#DejaVuSans-34"/>
       <use xlink:href="#DejaVuSans-30" x="63.623047"/>
      </g>
     </g>
    </g>
    <g id="xtick_20">
     <g id="line2d_64">
      <path d="M 570.591499 320.4 
L 570.591499 194.4 
" clip-path="url(#p3ff737b17c)" style="fill: none; stroke: #b0b0b0; stroke-width: 0.8; stroke-linecap: square"/>
     </g>
     <g id="line2d_65">
      <g>
       <use xlink:href="#m9401b1e128" x="570.591499" y="320.4" style="stroke: #000000; stroke-width: 0.8"/>
      </g>
     </g>
     <g id="text_30">
      <!-- 50 -->
      <g transform="translate(564.228999 334.998438)scale(0.1 -0.1)">
       <use xlink:href="#DejaVuSans-35"/>
       <use xlink:href="#DejaVuSans-30" x="63.623047"/>
      </g>
     </g>
    </g>
    <g id="xtick_21">
     <g id="line2d_66">
      <path d="M 603.531287 320.4 
L 603.531287 194.4 
" clip-path="url(#p3ff737b17c)" style="fill: none; stroke: #b0b0b0; stroke-width: 0.8; stroke-linecap: square"/>
     </g>
     <g id="line2d_67">
      <g>
       <use xlink:href="#m9401b1e128" x="603.531287" y="320.4" style="stroke: #000000; stroke-width: 0.8"/>
      </g>
     </g>
     <g id="text_31">
      <!-- 60 -->
      <g transform="translate(597.168787 334.998438)scale(0.1 -0.1)">
       <use xlink:href="#DejaVuSans-36"/>
       <use xlink:href="#DejaVuSans-30" x="63.623047"/>
      </g>
     </g>
    </g>
    <g id="xtick_22">
     <g id="line2d_68">
      <path d="M 636.471074 320.4 
L 636.471074 194.4 
" clip-path="url(#p3ff737b17c)" style="fill: none; stroke: #b0b0b0; stroke-width: 0.8; stroke-linecap: square"/>
     </g>
     <g id="line2d_69">
      <g>
       <use xlink:href="#m9401b1e128" x="636.471074" y="320.4" style="stroke: #000000; stroke-width: 0.8"/>
      </g>
     </g>
     <g id="text_32">
      <!-- 70 -->
      <g transform="translate(630.108574 334.998438)scale(0.1 -0.1)">
       <use xlink:href="#DejaVuSans-37"/>
       <use xlink:href="#DejaVuSans-30" x="63.623047"/>
      </g>
     </g>
    </g>
   </g>
   <g id="matplotlib.axis_6">
    <g id="ytick_9">
     <g id="line2d_70">
      <path d="M 394.363636 298.463861 
L 648 298.463861 
" clip-path="url(#p3ff737b17c)" style="fill: none; stroke: #b0b0b0; stroke-width: 0.8; stroke-linecap: square"/>
     </g>
     <g id="line2d_71">
      <g>
       <use xlink:href="#m372b3d0a3a" x="394.363636" y="298.463861" style="stroke: #000000; stroke-width: 0.8"/>
      </g>
     </g>
     <g id="text_33">
      <!-- 0.4 -->
      <g transform="translate(371.460511 302.26308)scale(0.1 -0.1)">
       <defs>
        <path id="DejaVuSans-2e" d="M 684 794 
L 1344 794 
L 1344 0 
L 684 0 
L 684 794 
z
" transform="scale(0.015625)"/>
       </defs>
       <use xlink:href="#DejaVuSans-30"/>
       <use xlink:href="#DejaVuSans-2e" x="63.623047"/>
       <use xlink:href="#DejaVuSans-34" x="95.410156"/>
      </g>
     </g>
    </g>
    <g id="ytick_10">
     <g id="line2d_72">
      <path d="M 394.363636 276.228926 
L 648 276.228926 
" clip-path="url(#p3ff737b17c)" style="fill: none; stroke: #b0b0b0; stroke-width: 0.8; stroke-linecap: square"/>
     </g>
     <g id="line2d_73">
      <g>
       <use xlink:href="#m372b3d0a3a" x="394.363636" y="276.228926" style="stroke: #000000; stroke-width: 0.8"/>
      </g>
     </g>
     <g id="text_34">
      <!-- 0.6 -->
      <g transform="translate(371.460511 280.028144)scale(0.1 -0.1)">
       <use xlink:href="#DejaVuSans-30"/>
       <use xlink:href="#DejaVuSans-2e" x="63.623047"/>
       <use xlink:href="#DejaVuSans-36" x="95.410156"/>
      </g>
     </g>
    </g>
    <g id="ytick_11">
     <g id="line2d_74">
      <path d="M 394.363636 253.99399 
L 648 253.99399 
" clip-path="url(#p3ff737b17c)" style="fill: none; stroke: #b0b0b0; stroke-width: 0.8; stroke-linecap: square"/>
     </g>
     <g id="line2d_75">
      <g>
       <use xlink:href="#m372b3d0a3a" x="394.363636" y="253.99399" style="stroke: #000000; stroke-width: 0.8"/>
      </g>
     </g>
     <g id="text_35">
      <!-- 0.8 -->
      <g transform="translate(371.460511 257.793209)scale(0.1 -0.1)">
       <defs>
        <path id="DejaVuSans-38" d="M 2034 2216 
Q 1584 2216 1326 1975 
Q 1069 1734 1069 1313 
Q 1069 891 1326 650 
Q 1584 409 2034 409 
Q 2484 409 2743 651 
Q 3003 894 3003 1313 
Q 3003 1734 2745 1975 
Q 2488 2216 2034 2216 
z
M 1403 2484 
Q 997 2584 770 2862 
Q 544 3141 544 3541 
Q 544 4100 942 4425 
Q 1341 4750 2034 4750 
Q 2731 4750 3128 4425 
Q 3525 4100 3525 3541 
Q 3525 3141 3298 2862 
Q 3072 2584 2669 2484 
Q 3125 2378 3379 2068 
Q 3634 1759 3634 1313 
Q 3634 634 3220 271 
Q 2806 -91 2034 -91 
Q 1263 -91 848 271 
Q 434 634 434 1313 
Q 434 1759 690 2068 
Q 947 2378 1403 2484 
z
M 1172 3481 
Q 1172 3119 1398 2916 
Q 1625 2713 2034 2713 
Q 2441 2713 2670 2916 
Q 2900 3119 2900 3481 
Q 2900 3844 2670 4047 
Q 2441 4250 2034 4250 
Q 1625 4250 1398 4047 
Q 1172 3844 1172 3481 
z
" transform="scale(0.015625)"/>
       </defs>
       <use xlink:href="#DejaVuSans-30"/>
       <use xlink:href="#DejaVuSans-2e" x="63.623047"/>
       <use xlink:href="#DejaVuSans-38" x="95.410156"/>
      </g>
     </g>
    </g>
    <g id="ytick_12">
     <g id="line2d_76">
      <path d="M 394.363636 231.759054 
L 648 231.759054 
" clip-path="url(#p3ff737b17c)" style="fill: none; stroke: #b0b0b0; stroke-width: 0.8; stroke-linecap: square"/>
     </g>
     <g id="line2d_77">
      <g>
       <use xlink:href="#m372b3d0a3a" x="394.363636" y="231.759054" style="stroke: #000000; stroke-width: 0.8"/>
      </g>
     </g>
     <g id="text_36">
      <!-- 1.0 -->
      <g transform="translate(371.460511 235.558273)scale(0.1 -0.1)">
       <use xlink:href="#DejaVuSans-31"/>
       <use xlink:href="#DejaVuSans-2e" x="63.623047"/>
       <use xlink:href="#DejaVuSans-30" x="95.410156"/>
      </g>
     </g>
    </g>
    <g id="ytick_13">
     <g id="line2d_78">
      <path d="M 394.363636 209.524119 
L 648 209.524119 
" clip-path="url(#p3ff737b17c)" style="fill: none; stroke: #b0b0b0; stroke-width: 0.8; stroke-linecap: square"/>
     </g>
     <g id="line2d_79">
      <g>
       <use xlink:href="#m372b3d0a3a" x="394.363636" y="209.524119" style="stroke: #000000; stroke-width: 0.8"/>
      </g>
     </g>
     <g id="text_37">
      <!-- 1.2 -->
      <g transform="translate(371.460511 213.323337)scale(0.1 -0.1)">
       <use xlink:href="#DejaVuSans-31"/>
       <use xlink:href="#DejaVuSans-2e" x="63.623047"/>
       <use xlink:href="#DejaVuSans-32" x="95.410156"/>
      </g>
     </g>
    </g>
    <g id="text_38">
     <!-- Heading Covariance -->
     <g transform="translate(365.380824 307.873438)rotate(-90)scale(0.1 -0.1)">
      <defs>
       <path id="DejaVuSans-48" d="M 628 4666 
L 1259 4666 
L 1259 2753 
L 3553 2753 
L 3553 4666 
L 4184 4666 
L 4184 0 
L 3553 0 
L 3553 2222 
L 1259 2222 
L 1259 0 
L 628 0 
L 628 4666 
z
" transform="scale(0.015625)"/>
       <path id="DejaVuSans-64" d="M 2906 2969 
L 2906 4863 
L 3481 4863 
L 3481 0 
L 2906 0 
L 2906 525 
Q 2725 213 2448 61 
Q 2172 -91 1784 -91 
Q 1150 -91 751 415 
Q 353 922 353 1747 
Q 353 2572 751 3078 
Q 1150 3584 1784 3584 
Q 2172 3584 2448 3432 
Q 2725 3281 2906 2969 
z
M 947 1747 
Q 947 1113 1208 752 
Q 1469 391 1925 391 
Q 2381 391 2643 752 
Q 2906 1113 2906 1747 
Q 2906 2381 2643 2742 
Q 2381 3103 1925 3103 
Q 1469 3103 1208 2742 
Q 947 2381 947 1747 
z
" transform="scale(0.015625)"/>
       <path id="DejaVuSans-67" d="M 2906 1791 
Q 2906 2416 2648 2759 
Q 2391 3103 1925 3103 
Q 1463 3103 1205 2759 
Q 947 2416 947 1791 
Q 947 1169 1205 825 
Q 1463 481 1925 481 
Q 2391 481 2648 825 
Q 2906 1169 2906 1791 
z
M 3481 434 
Q 3481 -459 3084 -895 
Q 2688 -1331 1869 -1331 
Q 1566 -1331 1297 -1286 
Q 1028 -1241 775 -1147 
L 775 -588 
Q 1028 -725 1275 -790 
Q 1522 -856 1778 -856 
Q 2344 -856 2625 -561 
Q 2906 -266 2906 331 
L 2906 616 
Q 2728 306 2450 153 
Q 2172 0 1784 0 
Q 1141 0 747 490 
Q 353 981 353 1791 
Q 353 2603 747 3093 
Q 1141 3584 1784 3584 
Q 2172 3584 2450 3431 
Q 2728 3278 2906 2969 
L 2906 3500 
L 3481 3500 
L 3481 434 
z
" transform="scale(0.015625)"/>
      </defs>
      <use xlink:href="#DejaVuSans-48"/>
      <use xlink:href="#DejaVuSans-65" x="75.195312"/>
      <use xlink:href="#DejaVuSans-61" x="136.71875"/>
      <use xlink:href="#DejaVuSans-64" x="197.998047"/>
      <use xlink:href="#DejaVuSans-69" x="261.474609"/>
      <use xlink:href="#DejaVuSans-6e" x="289.257812"/>
      <use xlink:href="#DejaVuSans-67" x="352.636719"/>
      <use xlink:href="#DejaVuSans-20" x="416.113281"/>
      <use xlink:href="#DejaVuSans-43" x="447.900391"/>
      <use xlink:href="#DejaVuSans-6f" x="517.724609"/>
      <use xlink:href="#DejaVuSans-76" x="578.90625"/>
      <use xlink:href="#DejaVuSans-61" x="638.085938"/>
      <use xlink:href="#DejaVuSans-72" x="699.365234"/>
      <use xlink:href="#DejaVuSans-69" x="740.478516"/>
      <use xlink:href="#DejaVuSans-61" x="768.261719"/>
      <use xlink:href="#DejaVuSans-6e" x="829.541016"/>
      <use xlink:href="#DejaVuSans-63" x="892.919922"/>
      <use xlink:href="#DejaVuSans-65" x="947.900391"/>
     </g>
    </g>
   </g>
   <g id="line2d_80">
    <path d="M 405.892562 287.346393 
L 409.186541 285.165675 
L 412.480519 283.064336 
L 415.774498 281.034291 
L 419.068477 279.068742 
L 422.362456 277.161906 
L 425.656434 275.308816 
L 428.950413 273.505168 
L 432.244392 271.747205 
L 435.538371 270.031621 
L 438.832349 268.355491 
L 442.126328 266.716213 
L 445.420307 265.111458 
L 448.714286 263.539132 
L 452.008264 261.997345 
L 455.302243 260.484385 
L 458.596222 258.998691 
L 461.890201 257.538842 
L 465.184179 256.103533 
L 468.478158 254.691567 
L 471.772137 253.301841 
L 475.066116 251.933337 
L 478.360094 250.585109 
L 481.654073 249.256284 
L 484.948052 247.946046 
L 488.242031 246.653637 
L 491.536009 245.378348 
L 494.829988 244.119517 
L 498.123967 242.876522 
L 501.417946 241.64878 
L 504.711924 240.435744 
L 508.005903 239.236896 
L 511.299882 238.051751 
L 514.593861 236.879849 
L 517.887839 235.720756 
L 521.181818 234.57406 
L 524.475797 233.439373 
L 527.769776 232.316324 
L 531.063754 231.204564 
L 534.357733 230.103757 
L 537.651712 229.013587 
L 540.945691 227.933751 
L 544.239669 226.863961 
L 547.533648 225.803941 
L 550.827627 224.753429 
L 554.121606 223.712172 
L 557.415584 222.679932 
L 560.709563 221.656477 
L 564.003542 220.641587 
L 567.297521 219.63505 
L 570.591499 218.636664 
L 573.885478 217.646233 
L 577.179457 216.663571 
L 580.473436 215.688497 
L 583.767414 214.720839 
L 587.061393 213.760429 
L 590.355372 212.807108 
L 593.649351 211.86072 
L 596.943329 210.921117 
L 600.237308 209.988154 
L 603.531287 209.061692 
L 606.825266 208.141599 
L 610.119244 207.227743 
L 613.413223 206.320001 
L 616.707202 205.41825 
L 620.001181 204.522374 
L 623.295159 203.63226 
L 626.589138 202.747797 
L 629.883117 201.86888 
L 633.177096 200.995405 
L 636.471074 200.127273 
" clip-path="url(#p3ff737b17c)" style="fill: none; stroke: #1f77b4; stroke-width: 1.5; stroke-linecap: square"/>
   </g>
   <g id="line2d_81">
    <path d="M 405.892562 287.346393 
L 409.186541 285.165675 
L 412.480519 283.064336 
L 415.774498 281.034291 
L 419.068477 279.068742 
L 422.362456 277.161906 
L 425.656434 275.308816 
L 428.950413 273.505168 
L 432.244392 271.747205 
L 435.538371 270.031621 
L 438.832349 268.355491 
L 442.126328 305.970066 
L 445.420307 302.765227 
L 448.714286 299.797843 
L 452.008264 297.021848 
L 455.302243 294.404387 
L 458.596222 291.921052 
L 461.890201 289.553121 
L 465.184179 287.285858 
L 468.478158 285.107423 
L 471.772137 310.914149 
L 475.066116 307.262317 
L 478.360094 303.951094 
L 481.654073 300.89991 
L 484.948052 298.055693 
L 488.242031 295.381292 
L 491.536009 292.849495 
L 494.829988 290.439666 
L 498.123967 288.135711 
L 501.417946 285.924792 
L 504.711924 307.969467 
L 508.005903 304.597118 
L 511.299882 301.498335 
L 514.593861 298.615696 
L 517.887839 295.909435 
L 521.181818 293.350663 
L 524.475797 290.917611 
L 527.769776 288.593387 
L 531.063754 286.364578 
L 534.357733 284.220314 
L 537.651712 313.609323 
L 540.945691 309.660362 
L 544.239669 306.132736 
L 547.533648 302.914868 
L 550.827627 299.937154 
L 554.121606 297.152711 
L 557.415584 294.528174 
L 560.709563 292.038799 
L 564.003542 289.665633 
L 567.297521 287.393777 
L 570.591499 285.211269 
L 573.885478 312.4163 
L 577.179457 308.604301 
L 580.473436 305.175209 
L 583.767414 302.032605 
L 587.061393 299.114805 
L 590.355372 296.379521 
L 593.649351 293.796264 
L 596.943329 291.342193 
L 600.237308 288.99967 
L 603.531287 286.754739 
L 606.825266 313.181925 
L 610.119244 309.283083 
L 613.413223 305.791271 
L 616.707202 302.600637 
L 620.001181 299.644533 
L 623.295159 296.877778 
L 626.589138 294.268066 
L 629.883117 291.79135 
L 633.177096 289.429158 
L 636.471074 287.166935 
" clip-path="url(#p3ff737b17c)" style="fill: none; stroke: #ff7f0e; stroke-width: 1.5; stroke-linecap: square"/>
   </g>
   <g id="line2d_82">
    <path d="M 405.892562 287.346393 
L 409.186541 291.672871 
L 412.480519 294.639145 
L 415.774498 296.736836 
L 419.068477 298.249774 
L 422.362456 299.355246 
L 425.656434 300.170162 
L 428.950413 300.774592 
L 432.244392 301.224855 
L 435.538371 301.561322 
L 438.832349 301.813321 
L 442.126328 302.00237 
L 445.420307 302.144368 
L 448.714286 302.251121 
L 452.008264 302.331432 
L 455.302243 302.39188 
L 458.596222 302.437395 
L 461.890201 302.471675 
L 465.184179 302.4975 
L 468.478158 302.516958 
L 471.772137 302.53162 
L 475.066116 302.54267 
L 478.360094 302.550997 
L 481.654073 302.557274 
L 484.948052 302.562004 
L 488.242031 302.56557 
L 491.536009 302.568258 
L 494.829988 302.570284 
L 498.123967 302.571811 
L 501.417946 302.572962 
L 504.711924 302.57383 
L 508.005903 302.574484 
L 511.299882 302.574977 
L 514.593861 302.575349 
L 517.887839 302.575629 
L 521.181818 302.57584 
L 524.475797 302.575999 
L 527.769776 302.576119 
L 531.063754 302.57621 
L 534.357733 302.576278 
L 537.651712 302.57633 
L 540.945691 302.576368 
L 544.239669 302.576398 
L 547.533648 302.57642 
L 550.827627 302.576436 
L 554.121606 302.576449 
L 557.415584 302.576458 
L 560.709563 302.576465 
L 564.003542 302.576471 
L 567.297521 302.576475 
L 570.591499 302.576478 
L 573.885478 302.57648 
L 577.179457 302.576482 
L 580.473436 302.576483 
L 583.767414 302.576484 
L 587.061393 302.576485 
L 590.355372 302.576485 
L 593.649351 302.576486 
L 596.943329 302.576486 
L 600.237308 302.576486 
L 603.531287 302.576486 
L 606.825266 302.576487 
L 610.119244 302.576487 
L 613.413223 302.576487 
L 616.707202 302.576487 
L 620.001181 302.576487 
L 623.295159 302.576487 
L 626.589138 302.576487 
L 629.883117 302.576487 
L 633.177096 302.576487 
L 636.471074 302.576487 
" clip-path="url(#p3ff737b17c)" style="fill: none; stroke: #2ca02c; stroke-width: 1.5; stroke-linecap: square"/>
   </g>
   <g id="line2d_83">
    <path d="M 405.892562 287.346393 
L 409.186541 291.672871 
L 412.480519 294.639145 
L 415.774498 296.736836 
L 419.068477 298.249774 
L 422.362456 299.355246 
L 425.656434 300.170162 
L 428.950413 300.774592 
L 432.244392 301.224855 
L 435.538371 301.561322 
L 438.832349 301.813321 
L 442.126328 308.465064 
L 445.420307 307.073536 
L 448.714286 306.001904 
L 452.008264 305.179861 
L 455.302243 304.551503 
L 458.596222 304.072629 
L 461.890201 303.708568 
L 465.184179 303.432332 
L 468.478158 303.223054 
L 471.772137 312.868985 
L 475.066116 310.483518 
L 478.360094 308.634265 
L 481.654073 307.204118 
L 484.948052 306.102277 
L 488.242031 305.256723 
L 491.536009 304.610167 
L 494.829988 304.117282 
L 498.123967 303.742481 
L 501.417946 303.458044 
L 504.711924 307.760849 
L 508.005903 306.530675 
L 511.299882 305.585091 
L 514.593861 304.860999 
L 517.887839 304.308335 
L 521.181818 303.887663 
L 524.475797 303.568163 
L 527.769776 303.325926 
L 531.063754 303.142516 
L 534.357733 303.003793 
L 537.651712 314.606475 
L 540.945691 311.829561 
L 544.239669 309.677524 
L 547.533648 308.010343 
L 550.827627 306.722885 
L 554.121606 305.732583 
L 557.415584 304.973772 
L 560.709563 304.394299 
L 564.003542 303.953029 
L 567.297521 303.617768 
L 570.591499 303.36351 
L 573.885478 314.672727 
L 577.179457 311.880819 
L 580.473436 309.717269 
L 583.767414 308.041091 
L 587.061393 306.746582 
L 590.355372 305.750775 
L 593.649351 304.987685 
L 596.943329 304.404908 
L 600.237308 303.961097 
L 603.531287 303.623892 
L 606.825266 314.464968 
L 610.119244 311.720059 
L 613.413223 309.592617 
L 616.707202 307.944665 
L 620.001181 306.672273 
L 623.295159 305.693737 
L 626.589138 304.944063 
L 629.883117 304.371649 
L 633.177096 303.935804 
L 636.471074 303.604694 
" clip-path="url(#p3ff737b17c)" style="fill: none; stroke: #d62728; stroke-width: 1.5; stroke-linecap: square"/>
   </g>
   <g id="patch_13">
    <path d="M 394.363636 320.4 
L 394.363636 194.4 
" style="fill: none; stroke: #000000; stroke-width: 0.8; stroke-linejoin: miter; stroke-linecap: square"/>
   </g>
   <g id="patch_14">
    <path d="M 648 320.4 
L 648 194.4 
" style="fill: none; stroke: #000000; stroke-width: 0.8; stroke-linejoin: miter; stroke-linecap: square"/>
   </g>
   <g id="patch_15">
    <path d="M 394.363636 320.4 
L 648 320.4 
" style="fill: none; stroke: #000000; stroke-width: 0.8; stroke-linejoin: miter; stroke-linecap: square"/>
   </g>
   <g id="patch_16">
    <path d="M 394.363636 194.4 
L 648 194.4 
" style="fill: none; stroke: #000000; stroke-width: 0.8; stroke-linejoin: miter; stroke-linecap: square"/>
   </g>
  </g>
  <g id="legend_1">
   <g id="patch_17">
    <path d="M 30.520313 332.978125 
L 372.679688 332.978125 
Q 374.679688 332.978125 374.679688 330.978125 
L 374.679688 302.621875 
Q 374.679688 300.621875 372.679688 300.621875 
L 30.520313 300.621875 
Q 28.520313 300.621875 28.520313 302.621875 
L 28.520313 330.978125 
Q 28.520313 332.978125 30.520313 332.978125 
z
" style="fill: #ffffff; opacity: 0.8; stroke: #cccccc; stroke-linejoin: miter"/>
   </g>
   <g id="line2d_84">
    <path d="M 32.520313 308.720312 
L 42.520313 308.720312 
L 52.520313 308.720312 
" style="fill: none; stroke: #1f77b4; stroke-width: 1.5; stroke-linecap: square"/>
   </g>
   <g id="text_39">
    <!-- No Sensor -->
    <g transform="translate(60.520313 312.220312)scale(0.1 -0.1)">
     <defs>
      <path id="DejaVuSans-4e" d="M 628 4666 
L 1478 4666 
L 3547 763 
L 3547 4666 
L 4159 4666 
L 4159 0 
L 3309 0 
L 1241 3903 
L 1241 0 
L 628 0 
L 628 4666 
z
" transform="scale(0.015625)"/>
      <path id="DejaVuSans-53" d="M 3425 4513 
L 3425 3897 
Q 3066 4069 2747 4153 
Q 2428 4238 2131 4238 
Q 1616 4238 1336 4038 
Q 1056 3838 1056 3469 
Q 1056 3159 1242 3001 
Q 1428 2844 1947 2747 
L 2328 2669 
Q 3034 2534 3370 2195 
Q 3706 1856 3706 1288 
Q 3706 609 3251 259 
Q 2797 -91 1919 -91 
Q 1588 -91 1214 -16 
Q 841 59 441 206 
L 441 856 
Q 825 641 1194 531 
Q 1563 422 1919 422 
Q 2459 422 2753 634 
Q 3047 847 3047 1241 
Q 3047 1584 2836 1778 
Q 2625 1972 2144 2069 
L 1759 2144 
Q 1053 2284 737 2584 
Q 422 2884 422 3419 
Q 422 4038 858 4394 
Q 1294 4750 2059 4750 
Q 2388 4750 2728 4690 
Q 3069 4631 3425 4513 
z
" transform="scale(0.015625)"/>
     </defs>
     <use xlink:href="#DejaVuSans-4e"/>
     <use xlink:href="#DejaVuSans-6f" x="74.804688"/>
     <use xlink:href="#DejaVuSans-20" x="135.986328"/>
     <use xlink:href="#DejaVuSans-53" x="167.773438"/>
     <use xlink:href="#DejaVuSans-65" x="231.25"/>
     <use xlink:href="#DejaVuSans-6e" x="292.773438"/>
     <use xlink:href="#DejaVuSans-73" x="356.152344"/>
     <use xlink:href="#DejaVuSans-6f" x="408.251953"/>
     <use xlink:href="#DejaVuSans-72" x="469.433594"/>
    </g>
   </g>
   <g id="line2d_85">
    <path d="M 32.520313 323.398438 
L 42.520313 323.398438 
L 52.520313 323.398438 
" style="fill: none; stroke: #ff7f0e; stroke-width: 1.5; stroke-linecap: square"/>
   </g>
   <g id="text_40">
    <!-- GPS Only -->
    <g transform="translate(60.520313 326.898438)scale(0.1 -0.1)">
     <defs>
      <path id="DejaVuSans-47" d="M 3809 666 
L 3809 1919 
L 2778 1919 
L 2778 2438 
L 4434 2438 
L 4434 434 
Q 4069 175 3628 42 
Q 3188 -91 2688 -91 
Q 1594 -91 976 548 
Q 359 1188 359 2328 
Q 359 3472 976 4111 
Q 1594 4750 2688 4750 
Q 3144 4750 3555 4637 
Q 3966 4525 4313 4306 
L 4313 3634 
Q 3963 3931 3569 4081 
Q 3175 4231 2741 4231 
Q 1884 4231 1454 3753 
Q 1025 3275 1025 2328 
Q 1025 1384 1454 906 
Q 1884 428 2741 428 
Q 3075 428 3337 486 
Q 3600 544 3809 666 
z
" transform="scale(0.015625)"/>
      <path id="DejaVuSans-4f" d="M 2522 4238 
Q 1834 4238 1429 3725 
Q 1025 3213 1025 2328 
Q 1025 1447 1429 934 
Q 1834 422 2522 422 
Q 3209 422 3611 934 
Q 4013 1447 4013 2328 
Q 4013 3213 3611 3725 
Q 3209 4238 2522 4238 
z
M 2522 4750 
Q 3503 4750 4090 4092 
Q 4678 3434 4678 2328 
Q 4678 1225 4090 567 
Q 3503 -91 2522 -91 
Q 1538 -91 948 565 
Q 359 1222 359 2328 
Q 359 3434 948 4092 
Q 1538 4750 2522 4750 
z
" transform="scale(0.015625)"/>
      <path id="DejaVuSans-79" d="M 2059 -325 
Q 1816 -950 1584 -1140 
Q 1353 -1331 966 -1331 
L 506 -1331 
L 506 -850 
L 844 -850 
Q 1081 -850 1212 -737 
Q 1344 -625 1503 -206 
L 1606 56 
L 191 3500 
L 800 3500 
L 1894 763 
L 2988 3500 
L 3597 3500 
L 2059 -325 
z
" transform="scale(0.015625)"/>
     </defs>
     <use xlink:href="#DejaVuSans-47"/>
     <use xlink:href="#DejaVuSans-50" x="77.490234"/>
     <use xlink:href="#DejaVuSans-53" x="137.792969"/>
     <use xlink:href="#DejaVuSans-20" x="201.269531"/>
     <use xlink:href="#DejaVuSans-4f" x="233.056641"/>
     <use xlink:href="#DejaVuSans-6e" x="311.767578"/>
     <use xlink:href="#DejaVuSans-6c" x="375.146484"/>
     <use xlink:href="#DejaVuSans-79" x="402.929688"/>
    </g>
   </g>
   <g id="line2d_86">
    <path d="M 131.576563 308.720312 
L 141.576563 308.720312 
L 151.576563 308.720312 
" style="fill: none; stroke: #2ca02c; stroke-width: 1.5; stroke-linecap: square"/>
   </g>
   <g id="text_41">
    <!-- Magnotometer Only -->
    <g transform="translate(159.576563 312.220312)scale(0.1 -0.1)">
     <defs>
      <path id="DejaVuSans-4d" d="M 628 4666 
L 1569 4666 
L 2759 1491 
L 3956 4666 
L 4897 4666 
L 4897 0 
L 4281 0 
L 4281 4097 
L 3078 897 
L 2444 897 
L 1241 4097 
L 1241 0 
L 628 0 
L 628 4666 
z
" transform="scale(0.015625)"/>
      <path id="DejaVuSans-6d" d="M 3328 2828 
Q 3544 3216 3844 3400 
Q 4144 3584 4550 3584 
Q 5097 3584 5394 3201 
Q 5691 2819 5691 2113 
L 5691 0 
L 5113 0 
L 5113 2094 
Q 5113 2597 4934 2840 
Q 4756 3084 4391 3084 
Q 3944 3084 3684 2787 
Q 3425 2491 3425 1978 
L 3425 0 
L 2847 0 
L 2847 2094 
Q 2847 2600 2669 2842 
Q 2491 3084 2119 3084 
Q 1678 3084 1418 2786 
Q 1159 2488 1159 1978 
L 1159 0 
L 581 0 
L 581 3500 
L 1159 3500 
L 1159 2956 
Q 1356 3278 1631 3431 
Q 1906 3584 2284 3584 
Q 2666 3584 2933 3390 
Q 3200 3197 3328 2828 
z
" transform="scale(0.015625)"/>
     </defs>
     <use xlink:href="#DejaVuSans-4d"/>
     <use xlink:href="#DejaVuSans-61" x="86.279297"/>
     <use xlink:href="#DejaVuSans-67" x="147.558594"/>
     <use xlink:href="#DejaVuSans-6e" x="211.035156"/>
     <use xlink:href="#DejaVuSans-6f" x="274.414062"/>
     <use xlink:href="#DejaVuSans-74" x="335.595703"/>
     <use xlink:href="#DejaVuSans-6f" x="374.804688"/>
     <use xlink:href="#DejaVuSans-6d" x="435.986328"/>
     <use xlink:href="#DejaVuSans-65" x="533.398438"/>
     <use xlink:href="#DejaVuSans-74" x="594.921875"/>
     <use xlink:href="#DejaVuSans-65" x="634.130859"/>
     <use xlink:href="#DejaVuSans-72" x="695.654297"/>
     <use xlink:href="#DejaVuSans-20" x="736.767578"/>
     <use xlink:href="#DejaVuSans-4f" x="768.554688"/>
     <use xlink:href="#DejaVuSans-6e" x="847.265625"/>
     <use xlink:href="#DejaVuSans-6c" x="910.644531"/>
     <use xlink:href="#DejaVuSans-79" x="938.427734"/>
    </g>
   </g>
   <g id="line2d_87">
    <path d="M 131.576563 323.398438 
L 141.576563 323.398438 
L 151.576563 323.398438 
" style="fill: none; stroke: #d62728; stroke-width: 1.5; stroke-linecap: square"/>
   </g>
   <g id="text_42">
    <!-- Full Fusion -->
    <g transform="translate(159.576563 326.898438)scale(0.1 -0.1)">
     <defs>
      <path id="DejaVuSans-46" d="M 628 4666 
L 3309 4666 
L 3309 4134 
L 1259 4134 
L 1259 2759 
L 3109 2759 
L 3109 2228 
L 1259 2228 
L 1259 0 
L 628 0 
L 628 4666 
z
" transform="scale(0.015625)"/>
      <path id="DejaVuSans-75" d="M 544 1381 
L 544 3500 
L 1119 3500 
L 1119 1403 
Q 1119 906 1312 657 
Q 1506 409 1894 409 
Q 2359 409 2629 706 
Q 2900 1003 2900 1516 
L 2900 3500 
L 3475 3500 
L 3475 0 
L 2900 0 
L 2900 538 
Q 2691 219 2414 64 
Q 2138 -91 1772 -91 
Q 1169 -91 856 284 
Q 544 659 544 1381 
z
M 1991 3584 
L 1991 3584 
z
" transform="scale(0.015625)"/>
     </defs>
     <use xlink:href="#DejaVuSans-46"/>
     <use xlink:href="#DejaVuSans-75" x="52.019531"/>
     <use xlink:href="#DejaVuSans-6c" x="115.398438"/>
     <use xlink:href="#DejaVuSans-6c" x="143.181641"/>
     <use xlink:href="#DejaVuSans-20" x="170.964844"/>
     <use xlink:href="#DejaVuSans-46" x="202.751953"/>
     <use xlink:href="#DejaVuSans-75" x="254.771484"/>
     <use xlink:href="#DejaVuSans-73" x="318.150391"/>
     <use xlink:href="#DejaVuSans-69" x="370.25"/>
     <use xlink:href="#DejaVuSans-6f" x="398.033203"/>
     <use xlink:href="#DejaVuSans-6e" x="459.214844"/>
    </g>
   </g>
   <g id="line2d_88">
    <path d="M 279.339063 308.720312 
L 289.339063 308.720312 
L 299.339063 308.720312 
" style="fill: none; stroke: #000000; stroke-width: 1.5; stroke-linecap: square"/>
   </g>
   <g id="text_43">
    <!-- True Position -->
    <g transform="translate(307.339063 312.220312)scale(0.1 -0.1)">
     <defs>
      <path id="DejaVuSans-54" d="M -19 4666 
L 3928 4666 
L 3928 4134 
L 2272 4134 
L 2272 0 
L 1638 0 
L 1638 4134 
L -19 4134 
L -19 4666 
z
" transform="scale(0.015625)"/>
     </defs>
     <use xlink:href="#DejaVuSans-54"/>
     <use xlink:href="#DejaVuSans-72" x="46.333984"/>
     <use xlink:href="#DejaVuSans-75" x="87.447266"/>
     <use xlink:href="#DejaVuSans-65" x="150.826172"/>
     <use xlink:href="#DejaVuSans-20" x="212.349609"/>
     <use xlink:href="#DejaVuSans-50" x="244.136719"/>
     <use xlink:href="#DejaVuSans-6f" x="300.814453"/>
     <use xlink:href="#DejaVuSans-73" x="361.996094"/>
     <use xlink:href="#DejaVuSans-69" x="414.095703"/>
     <use xlink:href="#DejaVuSans-74" x="441.878906"/>
     <use xlink:href="#DejaVuSans-69" x="481.087891"/>
     <use xlink:href="#DejaVuSans-6f" x="508.871094"/>
     <use xlink:href="#DejaVuSans-6e" x="570.052734"/>
    </g>
   </g>
  </g>
 </g>
 <defs>
  <clipPath id="pea7bdba1c0">
   <rect x="90" y="86.98017" width="253.636364" height="189.639659"/>
  </clipPath>
  <clipPath id="p55eb9d1fe2">
   <rect x="394.363636" y="43.2" width="253.636364" height="126"/>
  </clipPath>
  <clipPath id="p3ff737b17c">
   <rect x="394.363636" y="194.4" width="253.636364" height="126"/>
  </clipPath>
 </defs>
</svg>
