<?xml version="1.0" encoding="utf-8" standalone="no"?>
<!DOCTYPE svg PUBLIC "-//W3C//DTD SVG 1.1//EN"
  "http://www.w3.org/Graphics/SVG/1.1/DTD/svg11.dtd">
<svg xmlns:xlink="http://www.w3.org/1999/xlink" width="864pt" height="576pt" viewBox="0 0 864 576" xmlns="http://www.w3.org/2000/svg" version="1.1">
 <metadata>
  <rdf:RDF xmlns:dc="http://purl.org/dc/elements/1.1/" xmlns:cc="http://creativecommons.org/ns#" xmlns:rdf="http://www.w3.org/1999/02/22-rdf-syntax-ns#">
   <cc:Work>
    <dc:type rdf:resource="http://purl.org/dc/dcmitype/StillImage"/>
    <dc:date>2023-10-24T16:10:04.758999</dc:date>
    <dc:format>image/svg+xml</dc:format>
    <dc:creator>
     <cc:Agent>
      <dc:title>Matplotlib v3.5.2, https://matplotlib.org/</dc:title>
     </cc:Agent>
    </dc:creator>
   </cc:Work>
  </rdf:RDF>
 </metadata>
 <defs>
  <style type="text/css">*{stroke-linejoin: round; stroke-linecap: butt}</style>
 </defs>
 <g id="figure_1">
  <g id="patch_1">
   <path d="M 0 576 
L 864 576 
L 864 0 
L 0 0 
z
" style="fill: #ffffff"/>
  </g>
  <g id="axes_1">
   <g id="patch_2">
    <path d="M 127.567341 270.72 
L 392.796296 270.72 
L 392.796296 69.12 
L 127.567341 69.12 
z
" style="fill: #ffffff"/>
   </g>
   <g id="matplotlib.axis_1">
    <g id="xtick_1">
     <g id="line2d_1">
      <path d="M 139.623202 270.72 
L 139.623202 69.12 
" clip-path="url(#p0557b808fd)" style="fill: none; stroke: #b0b0b0; stroke-width: 0.8; stroke-linecap: square"/>
     </g>
     <g id="line2d_2">
      <defs>
       <path id="mec630c6eff" d="M 0 0 
L 0 3.5 
" style="stroke: #000000; stroke-width: 0.8"/>
      </defs>
      <g>
       <use xlink:href="#mec630c6eff" x="139.623202" y="270.72" style="stroke: #000000; stroke-width: 0.8"/>
      </g>
     </g>
     <g id="text_1">
      <!-- 0 -->
      <g transform="translate(136.441952 285.318437)scale(0.1 -0.1)">
       <defs>
        <path id="DejaVuSans-30" d="M 2034 4250 
Q 1547 4250 1301 3770 
Q 1056 3291 1056 2328 
Q 1056 1369 1301 889 
Q 1547 409 2034 409 
Q 2525 409 2770 889 
Q 3016 1369 3016 2328 
Q 3016 3291 2770 3770 
Q 2525 4250 2034 4250 
z
M 2034 4750 
Q 2819 4750 3233 4129 
Q 3647 3509 3647 2328 
Q 3647 1150 3233 529 
Q 2819 -91 2034 -91 
Q 1250 -91 836 529 
Q 422 1150 422 2328 
Q 422 3509 836 4129 
Q 1250 4750 2034 4750 
z
" transform="scale(0.015625)"/>
       </defs>
       <use xlink:href="#DejaVuSans-30"/>
      </g>
     </g>
    </g>
    <g id="xtick_2">
     <g id="line2d_3">
      <path d="M 177.9036 270.72 
L 177.9036 69.12 
" clip-path="url(#p0557b808fd)" style="fill: none; stroke: #b0b0b0; stroke-width: 0.8; stroke-linecap: square"/>
     </g>
     <g id="line2d_4">
      <g>
       <use xlink:href="#mec630c6eff" x="177.9036" y="270.72" style="stroke: #000000; stroke-width: 0.8"/>
      </g>
     </g>
     <g id="text_2">
      <!-- 5 -->
      <g transform="translate(174.72235 285.318437)scale(0.1 -0.1)">
       <defs>
        <path id="DejaVuSans-35" d="M 691 4666 
L 3169 4666 
L 3169 4134 
L 1269 4134 
L 1269 2991 
Q 1406 3038 1543 3061 
Q 1681 3084 1819 3084 
Q 2600 3084 3056 2656 
Q 3513 2228 3513 1497 
Q 3513 744 3044 326 
Q 2575 -91 1722 -91 
Q 1428 -91 1123 -41 
Q 819 9 494 109 
L 494 744 
Q 775 591 1075 516 
Q 1375 441 1709 441 
Q 2250 441 2565 725 
Q 2881 1009 2881 1497 
Q 2881 1984 2565 2268 
Q 2250 2553 1709 2553 
Q 1456 2553 1204 2497 
Q 953 2441 691 2322 
L 691 4666 
z
" transform="scale(0.015625)"/>
       </defs>
       <use xlink:href="#DejaVuSans-35"/>
      </g>
     </g>
    </g>
    <g id="xtick_3">
     <g id="line2d_5">
      <path d="M 216.183997 270.72 
L 216.183997 69.12 
" clip-path="url(#p0557b808fd)" style="fill: none; stroke: #b0b0b0; stroke-width: 0.8; stroke-linecap: square"/>
     </g>
     <g id="line2d_6">
      <g>
       <use xlink:href="#mec630c6eff" x="216.183997" y="270.72" style="stroke: #000000; stroke-width: 0.8"/>
      </g>
     </g>
     <g id="text_3">
      <!-- 10 -->
      <g transform="translate(209.821497 285.318437)scale(0.1 -0.1)">
       <defs>
        <path id="DejaVuSans-31" d="M 794 531 
L 1825 531 
L 1825 4091 
L 703 3866 
L 703 4441 
L 1819 4666 
L 2450 4666 
L 2450 531 
L 3481 531 
L 3481 0 
L 794 0 
L 794 531 
z
" transform="scale(0.015625)"/>
       </defs>
       <use xlink:href="#DejaVuSans-31"/>
       <use xlink:href="#DejaVuSans-30" x="63.623047"/>
      </g>
     </g>
    </g>
    <g id="xtick_4">
     <g id="line2d_7">
      <path d="M 254.464395 270.72 
L 254.464395 69.12 
" clip-path="url(#p0557b808fd)" style="fill: none; stroke: #b0b0b0; stroke-width: 0.8; stroke-linecap: square"/>
     </g>
     <g id="line2d_8">
      <g>
       <use xlink:href="#mec630c6eff" x="254.464395" y="270.72" style="stroke: #000000; stroke-width: 0.8"/>
      </g>
     </g>
     <g id="text_4">
      <!-- 15 -->
      <g transform="translate(248.101895 285.318437)scale(0.1 -0.1)">
       <use xlink:href="#DejaVuSans-31"/>
       <use xlink:href="#DejaVuSans-35" x="63.623047"/>
      </g>
     </g>
    </g>
    <g id="xtick_5">
     <g id="line2d_9">
      <path d="M 292.744793 270.72 
L 292.744793 69.12 
" clip-path="url(#p0557b808fd)" style="fill: none; stroke: #b0b0b0; stroke-width: 0.8; stroke-linecap: square"/>
     </g>
     <g id="line2d_10">
      <g>
       <use xlink:href="#mec630c6eff" x="292.744793" y="270.72" style="stroke: #000000; stroke-width: 0.8"/>
      </g>
     </g>
     <g id="text_5">
      <!-- 20 -->
      <g transform="translate(286.382293 285.318437)scale(0.1 -0.1)">
       <defs>
        <path id="DejaVuSans-32" d="M 1228 531 
L 3431 531 
L 3431 0 
L 469 0 
L 469 531 
Q 828 903 1448 1529 
Q 2069 2156 2228 2338 
Q 2531 2678 2651 2914 
Q 2772 3150 2772 3378 
Q 2772 3750 2511 3984 
Q 2250 4219 1831 4219 
Q 1534 4219 1204 4116 
Q 875 4013 500 3803 
L 500 4441 
Q 881 4594 1212 4672 
Q 1544 4750 1819 4750 
Q 2544 4750 2975 4387 
Q 3406 4025 3406 3419 
Q 3406 3131 3298 2873 
Q 3191 2616 2906 2266 
Q 2828 2175 2409 1742 
Q 1991 1309 1228 531 
z
" transform="scale(0.015625)"/>
       </defs>
       <use xlink:href="#DejaVuSans-32"/>
       <use xlink:href="#DejaVuSans-30" x="63.623047"/>
      </g>
     </g>
    </g>
    <g id="xtick_6">
     <g id="line2d_11">
      <path d="M 331.02519 270.72 
L 331.02519 69.12 
" clip-path="url(#p0557b808fd)" style="fill: none; stroke: #b0b0b0; stroke-width: 0.8; stroke-linecap: square"/>
     </g>
     <g id="line2d_12">
      <g>
       <use xlink:href="#mec630c6eff" x="331.02519" y="270.72" style="stroke: #000000; stroke-width: 0.8"/>
      </g>
     </g>
     <g id="text_6">
      <!-- 25 -->
      <g transform="translate(324.66269 285.318437)scale(0.1 -0.1)">
       <use xlink:href="#DejaVuSans-32"/>
       <use xlink:href="#DejaVuSans-35" x="63.623047"/>
      </g>
     </g>
    </g>
    <g id="xtick_7">
     <g id="line2d_13">
      <path d="M 369.305588 270.72 
L 369.305588 69.12 
" clip-path="url(#p0557b808fd)" style="fill: none; stroke: #b0b0b0; stroke-width: 0.8; stroke-linecap: square"/>
     </g>
     <g id="line2d_14">
      <g>
       <use xlink:href="#mec630c6eff" x="369.305588" y="270.72" style="stroke: #000000; stroke-width: 0.8"/>
      </g>
     </g>
     <g id="text_7">
      <!-- 30 -->
      <g transform="translate(362.943088 285.318437)scale(0.1 -0.1)">
       <defs>
        <path id="DejaVuSans-33" d="M 2597 2516 
Q 3050 2419 3304 2112 
Q 3559 1806 3559 1356 
Q 3559 666 3084 287 
Q 2609 -91 1734 -91 
Q 1441 -91 1130 -33 
Q 819 25 488 141 
L 488 750 
Q 750 597 1062 519 
Q 1375 441 1716 441 
Q 2309 441 2620 675 
Q 2931 909 2931 1356 
Q 2931 1769 2642 2001 
Q 2353 2234 1838 2234 
L 1294 2234 
L 1294 2753 
L 1863 2753 
Q 2328 2753 2575 2939 
Q 2822 3125 2822 3475 
Q 2822 3834 2567 4026 
Q 2313 4219 1838 4219 
Q 1578 4219 1281 4162 
Q 984 4106 628 3988 
L 628 4550 
Q 988 4650 1302 4700 
Q 1616 4750 1894 4750 
Q 2613 4750 3031 4423 
Q 3450 4097 3450 3541 
Q 3450 3153 3228 2886 
Q 3006 2619 2597 2516 
z
" transform="scale(0.015625)"/>
       </defs>
       <use xlink:href="#DejaVuSans-33"/>
       <use xlink:href="#DejaVuSans-30" x="63.623047"/>
      </g>
     </g>
    </g>
   </g>
   <g id="matplotlib.axis_2">
    <g id="ytick_1">
     <g id="line2d_15">
      <path d="M 127.567341 269.685624 
L 392.796296 269.685624 
" clip-path="url(#p0557b808fd)" style="fill: none; stroke: #b0b0b0; stroke-width: 0.8; stroke-linecap: square"/>
     </g>
     <g id="line2d_16">
      <defs>
       <path id="m731de356db" d="M 0 0 
L -3.5 0 
" style="stroke: #000000; stroke-width: 0.8"/>
      </defs>
      <g>
       <use xlink:href="#m731de356db" x="127.567341" y="269.685624" style="stroke: #000000; stroke-width: 0.8"/>
      </g>
     </g>
     <g id="text_8">
      <!-- −25 -->
      <g transform="translate(99.462653 273.484843)scale(0.1 -0.1)">
       <defs>
        <path id="DejaVuSans-2212" d="M 678 2272 
L 4684 2272 
L 4684 1741 
L 678 1741 
L 678 2272 
z
" transform="scale(0.015625)"/>
       </defs>
       <use xlink:href="#DejaVuSans-2212"/>
       <use xlink:href="#DejaVuSans-32" x="83.789062"/>
       <use xlink:href="#DejaVuSans-35" x="147.412109"/>
      </g>
     </g>
    </g>
    <g id="ytick_2">
     <g id="line2d_17">
      <path d="M 127.567341 231.405227 
L 392.796296 231.405227 
" clip-path="url(#p0557b808fd)" style="fill: none; stroke: #b0b0b0; stroke-width: 0.8; stroke-linecap: square"/>
     </g>
     <g id="line2d_18">
      <g>
       <use xlink:href="#m731de356db" x="127.567341" y="231.405227" style="stroke: #000000; stroke-width: 0.8"/>
      </g>
     </g>
     <g id="text_9">
      <!-- −20 -->
      <g transform="translate(99.462653 235.204446)scale(0.1 -0.1)">
       <use xlink:href="#DejaVuSans-2212"/>
       <use xlink:href="#DejaVuSans-32" x="83.789062"/>
       <use xlink:href="#DejaVuSans-30" x="147.412109"/>
      </g>
     </g>
    </g>
    <g id="ytick_3">
     <g id="line2d_19">
      <path d="M 127.567341 193.124829 
L 392.796296 193.124829 
" clip-path="url(#p0557b808fd)" style="fill: none; stroke: #b0b0b0; stroke-width: 0.8; stroke-linecap: square"/>
     </g>
     <g id="line2d_20">
      <g>
       <use xlink:href="#m731de356db" x="127.567341" y="193.124829" style="stroke: #000000; stroke-width: 0.8"/>
      </g>
     </g>
     <g id="text_10">
      <!-- −15 -->
      <g transform="translate(99.462653 196.924048)scale(0.1 -0.1)">
       <use xlink:href="#DejaVuSans-2212"/>
       <use xlink:href="#DejaVuSans-31" x="83.789062"/>
       <use xlink:href="#DejaVuSans-35" x="147.412109"/>
      </g>
     </g>
    </g>
    <g id="ytick_4">
     <g id="line2d_21">
      <path d="M 127.567341 154.844432 
L 392.796296 154.844432 
" clip-path="url(#p0557b808fd)" style="fill: none; stroke: #b0b0b0; stroke-width: 0.8; stroke-linecap: square"/>
     </g>
     <g id="line2d_22">
      <g>
       <use xlink:href="#m731de356db" x="127.567341" y="154.844432" style="stroke: #000000; stroke-width: 0.8"/>
      </g>
     </g>
     <g id="text_11">
      <!-- −10 -->
      <g transform="translate(99.462653 158.64365)scale(0.1 -0.1)">
       <use xlink:href="#DejaVuSans-2212"/>
       <use xlink:href="#DejaVuSans-31" x="83.789062"/>
       <use xlink:href="#DejaVuSans-30" x="147.412109"/>
      </g>
     </g>
    </g>
    <g id="ytick_5">
     <g id="line2d_23">
      <path d="M 127.567341 116.564034 
L 392.796296 116.564034 
" clip-path="url(#p0557b808fd)" style="fill: none; stroke: #b0b0b0; stroke-width: 0.8; stroke-linecap: square"/>
     </g>
     <g id="line2d_24">
      <g>
       <use xlink:href="#m731de356db" x="127.567341" y="116.564034" style="stroke: #000000; stroke-width: 0.8"/>
      </g>
     </g>
     <g id="text_12">
      <!-- −5 -->
      <g transform="translate(105.825153 120.363253)scale(0.1 -0.1)">
       <use xlink:href="#DejaVuSans-2212"/>
       <use xlink:href="#DejaVuSans-35" x="83.789062"/>
      </g>
     </g>
    </g>
    <g id="ytick_6">
     <g id="line2d_25">
      <path d="M 127.567341 78.283636 
L 392.796296 78.283636 
" clip-path="url(#p0557b808fd)" style="fill: none; stroke: #b0b0b0; stroke-width: 0.8; stroke-linecap: square"/>
     </g>
     <g id="line2d_26">
      <g>
       <use xlink:href="#m731de356db" x="127.567341" y="78.283636" style="stroke: #000000; stroke-width: 0.8"/>
      </g>
     </g>
     <g id="text_13">
      <!-- 0 -->
      <g transform="translate(114.204841 82.082855)scale(0.1 -0.1)">
       <use xlink:href="#DejaVuSans-30"/>
      </g>
     </g>
    </g>
    <g id="text_14">
     <!-- Position -->
     <g transform="translate(93.382966 189.384062)rotate(-90)scale(0.1 -0.1)">
      <defs>
       <path id="DejaVuSans-50" d="M 1259 4147 
L 1259 2394 
L 2053 2394 
Q 2494 2394 2734 2622 
Q 2975 2850 2975 3272 
Q 2975 3691 2734 3919 
Q 2494 4147 2053 4147 
L 1259 4147 
z
M 628 4666 
L 2053 4666 
Q 2838 4666 3239 4311 
Q 3641 3956 3641 3272 
Q 3641 2581 3239 2228 
Q 2838 1875 2053 1875 
L 1259 1875 
L 1259 0 
L 628 0 
L 628 4666 
z
" transform="scale(0.015625)"/>
       <path id="DejaVuSans-6f" d="M 1959 3097 
Q 1497 3097 1228 2736 
Q 959 2375 959 1747 
Q 959 1119 1226 758 
Q 1494 397 1959 397 
Q 2419 397 2687 759 
Q 2956 1122 2956 1747 
Q 2956 2369 2687 2733 
Q 2419 3097 1959 3097 
z
M 1959 3584 
Q 2709 3584 3137 3096 
Q 3566 2609 3566 1747 
Q 3566 888 3137 398 
Q 2709 -91 1959 -91 
Q 1206 -91 779 398 
Q 353 888 353 1747 
Q 353 2609 779 3096 
Q 1206 3584 1959 3584 
z
" transform="scale(0.015625)"/>
       <path id="DejaVuSans-73" d="M 2834 3397 
L 2834 2853 
Q 2591 2978 2328 3040 
Q 2066 3103 1784 3103 
Q 1356 3103 1142 2972 
Q 928 2841 928 2578 
Q 928 2378 1081 2264 
Q 1234 2150 1697 2047 
L 1894 2003 
Q 2506 1872 2764 1633 
Q 3022 1394 3022 966 
Q 3022 478 2636 193 
Q 2250 -91 1575 -91 
Q 1294 -91 989 -36 
Q 684 19 347 128 
L 347 722 
Q 666 556 975 473 
Q 1284 391 1588 391 
Q 1994 391 2212 530 
Q 2431 669 2431 922 
Q 2431 1156 2273 1281 
Q 2116 1406 1581 1522 
L 1381 1569 
Q 847 1681 609 1914 
Q 372 2147 372 2553 
Q 372 3047 722 3315 
Q 1072 3584 1716 3584 
Q 2034 3584 2315 3537 
Q 2597 3491 2834 3397 
z
" transform="scale(0.015625)"/>
       <path id="DejaVuSans-69" d="M 603 3500 
L 1178 3500 
L 1178 0 
L 603 0 
L 603 3500 
z
M 603 4863 
L 1178 4863 
L 1178 4134 
L 603 4134 
L 603 4863 
z
" transform="scale(0.015625)"/>
       <path id="DejaVuSans-74" d="M 1172 4494 
L 1172 3500 
L 2356 3500 
L 2356 3053 
L 1172 3053 
L 1172 1153 
Q 1172 725 1289 603 
Q 1406 481 1766 481 
L 2356 481 
L 2356 0 
L 1766 0 
Q 1100 0 847 248 
Q 594 497 594 1153 
L 594 3053 
L 172 3053 
L 172 3500 
L 594 3500 
L 594 4494 
L 1172 4494 
z
" transform="scale(0.015625)"/>
       <path id="DejaVuSans-6e" d="M 3513 2113 
L 3513 0 
L 2938 0 
L 2938 2094 
Q 2938 2591 2744 2837 
Q 2550 3084 2163 3084 
Q 1697 3084 1428 2787 
Q 1159 2491 1159 1978 
L 1159 0 
L 581 0 
L 581 3500 
L 1159 3500 
L 1159 2956 
Q 1366 3272 1645 3428 
Q 1925 3584 2291 3584 
Q 2894 3584 3203 3211 
Q 3513 2838 3513 2113 
z
" transform="scale(0.015625)"/>
      </defs>
      <use xlink:href="#DejaVuSans-50"/>
      <use xlink:href="#DejaVuSans-6f" x="56.677734"/>
      <use xlink:href="#DejaVuSans-73" x="117.859375"/>
      <use xlink:href="#DejaVuSans-69" x="169.958984"/>
      <use xlink:href="#DejaVuSans-74" x="197.742188"/>
      <use xlink:href="#DejaVuSans-69" x="236.951172"/>
      <use xlink:href="#DejaVuSans-6f" x="264.734375"/>
      <use xlink:href="#DejaVuSans-6e" x="325.916016"/>
     </g>
    </g>
   </g>
   <g id="line2d_27">
    <path d="M 139.623202 78.283636 
L 142.871402 81.531836 
L 146.119601 84.780035 
L 149.370574 88.025459 
L 152.627081 91.265329 
L 155.891865 94.496859 
L 159.167635 97.717252 
L 162.457058 100.923698 
L 165.762748 104.113371 
L 169.087256 107.283425 
L 172.433061 110.430994 
L 175.802557 113.553188 
L 179.198047 116.647094 
L 182.621728 119.709773 
L 186.07569 122.738262 
L 189.561896 125.729577 
L 193.082185 128.680707 
L 196.638253 131.588623 
L 200.231654 134.450278 
L 203.863786 137.262611 
L 207.535887 140.022551 
L 211.249031 142.727022 
L 215.004118 145.372948 
L 218.80187 147.957262 
L 222.642829 150.476911 
L 226.527355 152.928862 
L 230.455616 155.310114 
L 234.427595 157.617706 
L 238.443085 159.848723 
L 242.50169 162.00031 
L 246.602825 164.069681 
L 250.74572 166.054125 
L 254.929424 167.951023 
L 259.152807 169.757853 
L 263.414567 171.472204 
L 267.713236 173.091785 
L 272.047188 174.614433 
L 276.414647 176.038128 
L 280.813694 177.360996 
L 285.242283 178.581322 
L 289.698248 179.697558 
L 294.179312 180.708329 
L 298.683109 181.612441 
L 303.207186 182.408886 
L 307.749026 183.096847 
L 312.306056 183.675705 
L 316.875664 184.14504 
L 321.455216 184.504632 
L 326.042065 184.754465 
L 330.633571 184.894725 
L 335.227113 184.925803 
L 339.820107 184.848289 
L 344.410015 184.662969 
L 348.994364 184.370827 
L 353.570755 183.973033 
L 358.136881 183.470945 
L 362.690535 182.866097 
L 367.22962 182.160194 
L 371.752168 181.355106 
L 376.256338 180.452858 
L 380.740434 179.455623 
" clip-path="url(#p0557b808fd)" style="fill: none; stroke: #1f77b4; stroke-width: 1.5; stroke-linecap: square"/>
   </g>
   <g id="line2d_28">
    <path d="M 139.623202 78.283636 
L 142.871402 81.531836 
L 145.69999 85.199646 
L 148.721579 88.659647 
L 148.880151 94.79063 
L 151.004892 98.863353 
L 160.883093 97.021795 
L 164.547977 99.791313 
L 166.229472 104.343384 
L 169.637236 107.423764 
L 169.872806 113.523753 
L 172.861598 117.012122 
L 173.994435 122.230919 
L 176.77627 125.886462 
L 181.503649 127.80851 
L 184.606124 131.196171 
L 186.860892 135.346 
L 189.937549 138.757126 
L 187.94954 146.741763 
L 190.48967 150.569208 
L 189.143013 157.725522 
L 191.292143 161.785428 
L 193.948443 165.462467 
L 196.281066 169.419798 
L 203.522789 169.715169 
L 206.526384 173.190801 
L 208.435411 177.504473 
L 211.44575 180.974265 
L 212.934903 185.642995 
L 215.91405 189.139606 
L 215.818692 195.110761 
L 218.604954 198.762931 
L 218.34007 204.862199 
L 220.936545 208.651647 
L 226.380383 210.219823 
L 229.430679 213.654542 
L 228.851268 220.001858 
L 231.672341 223.627206 
L 230.796015 230.22343 
L 233.373059 234.026119 
L 241.083286 233.818036 
L 244.347076 237.05057 
L 251.761453 236.845495 
L 255.522911 239.482354 
L 251.998989 248.745862 
L 255.22028 252.020749 
L 262.910432 251.129591 
L 266.682708 253.750952 
L 275.443002 251.301108 
L 279.678238 253.079977 
L 284.204677 254.465912 
L 288.533413 256.003326 
L 292.494279 257.98016 
L 296.868481 259.382996 
L 305.324322 254.460443 
L 309.899561 254.871279 
L 311.821896 260.214914 
L 316.340766 261.040394 
L 321.217721 261.017244 
L 325.779623 261.556364 
L 331.048032 260.190366 
" clip-path="url(#p0557b808fd)" style="fill: none; stroke: #ff7f0e; stroke-width: 1.5; stroke-linecap: square"/>
   </g>
   <g id="line2d_29">
    <path d="M 139.623202 78.283636 
L 142.871402 81.531836 
L 146.119601 84.780035 
L 149.370574 88.025459 
L 152.627081 91.265329 
L 155.891865 94.496859 
L 159.167635 97.717252 
L 162.457058 100.923698 
L 165.762748 104.113371 
L 169.087256 107.283425 
L 172.941657 108.781709 
L 176.40664 111.797583 
L 179.896723 114.784373 
L 183.414014 117.739075 
L 186.960506 120.658663 
L 190.538072 123.54009 
L 194.148453 126.380292 
L 197.793252 129.176189 
L 201.473927 131.924685 
L 205.19178 134.622679 
L 202.759109 140.349527 
L 206.158437 143.439215 
L 209.605785 146.475231 
L 213.102203 149.454603 
L 216.648561 152.374354 
L 220.245541 155.231509 
L 223.893636 158.023102 
L 227.59315 160.746188 
L 231.344191 163.397847 
L 235.146673 165.975197 
L 224.320156 170.874897 
L 227.549739 174.141607 
L 230.847294 177.339689 
L 234.212608 180.466391 
L 237.64527 183.519002 
L 241.144671 186.494869 
L 244.710012 189.391409 
L 248.340302 192.20612 
L 252.034369 194.93659 
L 255.790864 197.580515 
L 264.674305 193.757009 
L 268.94177 195.457109 
L 273.248391 197.055425 
L 277.591905 198.55058 
L 281.969952 199.941372 
L 286.38009 201.226786 
L 290.819803 202.405998 
L 295.286525 203.478378 
L 299.777643 204.443497 
L 304.290522 205.301126 
L 304.800305 209.449236 
L 309.267718 210.518729 
L 313.759008 211.483048 
L 318.271535 212.342529 
L 322.802683 213.097709 
L 327.349879 213.749327 
L 331.910603 214.298318 
L 336.482402 214.745812 
L 341.062901 215.093129 
L 345.649815 215.341772 
L 352.392513 221.200049 
" clip-path="url(#p0557b808fd)" style="fill: none; stroke: #2ca02c; stroke-width: 1.5; stroke-linecap: square"/>
   </g>
   <g id="line2d_30">
    <path d="M 139.623202 78.283636 
L 142.871402 81.531836 
L 145.69999 85.199646 
L 148.721579 88.659647 
L 148.880151 94.79063 
L 151.004892 98.863353 
L 160.883093 97.021795 
L 164.547977 99.791313 
L 166.229472 104.343384 
L 169.637236 107.423764 
L 172.935102 108.793404 
L 176.182114 112.042791 
L 179.125549 115.59822 
L 182.223955 118.989603 
L 185.756975 121.965321 
L 189.059532 125.158238 
L 191.928556 128.780796 
L 195.191034 132.014654 
L 195.874278 137.839316 
L 198.657998 141.493424 
L 202.708541 140.388024 
L 205.635327 143.928578 
L 208.537382 147.490072 
L 211.52559 150.978941 
L 215.366068 153.734484 
L 218.740849 156.850965 
L 221.613408 160.441268 
L 224.963323 163.584462 
L 227.505797 167.533376 
L 230.796007 170.739015 
L 224.268037 170.898312 
L 227.224183 174.414389 
L 229.908881 178.165911 
L 232.790727 181.743139 
L 236.228695 184.85357 
L 239.431197 188.146833 
L 241.474375 192.484604 
L 244.505314 195.936416 
L 245.926242 200.844342 
L 248.742915 204.473109 
L 264.656503 193.833735 
L 268.827768 195.757832 
L 273.15239 197.344808 
L 277.470396 198.912108 
L 280.882634 202.771061 
L 284.906133 204.987602 
L 289.479428 206.008644 
L 293.735455 207.737179 
L 298.924251 207.289926 
L 303.394859 208.345986 
L 304.792272 209.463828 
L 309.280275 210.443329 
L 313.754849 211.487152 
L 318.263878 212.364797 
L 323.061389 211.73701 
L 327.652391 211.892895 
L 332.007582 213.981623 
L 336.574548 214.476012 
L 341.164262 214.751444 
L 345.74997 215.021404 
L 352.397916 221.182451 
" clip-path="url(#p0557b808fd)" style="fill: none; stroke: #d62728; stroke-width: 1.5; stroke-linecap: square"/>
   </g>
   <g id="line2d_31">
    <path d="M 139.623202 78.283636 
L 143.822801 81.544673 
L 146.995098 84.611596 
L 151.847748 87.418157 
L 154.866428 89.582656 
L 159.981151 92.985031 
L 159.760971 99.899558 
L 164.890142 101.98773 
L 167.099674 103.616929 
L 170.175106 108.042997 
L 173.197057 109.738766 
L 175.555999 112.293424 
L 176.904826 116.842825 
L 180.304814 120.195924 
L 183.263678 124.078811 
L 185.922984 126.73766 
L 189.00559 128.574699 
L 193.909773 132.662004 
L 196.081394 136.280322 
L 199.268271 139.95321 
L 202.452024 142.205876 
L 204.679412 143.795332 
L 211.0082 143.535526 
L 210.880517 146.992603 
L 214.389833 149.708533 
L 216.818943 153.172243 
L 220.525007 156.058463 
L 219.713685 158.834777 
L 220.605907 165.72876 
L 222.717589 170.152351 
L 224.462192 172.591208 
L 227.05001 176.439863 
L 230.512247 179.663979 
L 234.937794 185.518268 
L 238.92602 186.42404 
L 243.755221 186.458635 
L 246.580432 190.761657 
L 252.570931 193.465079 
L 258.785605 192.685907 
L 262.035599 195.042437 
L 264.434247 194.605298 
L 270.579849 196.068444 
L 274.896636 198.224823 
L 274.474656 198.771244 
L 279.565853 200.224971 
L 283.546623 203.022708 
L 287.188913 203.815426 
L 292.25818 203.979823 
L 297.210871 206.425082 
L 299.305602 208.568614 
L 304.636375 209.630532 
L 310.356642 211.053201 
L 313.265886 211.904685 
L 319.284222 210.466712 
L 322.923903 209.523238 
L 327.712538 211.772418 
L 333.686195 215.832886 
L 337.560264 219.238034 
L 341.575424 218.887798 
L 348.203621 221.732204 
L 351.932043 220.051135 
" clip-path="url(#p0557b808fd)" style="fill: none; stroke: #000000; stroke-width: 1.5; stroke-linecap: square"/>
   </g>
   <g id="patch_3">
    <path d="M 127.567341 270.72 
L 127.567341 69.12 
" style="fill: none; stroke: #000000; stroke-width: 0.8; stroke-linejoin: miter; stroke-linecap: square"/>
   </g>
   <g id="patch_4">
    <path d="M 392.796296 270.72 
L 392.796296 69.12 
" style="fill: none; stroke: #000000; stroke-width: 0.8; stroke-linejoin: miter; stroke-linecap: square"/>
   </g>
   <g id="patch_5">
    <path d="M 127.567341 270.72 
L 392.796296 270.72 
" style="fill: none; stroke: #000000; stroke-width: 0.8; stroke-linejoin: miter; stroke-linecap: square"/>
   </g>
   <g id="patch_6">
    <path d="M 127.567341 69.12 
L 392.796296 69.12 
" style="fill: none; stroke: #000000; stroke-width: 0.8; stroke-linejoin: miter; stroke-linecap: square"/>
   </g>
   <g id="legend_1">
    <g id="patch_7">
     <path d="M 290.455671 150.510625 
L 385.796296 150.510625 
Q 387.796296 150.510625 387.796296 148.510625 
L 387.796296 76.12 
Q 387.796296 74.12 385.796296 74.12 
L 290.455671 74.12 
Q 288.455671 74.12 288.455671 76.12 
L 288.455671 148.510625 
Q 288.455671 150.510625 290.455671 150.510625 
z
" style="fill: #ffffff; opacity: 0.8; stroke: #cccccc; stroke-linejoin: miter"/>
    </g>
    <g id="line2d_32">
     <path d="M 292.455671 82.218437 
L 302.455671 82.218437 
L 312.455671 82.218437 
" style="fill: none; stroke: #1f77b4; stroke-width: 1.5; stroke-linecap: square"/>
    </g>
    <g id="text_15">
     <!-- No Sensor -->
     <g transform="translate(320.455671 85.718437)scale(0.1 -0.1)">
      <defs>
       <path id="DejaVuSans-4e" d="M 628 4666 
L 1478 4666 
L 3547 763 
L 3547 4666 
L 4159 4666 
L 4159 0 
L 3309 0 
L 1241 3903 
L 1241 0 
L 628 0 
L 628 4666 
z
" transform="scale(0.015625)"/>
       <path id="DejaVuSans-20" transform="scale(0.015625)"/>
       <path id="DejaVuSans-53" d="M 3425 4513 
L 3425 3897 
Q 3066 4069 2747 4153 
Q 2428 4238 2131 4238 
Q 1616 4238 1336 4038 
Q 1056 3838 1056 3469 
Q 1056 3159 1242 3001 
Q 1428 2844 1947 2747 
L 2328 2669 
Q 3034 2534 3370 2195 
Q 3706 1856 3706 1288 
Q 3706 609 3251 259 
Q 2797 -91 1919 -91 
Q 1588 -91 1214 -16 
Q 841 59 441 206 
L 441 856 
Q 825 641 1194 531 
Q 1563 422 1919 422 
Q 2459 422 2753 634 
Q 3047 847 3047 1241 
Q 3047 1584 2836 1778 
Q 2625 1972 2144 2069 
L 1759 2144 
Q 1053 2284 737 2584 
Q 422 2884 422 3419 
Q 422 4038 858 4394 
Q 1294 4750 2059 4750 
Q 2388 4750 2728 4690 
Q 3069 4631 3425 4513 
z
" transform="scale(0.015625)"/>
       <path id="DejaVuSans-65" d="M 3597 1894 
L 3597 1613 
L 953 1613 
Q 991 1019 1311 708 
Q 1631 397 2203 397 
Q 2534 397 2845 478 
Q 3156 559 3463 722 
L 3463 178 
Q 3153 47 2828 -22 
Q 2503 -91 2169 -91 
Q 1331 -91 842 396 
Q 353 884 353 1716 
Q 353 2575 817 3079 
Q 1281 3584 2069 3584 
Q 2775 3584 3186 3129 
Q 3597 2675 3597 1894 
z
M 3022 2063 
Q 3016 2534 2758 2815 
Q 2500 3097 2075 3097 
Q 1594 3097 1305 2825 
Q 1016 2553 972 2059 
L 3022 2063 
z
" transform="scale(0.015625)"/>
       <path id="DejaVuSans-72" d="M 2631 2963 
Q 2534 3019 2420 3045 
Q 2306 3072 2169 3072 
Q 1681 3072 1420 2755 
Q 1159 2438 1159 1844 
L 1159 0 
L 581 0 
L 581 3500 
L 1159 3500 
L 1159 2956 
Q 1341 3275 1631 3429 
Q 1922 3584 2338 3584 
Q 2397 3584 2469 3576 
Q 2541 3569 2628 3553 
L 2631 2963 
z
" transform="scale(0.015625)"/>
      </defs>
      <use xlink:href="#DejaVuSans-4e"/>
      <use xlink:href="#DejaVuSans-6f" x="74.804688"/>
      <use xlink:href="#DejaVuSans-20" x="135.986328"/>
      <use xlink:href="#DejaVuSans-53" x="167.773438"/>
      <use xlink:href="#DejaVuSans-65" x="231.25"/>
      <use xlink:href="#DejaVuSans-6e" x="292.773438"/>
      <use xlink:href="#DejaVuSans-73" x="356.152344"/>
      <use xlink:href="#DejaVuSans-6f" x="408.251953"/>
      <use xlink:href="#DejaVuSans-72" x="469.433594"/>
     </g>
    </g>
    <g id="line2d_33">
     <path d="M 292.455671 96.896563 
L 302.455671 96.896563 
L 312.455671 96.896563 
" style="fill: none; stroke: #ff7f0e; stroke-width: 1.5; stroke-linecap: square"/>
    </g>
    <g id="text_16">
     <!-- Mag only -->
     <g transform="translate(320.455671 100.396563)scale(0.1 -0.1)">
      <defs>
       <path id="DejaVuSans-4d" d="M 628 4666 
L 1569 4666 
L 2759 1491 
L 3956 4666 
L 4897 4666 
L 4897 0 
L 4281 0 
L 4281 4097 
L 3078 897 
L 2444 897 
L 1241 4097 
L 1241 0 
L 628 0 
L 628 4666 
z
" transform="scale(0.015625)"/>
       <path id="DejaVuSans-61" d="M 2194 1759 
Q 1497 1759 1228 1600 
Q 959 1441 959 1056 
Q 959 750 1161 570 
Q 1363 391 1709 391 
Q 2188 391 2477 730 
Q 2766 1069 2766 1631 
L 2766 1759 
L 2194 1759 
z
M 3341 1997 
L 3341 0 
L 2766 0 
L 2766 531 
Q 2569 213 2275 61 
Q 1981 -91 1556 -91 
Q 1019 -91 701 211 
Q 384 513 384 1019 
Q 384 1609 779 1909 
Q 1175 2209 1959 2209 
L 2766 2209 
L 2766 2266 
Q 2766 2663 2505 2880 
Q 2244 3097 1772 3097 
Q 1472 3097 1187 3025 
Q 903 2953 641 2809 
L 641 3341 
Q 956 3463 1253 3523 
Q 1550 3584 1831 3584 
Q 2591 3584 2966 3190 
Q 3341 2797 3341 1997 
z
" transform="scale(0.015625)"/>
       <path id="DejaVuSans-67" d="M 2906 1791 
Q 2906 2416 2648 2759 
Q 2391 3103 1925 3103 
Q 1463 3103 1205 2759 
Q 947 2416 947 1791 
Q 947 1169 1205 825 
Q 1463 481 1925 481 
Q 2391 481 2648 825 
Q 2906 1169 2906 1791 
z
M 3481 434 
Q 3481 -459 3084 -895 
Q 2688 -1331 1869 -1331 
Q 1566 -1331 1297 -1286 
Q 1028 -1241 775 -1147 
L 775 -588 
Q 1028 -725 1275 -790 
Q 1522 -856 1778 -856 
Q 2344 -856 2625 -561 
Q 2906 -266 2906 331 
L 2906 616 
Q 2728 306 2450 153 
Q 2172 0 1784 0 
Q 1141 0 747 490 
Q 353 981 353 1791 
Q 353 2603 747 3093 
Q 1141 3584 1784 3584 
Q 2172 3584 2450 3431 
Q 2728 3278 2906 2969 
L 2906 3500 
L 3481 3500 
L 3481 434 
z
" transform="scale(0.015625)"/>
       <path id="DejaVuSans-6c" d="M 603 4863 
L 1178 4863 
L 1178 0 
L 603 0 
L 603 4863 
z
" transform="scale(0.015625)"/>
       <path id="DejaVuSans-79" d="M 2059 -325 
Q 1816 -950 1584 -1140 
Q 1353 -1331 966 -1331 
L 506 -1331 
L 506 -850 
L 844 -850 
Q 1081 -850 1212 -737 
Q 1344 -625 1503 -206 
L 1606 56 
L 191 3500 
L 800 3500 
L 1894 763 
L 2988 3500 
L 3597 3500 
L 2059 -325 
z
" transform="scale(0.015625)"/>
      </defs>
      <use xlink:href="#DejaVuSans-4d"/>
      <use xlink:href="#DejaVuSans-61" x="86.279297"/>
      <use xlink:href="#DejaVuSans-67" x="147.558594"/>
      <use xlink:href="#DejaVuSans-20" x="211.035156"/>
      <use xlink:href="#DejaVuSans-6f" x="242.822266"/>
      <use xlink:href="#DejaVuSans-6e" x="304.003906"/>
      <use xlink:href="#DejaVuSans-6c" x="367.382812"/>
      <use xlink:href="#DejaVuSans-79" x="395.166016"/>
     </g>
    </g>
    <g id="line2d_34">
     <path d="M 292.455671 111.574687 
L 302.455671 111.574687 
L 312.455671 111.574687 
" style="fill: none; stroke: #2ca02c; stroke-width: 1.5; stroke-linecap: square"/>
    </g>
    <g id="text_17">
     <!-- GPS only -->
     <g transform="translate(320.455671 115.074687)scale(0.1 -0.1)">
      <defs>
       <path id="DejaVuSans-47" d="M 3809 666 
L 3809 1919 
L 2778 1919 
L 2778 2438 
L 4434 2438 
L 4434 434 
Q 4069 175 3628 42 
Q 3188 -91 2688 -91 
Q 1594 -91 976 548 
Q 359 1188 359 2328 
Q 359 3472 976 4111 
Q 1594 4750 2688 4750 
Q 3144 4750 3555 4637 
Q 3966 4525 4313 4306 
L 4313 3634 
Q 3963 3931 3569 4081 
Q 3175 4231 2741 4231 
Q 1884 4231 1454 3753 
Q 1025 3275 1025 2328 
Q 1025 1384 1454 906 
Q 1884 428 2741 428 
Q 3075 428 3337 486 
Q 3600 544 3809 666 
z
" transform="scale(0.015625)"/>
      </defs>
      <use xlink:href="#DejaVuSans-47"/>
      <use xlink:href="#DejaVuSans-50" x="77.490234"/>
      <use xlink:href="#DejaVuSans-53" x="137.792969"/>
      <use xlink:href="#DejaVuSans-20" x="201.269531"/>
      <use xlink:href="#DejaVuSans-6f" x="233.056641"/>
      <use xlink:href="#DejaVuSans-6e" x="294.238281"/>
      <use xlink:href="#DejaVuSans-6c" x="357.617188"/>
      <use xlink:href="#DejaVuSans-79" x="385.400391"/>
     </g>
    </g>
    <g id="line2d_35">
     <path d="M 292.455671 126.252813 
L 302.455671 126.252813 
L 312.455671 126.252813 
" style="fill: none; stroke: #d62728; stroke-width: 1.5; stroke-linecap: square"/>
    </g>
    <g id="text_18">
     <!-- Full fusion -->
     <g transform="translate(320.455671 129.752813)scale(0.1 -0.1)">
      <defs>
       <path id="DejaVuSans-46" d="M 628 4666 
L 3309 4666 
L 3309 4134 
L 1259 4134 
L 1259 2759 
L 3109 2759 
L 3109 2228 
L 1259 2228 
L 1259 0 
L 628 0 
L 628 4666 
z
" transform="scale(0.015625)"/>
       <path id="DejaVuSans-75" d="M 544 1381 
L 544 3500 
L 1119 3500 
L 1119 1403 
Q 1119 906 1312 657 
Q 1506 409 1894 409 
Q 2359 409 2629 706 
Q 2900 1003 2900 1516 
L 2900 3500 
L 3475 3500 
L 3475 0 
L 2900 0 
L 2900 538 
Q 2691 219 2414 64 
Q 2138 -91 1772 -91 
Q 1169 -91 856 284 
Q 544 659 544 1381 
z
M 1991 3584 
L 1991 3584 
z
" transform="scale(0.015625)"/>
       <path id="DejaVuSans-66" d="M 2375 4863 
L 2375 4384 
L 1825 4384 
Q 1516 4384 1395 4259 
Q 1275 4134 1275 3809 
L 1275 3500 
L 2222 3500 
L 2222 3053 
L 1275 3053 
L 1275 0 
L 697 0 
L 697 3053 
L 147 3053 
L 147 3500 
L 697 3500 
L 697 3744 
Q 697 4328 969 4595 
Q 1241 4863 1831 4863 
L 2375 4863 
z
" transform="scale(0.015625)"/>
      </defs>
      <use xlink:href="#DejaVuSans-46"/>
      <use xlink:href="#DejaVuSans-75" x="52.019531"/>
      <use xlink:href="#DejaVuSans-6c" x="115.398438"/>
      <use xlink:href="#DejaVuSans-6c" x="143.181641"/>
      <use xlink:href="#DejaVuSans-20" x="170.964844"/>
      <use xlink:href="#DejaVuSans-66" x="202.751953"/>
      <use xlink:href="#DejaVuSans-75" x="237.957031"/>
      <use xlink:href="#DejaVuSans-73" x="301.335938"/>
      <use xlink:href="#DejaVuSans-69" x="353.435547"/>
      <use xlink:href="#DejaVuSans-6f" x="381.21875"/>
      <use xlink:href="#DejaVuSans-6e" x="442.400391"/>
     </g>
    </g>
    <g id="line2d_36">
     <path d="M 292.455671 140.930938 
L 302.455671 140.930938 
L 312.455671 140.930938 
" style="fill: none; stroke: #000000; stroke-width: 1.5; stroke-linecap: square"/>
    </g>
    <g id="text_19">
     <!-- True Position -->
     <g transform="translate(320.455671 144.430938)scale(0.1 -0.1)">
      <defs>
       <path id="DejaVuSans-54" d="M -19 4666 
L 3928 4666 
L 3928 4134 
L 2272 4134 
L 2272 0 
L 1638 0 
L 1638 4134 
L -19 4134 
L -19 4666 
z
" transform="scale(0.015625)"/>
      </defs>
      <use xlink:href="#DejaVuSans-54"/>
      <use xlink:href="#DejaVuSans-72" x="46.333984"/>
      <use xlink:href="#DejaVuSans-75" x="87.447266"/>
      <use xlink:href="#DejaVuSans-65" x="150.826172"/>
      <use xlink:href="#DejaVuSans-20" x="212.349609"/>
      <use xlink:href="#DejaVuSans-50" x="244.136719"/>
      <use xlink:href="#DejaVuSans-6f" x="300.814453"/>
      <use xlink:href="#DejaVuSans-73" x="361.996094"/>
      <use xlink:href="#DejaVuSans-69" x="414.095703"/>
      <use xlink:href="#DejaVuSans-74" x="441.878906"/>
      <use xlink:href="#DejaVuSans-69" x="481.087891"/>
      <use xlink:href="#DejaVuSans-6f" x="508.871094"/>
      <use xlink:href="#DejaVuSans-6e" x="570.052734"/>
     </g>
    </g>
   </g>
  </g>
  <g id="axes_2">
   <g id="patch_8">
    <path d="M 108 512.64 
L 412.363636 512.64 
L 412.363636 311.04 
L 108 311.04 
z
" style="fill: #ffffff"/>
   </g>
   <g id="matplotlib.axis_3">
    <g id="xtick_8">
     <g id="line2d_37">
      <path d="M 121.834711 512.64 
L 121.834711 311.04 
" clip-path="url(#p9701065067)" style="fill: none; stroke: #b0b0b0; stroke-width: 0.8; stroke-linecap: square"/>
     </g>
     <g id="line2d_38">
      <g>
       <use xlink:href="#mec630c6eff" x="121.834711" y="512.64" style="stroke: #000000; stroke-width: 0.8"/>
      </g>
     </g>
     <g id="text_20">
      <!-- 0 -->
      <g transform="translate(118.653461 527.238438)scale(0.1 -0.1)">
       <use xlink:href="#DejaVuSans-30"/>
      </g>
     </g>
    </g>
    <g id="xtick_9">
     <g id="line2d_39">
      <path d="M 167.950413 512.64 
L 167.950413 311.04 
" clip-path="url(#p9701065067)" style="fill: none; stroke: #b0b0b0; stroke-width: 0.8; stroke-linecap: square"/>
     </g>
     <g id="line2d_40">
      <g>
       <use xlink:href="#mec630c6eff" x="167.950413" y="512.64" style="stroke: #000000; stroke-width: 0.8"/>
      </g>
     </g>
     <g id="text_21">
      <!-- 10 -->
      <g transform="translate(161.587913 527.238438)scale(0.1 -0.1)">
       <use xlink:href="#DejaVuSans-31"/>
       <use xlink:href="#DejaVuSans-30" x="63.623047"/>
      </g>
     </g>
    </g>
    <g id="xtick_10">
     <g id="line2d_41">
      <path d="M 214.066116 512.64 
L 214.066116 311.04 
" clip-path="url(#p9701065067)" style="fill: none; stroke: #b0b0b0; stroke-width: 0.8; stroke-linecap: square"/>
     </g>
     <g id="line2d_42">
      <g>
       <use xlink:href="#mec630c6eff" x="214.066116" y="512.64" style="stroke: #000000; stroke-width: 0.8"/>
      </g>
     </g>
     <g id="text_22">
      <!-- 20 -->
      <g transform="translate(207.703616 527.238438)scale(0.1 -0.1)">
       <use xlink:href="#DejaVuSans-32"/>
       <use xlink:href="#DejaVuSans-30" x="63.623047"/>
      </g>
     </g>
    </g>
    <g id="xtick_11">
     <g id="line2d_43">
      <path d="M 260.181818 512.64 
L 260.181818 311.04 
" clip-path="url(#p9701065067)" style="fill: none; stroke: #b0b0b0; stroke-width: 0.8; stroke-linecap: square"/>
     </g>
     <g id="line2d_44">
      <g>
       <use xlink:href="#mec630c6eff" x="260.181818" y="512.64" style="stroke: #000000; stroke-width: 0.8"/>
      </g>
     </g>
     <g id="text_23">
      <!-- 30 -->
      <g transform="translate(253.819318 527.238438)scale(0.1 -0.1)">
       <use xlink:href="#DejaVuSans-33"/>
       <use xlink:href="#DejaVuSans-30" x="63.623047"/>
      </g>
     </g>
    </g>
    <g id="xtick_12">
     <g id="line2d_45">
      <path d="M 306.297521 512.64 
L 306.297521 311.04 
" clip-path="url(#p9701065067)" style="fill: none; stroke: #b0b0b0; stroke-width: 0.8; stroke-linecap: square"/>
     </g>
     <g id="line2d_46">
      <g>
       <use xlink:href="#mec630c6eff" x="306.297521" y="512.64" style="stroke: #000000; stroke-width: 0.8"/>
      </g>
     </g>
     <g id="text_24">
      <!-- 40 -->
      <g transform="translate(299.935021 527.238438)scale(0.1 -0.1)">
       <defs>
        <path id="DejaVuSans-34" d="M 2419 4116 
L 825 1625 
L 2419 1625 
L 2419 4116 
z
M 2253 4666 
L 3047 4666 
L 3047 1625 
L 3713 1625 
L 3713 1100 
L 3047 1100 
L 3047 0 
L 2419 0 
L 2419 1100 
L 313 1100 
L 313 1709 
L 2253 4666 
z
" transform="scale(0.015625)"/>
       </defs>
       <use xlink:href="#DejaVuSans-34"/>
       <use xlink:href="#DejaVuSans-30" x="63.623047"/>
      </g>
     </g>
    </g>
    <g id="xtick_13">
     <g id="line2d_47">
      <path d="M 352.413223 512.64 
L 352.413223 311.04 
" clip-path="url(#p9701065067)" style="fill: none; stroke: #b0b0b0; stroke-width: 0.8; stroke-linecap: square"/>
     </g>
     <g id="line2d_48">
      <g>
       <use xlink:href="#mec630c6eff" x="352.413223" y="512.64" style="stroke: #000000; stroke-width: 0.8"/>
      </g>
     </g>
     <g id="text_25">
      <!-- 50 -->
      <g transform="translate(346.050723 527.238438)scale(0.1 -0.1)">
       <use xlink:href="#DejaVuSans-35"/>
       <use xlink:href="#DejaVuSans-30" x="63.623047"/>
      </g>
     </g>
    </g>
    <g id="xtick_14">
     <g id="line2d_49">
      <path d="M 398.528926 512.64 
L 398.528926 311.04 
" clip-path="url(#p9701065067)" style="fill: none; stroke: #b0b0b0; stroke-width: 0.8; stroke-linecap: square"/>
     </g>
     <g id="line2d_50">
      <g>
       <use xlink:href="#mec630c6eff" x="398.528926" y="512.64" style="stroke: #000000; stroke-width: 0.8"/>
      </g>
     </g>
     <g id="text_26">
      <!-- 60 -->
      <g transform="translate(392.166426 527.238438)scale(0.1 -0.1)">
       <defs>
        <path id="DejaVuSans-36" d="M 2113 2584 
Q 1688 2584 1439 2293 
Q 1191 2003 1191 1497 
Q 1191 994 1439 701 
Q 1688 409 2113 409 
Q 2538 409 2786 701 
Q 3034 994 3034 1497 
Q 3034 2003 2786 2293 
Q 2538 2584 2113 2584 
z
M 3366 4563 
L 3366 3988 
Q 3128 4100 2886 4159 
Q 2644 4219 2406 4219 
Q 1781 4219 1451 3797 
Q 1122 3375 1075 2522 
Q 1259 2794 1537 2939 
Q 1816 3084 2150 3084 
Q 2853 3084 3261 2657 
Q 3669 2231 3669 1497 
Q 3669 778 3244 343 
Q 2819 -91 2113 -91 
Q 1303 -91 875 529 
Q 447 1150 447 2328 
Q 447 3434 972 4092 
Q 1497 4750 2381 4750 
Q 2619 4750 2861 4703 
Q 3103 4656 3366 4563 
z
" transform="scale(0.015625)"/>
       </defs>
       <use xlink:href="#DejaVuSans-36"/>
       <use xlink:href="#DejaVuSans-30" x="63.623047"/>
      </g>
     </g>
    </g>
   </g>
   <g id="matplotlib.axis_4">
    <g id="ytick_7">
     <g id="line2d_51">
      <path d="M 108 491.078033 
L 412.363636 491.078033 
" clip-path="url(#p9701065067)" style="fill: none; stroke: #b0b0b0; stroke-width: 0.8; stroke-linecap: square"/>
     </g>
     <g id="line2d_52">
      <g>
       <use xlink:href="#m731de356db" x="108" y="491.078033" style="stroke: #000000; stroke-width: 0.8"/>
      </g>
     </g>
     <g id="text_27">
      <!-- −1.0 -->
      <g transform="translate(76.717187 494.877252)scale(0.1 -0.1)">
       <defs>
        <path id="DejaVuSans-2e" d="M 684 794 
L 1344 794 
L 1344 0 
L 684 0 
L 684 794 
z
" transform="scale(0.015625)"/>
       </defs>
       <use xlink:href="#DejaVuSans-2212"/>
       <use xlink:href="#DejaVuSans-31" x="83.789062"/>
       <use xlink:href="#DejaVuSans-2e" x="147.412109"/>
       <use xlink:href="#DejaVuSans-30" x="179.199219"/>
      </g>
     </g>
    </g>
    <g id="ytick_8">
     <g id="line2d_53">
      <path d="M 108 463.507629 
L 412.363636 463.507629 
" clip-path="url(#p9701065067)" style="fill: none; stroke: #b0b0b0; stroke-width: 0.8; stroke-linecap: square"/>
     </g>
     <g id="line2d_54">
      <g>
       <use xlink:href="#m731de356db" x="108" y="463.507629" style="stroke: #000000; stroke-width: 0.8"/>
      </g>
     </g>
     <g id="text_28">
      <!-- −0.8 -->
      <g transform="translate(76.717187 467.306848)scale(0.1 -0.1)">
       <defs>
        <path id="DejaVuSans-38" d="M 2034 2216 
Q 1584 2216 1326 1975 
Q 1069 1734 1069 1313 
Q 1069 891 1326 650 
Q 1584 409 2034 409 
Q 2484 409 2743 651 
Q 3003 894 3003 1313 
Q 3003 1734 2745 1975 
Q 2488 2216 2034 2216 
z
M 1403 2484 
Q 997 2584 770 2862 
Q 544 3141 544 3541 
Q 544 4100 942 4425 
Q 1341 4750 2034 4750 
Q 2731 4750 3128 4425 
Q 3525 4100 3525 3541 
Q 3525 3141 3298 2862 
Q 3072 2584 2669 2484 
Q 3125 2378 3379 2068 
Q 3634 1759 3634 1313 
Q 3634 634 3220 271 
Q 2806 -91 2034 -91 
Q 1263 -91 848 271 
Q 434 634 434 1313 
Q 434 1759 690 2068 
Q 947 2378 1403 2484 
z
M 1172 3481 
Q 1172 3119 1398 2916 
Q 1625 2713 2034 2713 
Q 2441 2713 2670 2916 
Q 2900 3119 2900 3481 
Q 2900 3844 2670 4047 
Q 2441 4250 2034 4250 
Q 1625 4250 1398 4047 
Q 1172 3844 1172 3481 
z
" transform="scale(0.015625)"/>
       </defs>
       <use xlink:href="#DejaVuSans-2212"/>
       <use xlink:href="#DejaVuSans-30" x="83.789062"/>
       <use xlink:href="#DejaVuSans-2e" x="147.412109"/>
       <use xlink:href="#DejaVuSans-38" x="179.199219"/>
      </g>
     </g>
    </g>
    <g id="ytick_9">
     <g id="line2d_55">
      <path d="M 108 435.937225 
L 412.363636 435.937225 
" clip-path="url(#p9701065067)" style="fill: none; stroke: #b0b0b0; stroke-width: 0.8; stroke-linecap: square"/>
     </g>
     <g id="line2d_56">
      <g>
       <use xlink:href="#m731de356db" x="108" y="435.937225" style="stroke: #000000; stroke-width: 0.8"/>
      </g>
     </g>
     <g id="text_29">
      <!-- −0.6 -->
      <g transform="translate(76.717187 439.736443)scale(0.1 -0.1)">
       <use xlink:href="#DejaVuSans-2212"/>
       <use xlink:href="#DejaVuSans-30" x="83.789062"/>
       <use xlink:href="#DejaVuSans-2e" x="147.412109"/>
       <use xlink:href="#DejaVuSans-36" x="179.199219"/>
      </g>
     </g>
    </g>
    <g id="ytick_10">
     <g id="line2d_57">
      <path d="M 108 408.366821 
L 412.363636 408.366821 
" clip-path="url(#p9701065067)" style="fill: none; stroke: #b0b0b0; stroke-width: 0.8; stroke-linecap: square"/>
     </g>
     <g id="line2d_58">
      <g>
       <use xlink:href="#m731de356db" x="108" y="408.366821" style="stroke: #000000; stroke-width: 0.8"/>
      </g>
     </g>
     <g id="text_30">
      <!-- −0.4 -->
      <g transform="translate(76.717187 412.166039)scale(0.1 -0.1)">
       <use xlink:href="#DejaVuSans-2212"/>
       <use xlink:href="#DejaVuSans-30" x="83.789062"/>
       <use xlink:href="#DejaVuSans-2e" x="147.412109"/>
       <use xlink:href="#DejaVuSans-34" x="179.199219"/>
      </g>
     </g>
    </g>
    <g id="ytick_11">
     <g id="line2d_59">
      <path d="M 108 380.796416 
L 412.363636 380.796416 
" clip-path="url(#p9701065067)" style="fill: none; stroke: #b0b0b0; stroke-width: 0.8; stroke-linecap: square"/>
     </g>
     <g id="line2d_60">
      <g>
       <use xlink:href="#m731de356db" x="108" y="380.796416" style="stroke: #000000; stroke-width: 0.8"/>
      </g>
     </g>
     <g id="text_31">
      <!-- −0.2 -->
      <g transform="translate(76.717187 384.595635)scale(0.1 -0.1)">
       <use xlink:href="#DejaVuSans-2212"/>
       <use xlink:href="#DejaVuSans-30" x="83.789062"/>
       <use xlink:href="#DejaVuSans-2e" x="147.412109"/>
       <use xlink:href="#DejaVuSans-32" x="179.199219"/>
      </g>
     </g>
    </g>
    <g id="ytick_12">
     <g id="line2d_61">
      <path d="M 108 353.226012 
L 412.363636 353.226012 
" clip-path="url(#p9701065067)" style="fill: none; stroke: #b0b0b0; stroke-width: 0.8; stroke-linecap: square"/>
     </g>
     <g id="line2d_62">
      <g>
       <use xlink:href="#m731de356db" x="108" y="353.226012" style="stroke: #000000; stroke-width: 0.8"/>
      </g>
     </g>
     <g id="text_32">
      <!-- 0.0 -->
      <g transform="translate(85.096875 357.025231)scale(0.1 -0.1)">
       <use xlink:href="#DejaVuSans-30"/>
       <use xlink:href="#DejaVuSans-2e" x="63.623047"/>
       <use xlink:href="#DejaVuSans-30" x="95.410156"/>
      </g>
     </g>
    </g>
    <g id="ytick_13">
     <g id="line2d_63">
      <path d="M 108 325.655608 
L 412.363636 325.655608 
" clip-path="url(#p9701065067)" style="fill: none; stroke: #b0b0b0; stroke-width: 0.8; stroke-linecap: square"/>
     </g>
     <g id="line2d_64">
      <g>
       <use xlink:href="#m731de356db" x="108" y="325.655608" style="stroke: #000000; stroke-width: 0.8"/>
      </g>
     </g>
     <g id="text_33">
      <!-- 0.2 -->
      <g transform="translate(85.096875 329.454827)scale(0.1 -0.1)">
       <use xlink:href="#DejaVuSans-30"/>
       <use xlink:href="#DejaVuSans-2e" x="63.623047"/>
       <use xlink:href="#DejaVuSans-32" x="95.410156"/>
      </g>
     </g>
    </g>
    <g id="text_34">
     <!-- Heading -->
     <g transform="translate(70.6375 432.647031)rotate(-90)scale(0.1 -0.1)">
      <defs>
       <path id="DejaVuSans-48" d="M 628 4666 
L 1259 4666 
L 1259 2753 
L 3553 2753 
L 3553 4666 
L 4184 4666 
L 4184 0 
L 3553 0 
L 3553 2222 
L 1259 2222 
L 1259 0 
L 628 0 
L 628 4666 
z
" transform="scale(0.015625)"/>
       <path id="DejaVuSans-64" d="M 2906 2969 
L 2906 4863 
L 3481 4863 
L 3481 0 
L 2906 0 
L 2906 525 
Q 2725 213 2448 61 
Q 2172 -91 1784 -91 
Q 1150 -91 751 415 
Q 353 922 353 1747 
Q 353 2572 751 3078 
Q 1150 3584 1784 3584 
Q 2172 3584 2448 3432 
Q 2725 3281 2906 2969 
z
M 947 1747 
Q 947 1113 1208 752 
Q 1469 391 1925 391 
Q 2381 391 2643 752 
Q 2906 1113 2906 1747 
Q 2906 2381 2643 2742 
Q 2381 3103 1925 3103 
Q 1469 3103 1208 2742 
Q 947 2381 947 1747 
z
" transform="scale(0.015625)"/>
      </defs>
      <use xlink:href="#DejaVuSans-48"/>
      <use xlink:href="#DejaVuSans-65" x="75.195312"/>
      <use xlink:href="#DejaVuSans-61" x="136.71875"/>
      <use xlink:href="#DejaVuSans-64" x="197.998047"/>
      <use xlink:href="#DejaVuSans-69" x="261.474609"/>
      <use xlink:href="#DejaVuSans-6e" x="289.257812"/>
      <use xlink:href="#DejaVuSans-67" x="352.636719"/>
     </g>
    </g>
   </g>
   <g id="line2d_65">
    <path d="M 121.834711 461.494736 
L 126.446281 461.494736 
L 131.057851 461.377003 
L 135.669421 461.141685 
L 140.280992 460.789081 
L 144.892562 460.319637 
L 149.504132 459.733949 
L 154.115702 459.032757 
L 158.727273 458.216951 
L 163.338843 457.287563 
L 167.950413 456.245771 
L 172.561983 455.092895 
L 177.173554 453.830395 
L 181.785124 452.45987 
L 186.396694 450.983056 
L 191.008264 449.401825 
L 195.619835 447.718179 
L 200.231405 445.934251 
L 204.842975 444.0523 
L 209.454545 442.074711 
L 214.066116 440.003989 
L 218.677686 437.842756 
L 223.289256 435.593751 
L 227.900826 433.259823 
L 232.512397 430.843927 
L 237.123967 428.349125 
L 241.735537 425.778576 
L 246.347107 423.135537 
L 250.958678 420.423355 
L 255.570248 417.645467 
L 260.181818 414.805392 
L 264.793388 411.906726 
L 269.404959 408.953142 
L 274.016529 405.948382 
L 278.628099 402.896251 
L 283.239669 399.800616 
L 287.85124 396.665397 
L 292.46281 393.494568 
L 297.07438 390.292144 
L 301.68595 387.062182 
L 306.297521 383.808773 
L 310.909091 380.536039 
L 315.520661 377.248126 
L 320.132231 373.949197 
L 324.743802 370.643434 
L 329.355372 367.335021 
L 333.966942 364.028152 
L 338.578512 360.727015 
L 343.190083 357.43579 
L 347.801653 354.158649 
L 352.413223 350.899741 
L 357.024793 347.663195 
L 361.636364 344.453111 
L 366.247934 341.273555 
L 370.859504 338.128556 
L 375.471074 335.022096 
L 380.082645 331.958111 
L 384.694215 328.940482 
L 389.305785 325.973032 
L 393.917355 323.05952 
L 398.528926 320.203636 
" clip-path="url(#p9701065067)" style="fill: none; stroke: #1f77b4; stroke-width: 1.5; stroke-linecap: square"/>
   </g>
   <g id="line2d_66">
    <path d="M 121.834711 461.494736 
L 126.446281 461.494736 
L 131.057851 470.804811 
L 135.669421 470.569494 
L 140.280992 503.476364 
L 144.892562 503.00692 
L 149.504132 442.434603 
L 154.115702 441.733411 
L 158.727273 454.54475 
L 163.338843 453.615363 
L 167.950413 472.106119 
L 172.561983 470.953243 
L 177.173554 480.090988 
L 181.785124 478.720463 
L 186.396694 467.548253 
L 191.008264 465.967021 
L 195.619835 468.595228 
L 200.231405 466.8113 
L 204.842975 488.993267 
L 209.454545 487.015678 
L 214.066116 502.649574 
L 218.677686 500.488342 
L 223.289256 496.340545 
L 227.900826 494.006616 
L 232.512397 471.520067 
L 237.123967 469.025265 
L 241.735537 471.252364 
L 246.347107 468.609324 
L 250.958678 472.486852 
L 255.570248 469.708964 
L 260.181818 479.923931 
L 264.793388 477.025265 
L 269.404959 486.953821 
L 274.016529 483.949061 
L 278.628099 469.656872 
L 283.239669 466.561236 
L 287.85124 478.605147 
L 292.46281 475.434317 
L 297.07438 487.659466 
L 301.68595 484.429504 
L 306.297521 460.831501 
L 310.909091 457.558767 
L 315.520661 437.51019 
L 320.132231 434.211261 
L 324.743802 462.632048 
L 329.355372 459.323636 
L 333.966942 436.94299 
L 338.578512 433.641852 
L 343.190083 408.041772 
L 347.801653 404.764631 
L 352.413223 400.270558 
L 357.024793 397.034012 
L 361.636364 396.007561 
L 366.247934 392.828006 
L 370.859504 365.571413 
L 375.471074 362.464953 
L 380.082645 378.13337 
L 384.694215 375.115741 
L 389.305785 369.441986 
L 393.917355 366.528474 
L 398.528926 357.306464 
" clip-path="url(#p9701065067)" style="fill: none; stroke: #ff7f0e; stroke-width: 1.5; stroke-linecap: square"/>
   </g>
   <g id="line2d_67">
    <path d="M 121.834711 461.494736 
L 126.446281 461.494736 
L 131.057851 461.377003 
L 135.669421 461.141685 
L 140.280992 460.789081 
L 144.892562 460.319637 
L 149.504132 459.733949 
L 154.115702 459.032757 
L 158.727273 458.216951 
L 163.338843 457.287563 
L 167.950413 451.957142 
L 172.561983 450.804266 
L 177.173554 449.541766 
L 181.785124 448.171241 
L 186.396694 446.694428 
L 191.008264 445.113196 
L 195.619835 443.42955 
L 200.231405 441.645622 
L 204.842975 439.763671 
L 209.454545 437.786082 
L 214.066116 454.921759 
L 218.677686 452.760526 
L 223.289256 450.511521 
L 227.900826 448.177593 
L 232.512397 445.761697 
L 237.123967 443.266895 
L 241.735537 440.696346 
L 246.347107 438.053307 
L 250.958678 435.341125 
L 255.570248 432.563238 
L 260.181818 462.282545 
L 264.793388 459.38388 
L 269.404959 456.430296 
L 274.016529 453.425535 
L 278.628099 450.373404 
L 283.239669 447.277769 
L 287.85124 444.142551 
L 292.46281 440.971721 
L 297.07438 437.769297 
L 301.68595 434.539335 
L 306.297521 405.48771 
L 310.909091 402.214976 
L 315.520661 398.927063 
L 320.132231 395.628134 
L 324.743802 392.322371 
L 329.355372 389.013958 
L 333.966942 385.707089 
L 338.578512 382.405952 
L 343.190083 379.114727 
L 347.801653 375.837586 
L 352.413223 385.617952 
L 357.024793 382.381406 
L 361.636364 379.171322 
L 366.247934 375.991766 
L 370.859504 372.846767 
L 375.471074 369.740307 
L 380.082645 366.676322 
L 384.694215 363.658693 
L 389.305785 360.691243 
L 393.917355 357.777731 
L 398.528926 372.580495 
" clip-path="url(#p9701065067)" style="fill: none; stroke: #2ca02c; stroke-width: 1.5; stroke-linecap: square"/>
   </g>
   <g id="line2d_68">
    <path d="M 121.834711 461.494736 
L 126.446281 461.494736 
L 131.057851 470.804811 
L 135.669421 470.569494 
L 140.280992 503.476364 
L 144.892562 503.00692 
L 149.504132 442.434603 
L 154.115702 441.733411 
L 158.727273 454.54475 
L 163.338843 453.615363 
L 167.950413 461.545136 
L 172.561983 460.39226 
L 177.173554 467.713767 
L 181.785124 466.343242 
L 186.396694 459.168096 
L 191.008264 457.586865 
L 195.619835 460.887412 
L 200.231405 459.103483 
L 204.842975 480.019848 
L 209.454545 478.042259 
L 214.066116 474.53819 
L 218.677686 472.376958 
L 223.289256 472.12917 
L 227.900826 469.795241 
L 232.512397 456.012242 
L 237.123967 453.51744 
L 241.735537 457.107421 
L 246.347107 454.464382 
L 250.958678 459.700092 
L 255.570248 456.922204 
L 260.181818 473.391111 
L 264.793388 470.492445 
L 269.404959 476.278881 
L 274.016529 473.27412 
L 278.628099 463.420743 
L 283.239669 460.325107 
L 287.85124 470.431831 
L 292.46281 467.261002 
L 297.07438 478.772375 
L 301.68595 475.542413 
L 306.297521 412.804256 
L 310.909091 409.531522 
L 315.520661 401.223467 
L 320.132231 397.924539 
L 324.743802 422.639057 
L 329.355372 419.330645 
L 333.966942 406.407489 
L 338.578512 403.106351 
L 343.190083 385.203617 
L 347.801653 381.926476 
L 352.413223 382.847549 
L 357.024793 379.611003 
L 361.636364 379.726429 
L 366.247934 376.546874 
L 370.859504 357.904899 
L 375.471074 354.79844 
L 380.082645 368.091034 
L 384.694215 365.073405 
L 389.305785 361.33198 
L 393.917355 358.418468 
L 398.528926 368.782592 
" clip-path="url(#p9701065067)" style="fill: none; stroke: #d62728; stroke-width: 1.5; stroke-linecap: square"/>
   </g>
   <g id="line2d_69">
    <path d="M 121.834711 461.494736 
L 126.446281 471.421261 
L 131.057851 471.244369 
L 135.669421 484.312677 
L 140.280992 477.823761 
L 144.892562 492.239646 
L 149.504132 487.986126 
L 154.115702 485.918143 
L 158.727273 476.649193 
L 163.338843 482.283519 
L 167.950413 475.724751 
L 172.561983 487.522154 
L 177.173554 489.191734 
L 181.785124 489.853427 
L 186.396694 495.818956 
L 191.008264 461.22625 
L 195.619835 464.535335 
L 200.231405 472.370859 
L 204.842975 456.067066 
L 209.454545 449.687084 
L 214.066116 433.981798 
L 218.677686 442.821279 
L 223.289256 466.160165 
L 227.900826 464.499375 
L 232.512397 489.576601 
L 237.123967 497.474365 
L 241.735537 501.549568 
L 246.347107 497.287103 
L 250.958678 488.099303 
L 255.570248 473.628688 
L 260.181818 466.750365 
L 264.793388 469.903765 
L 269.404959 489.262506 
L 274.016529 452.272741 
L 278.628099 435.125019 
L 283.239669 435.199245 
L 287.85124 427.737809 
L 292.46281 424.16294 
L 297.07438 424.925545 
L 301.68595 416.48818 
L 306.297521 418.593465 
L 310.909091 408.517523 
L 315.520661 414.976732 
L 320.132231 394.885376 
L 324.743802 382.448652 
L 329.355372 390.049722 
L 333.966942 410.330315 
L 338.578512 416.855262 
L 343.190083 405.248817 
L 347.801653 411.331093 
L 352.413223 377.399427 
L 357.024793 369.290121 
L 361.636364 367.776579 
L 366.247934 378.689783 
L 370.859504 373.709456 
L 375.471074 386.186826 
L 380.082645 382.733721 
L 384.694215 361.21388 
L 389.305785 367.510409 
L 393.917355 357.660332 
L 398.528926 343.020461 
" clip-path="url(#p9701065067)" style="fill: none; stroke: #000000; stroke-width: 1.5; stroke-linecap: square"/>
   </g>
   <g id="patch_9">
    <path d="M 108 512.64 
L 108 311.04 
" style="fill: none; stroke: #000000; stroke-width: 0.8; stroke-linejoin: miter; stroke-linecap: square"/>
   </g>
   <g id="patch_10">
    <path d="M 412.363636 512.64 
L 412.363636 311.04 
" style="fill: none; stroke: #000000; stroke-width: 0.8; stroke-linejoin: miter; stroke-linecap: square"/>
   </g>
   <g id="patch_11">
    <path d="M 108 512.64 
L 412.363636 512.64 
" style="fill: none; stroke: #000000; stroke-width: 0.8; stroke-linejoin: miter; stroke-linecap: square"/>
   </g>
   <g id="patch_12">
    <path d="M 108 311.04 
L 412.363636 311.04 
" style="fill: none; stroke: #000000; stroke-width: 0.8; stroke-linejoin: miter; stroke-linecap: square"/>
   </g>
  </g>
  <g id="axes_3">
   <g id="patch_13">
    <path d="M 473.236364 270.72 
L 777.6 270.72 
L 777.6 69.12 
L 473.236364 69.12 
z
" style="fill: #ffffff"/>
   </g>
   <g id="matplotlib.axis_5">
    <g id="xtick_15">
     <g id="line2d_70">
      <path d="M 487.071074 270.72 
L 487.071074 69.12 
" clip-path="url(#p78ee8a8c66)" style="fill: none; stroke: #b0b0b0; stroke-width: 0.8; stroke-linecap: square"/>
     </g>
     <g id="line2d_71">
      <g>
       <use xlink:href="#mec630c6eff" x="487.071074" y="270.72" style="stroke: #000000; stroke-width: 0.8"/>
      </g>
     </g>
     <g id="text_35">
      <!-- 0 -->
      <g transform="translate(483.889824 285.318437)scale(0.1 -0.1)">
       <use xlink:href="#DejaVuSans-30"/>
      </g>
     </g>
    </g>
    <g id="xtick_16">
     <g id="line2d_72">
      <path d="M 533.186777 270.72 
L 533.186777 69.12 
" clip-path="url(#p78ee8a8c66)" style="fill: none; stroke: #b0b0b0; stroke-width: 0.8; stroke-linecap: square"/>
     </g>
     <g id="line2d_73">
      <g>
       <use xlink:href="#mec630c6eff" x="533.186777" y="270.72" style="stroke: #000000; stroke-width: 0.8"/>
      </g>
     </g>
     <g id="text_36">
      <!-- 10 -->
      <g transform="translate(526.824277 285.318437)scale(0.1 -0.1)">
       <use xlink:href="#DejaVuSans-31"/>
       <use xlink:href="#DejaVuSans-30" x="63.623047"/>
      </g>
     </g>
    </g>
    <g id="xtick_17">
     <g id="line2d_74">
      <path d="M 579.302479 270.72 
L 579.302479 69.12 
" clip-path="url(#p78ee8a8c66)" style="fill: none; stroke: #b0b0b0; stroke-width: 0.8; stroke-linecap: square"/>
     </g>
     <g id="line2d_75">
      <g>
       <use xlink:href="#mec630c6eff" x="579.302479" y="270.72" style="stroke: #000000; stroke-width: 0.8"/>
      </g>
     </g>
     <g id="text_37">
      <!-- 20 -->
      <g transform="translate(572.939979 285.318437)scale(0.1 -0.1)">
       <use xlink:href="#DejaVuSans-32"/>
       <use xlink:href="#DejaVuSans-30" x="63.623047"/>
      </g>
     </g>
    </g>
    <g id="xtick_18">
     <g id="line2d_76">
      <path d="M 625.418182 270.72 
L 625.418182 69.12 
" clip-path="url(#p78ee8a8c66)" style="fill: none; stroke: #b0b0b0; stroke-width: 0.8; stroke-linecap: square"/>
     </g>
     <g id="line2d_77">
      <g>
       <use xlink:href="#mec630c6eff" x="625.418182" y="270.72" style="stroke: #000000; stroke-width: 0.8"/>
      </g>
     </g>
     <g id="text_38">
      <!-- 30 -->
      <g transform="translate(619.055682 285.318437)scale(0.1 -0.1)">
       <use xlink:href="#DejaVuSans-33"/>
       <use xlink:href="#DejaVuSans-30" x="63.623047"/>
      </g>
     </g>
    </g>
    <g id="xtick_19">
     <g id="line2d_78">
      <path d="M 671.533884 270.72 
L 671.533884 69.12 
" clip-path="url(#p78ee8a8c66)" style="fill: none; stroke: #b0b0b0; stroke-width: 0.8; stroke-linecap: square"/>
     </g>
     <g id="line2d_79">
      <g>
       <use xlink:href="#mec630c6eff" x="671.533884" y="270.72" style="stroke: #000000; stroke-width: 0.8"/>
      </g>
     </g>
     <g id="text_39">
      <!-- 40 -->
      <g transform="translate(665.171384 285.318437)scale(0.1 -0.1)">
       <use xlink:href="#DejaVuSans-34"/>
       <use xlink:href="#DejaVuSans-30" x="63.623047"/>
      </g>
     </g>
    </g>
    <g id="xtick_20">
     <g id="line2d_80">
      <path d="M 717.649587 270.72 
L 717.649587 69.12 
" clip-path="url(#p78ee8a8c66)" style="fill: none; stroke: #b0b0b0; stroke-width: 0.8; stroke-linecap: square"/>
     </g>
     <g id="line2d_81">
      <g>
       <use xlink:href="#mec630c6eff" x="717.649587" y="270.72" style="stroke: #000000; stroke-width: 0.8"/>
      </g>
     </g>
     <g id="text_40">
      <!-- 50 -->
      <g transform="translate(711.287087 285.318437)scale(0.1 -0.1)">
       <use xlink:href="#DejaVuSans-35"/>
       <use xlink:href="#DejaVuSans-30" x="63.623047"/>
      </g>
     </g>
    </g>
    <g id="xtick_21">
     <g id="line2d_82">
      <path d="M 763.765289 270.72 
L 763.765289 69.12 
" clip-path="url(#p78ee8a8c66)" style="fill: none; stroke: #b0b0b0; stroke-width: 0.8; stroke-linecap: square"/>
     </g>
     <g id="line2d_83">
      <g>
       <use xlink:href="#mec630c6eff" x="763.765289" y="270.72" style="stroke: #000000; stroke-width: 0.8"/>
      </g>
     </g>
     <g id="text_41">
      <!-- 60 -->
      <g transform="translate(757.402789 285.318437)scale(0.1 -0.1)">
       <use xlink:href="#DejaVuSans-36"/>
       <use xlink:href="#DejaVuSans-30" x="63.623047"/>
      </g>
     </g>
    </g>
   </g>
   <g id="matplotlib.axis_6">
    <g id="ytick_14">
     <g id="line2d_84">
      <path d="M 473.236364 262.557732 
L 777.6 262.557732 
" clip-path="url(#p78ee8a8c66)" style="fill: none; stroke: #b0b0b0; stroke-width: 0.8; stroke-linecap: square"/>
     </g>
     <g id="line2d_85">
      <g>
       <use xlink:href="#m731de356db" x="473.236364" y="262.557732" style="stroke: #000000; stroke-width: 0.8"/>
      </g>
     </g>
     <g id="text_42">
      <!-- 0 -->
      <g transform="translate(459.873864 266.356951)scale(0.1 -0.1)">
       <use xlink:href="#DejaVuSans-30"/>
      </g>
     </g>
    </g>
    <g id="ytick_15">
     <g id="line2d_86">
      <path d="M 473.236364 220.143731 
L 777.6 220.143731 
" clip-path="url(#p78ee8a8c66)" style="fill: none; stroke: #b0b0b0; stroke-width: 0.8; stroke-linecap: square"/>
     </g>
     <g id="line2d_87">
      <g>
       <use xlink:href="#m731de356db" x="473.236364" y="220.143731" style="stroke: #000000; stroke-width: 0.8"/>
      </g>
     </g>
     <g id="text_43">
      <!-- 5 -->
      <g transform="translate(459.873864 223.94295)scale(0.1 -0.1)">
       <use xlink:href="#DejaVuSans-35"/>
      </g>
     </g>
    </g>
    <g id="ytick_16">
     <g id="line2d_88">
      <path d="M 473.236364 177.72973 
L 777.6 177.72973 
" clip-path="url(#p78ee8a8c66)" style="fill: none; stroke: #b0b0b0; stroke-width: 0.8; stroke-linecap: square"/>
     </g>
     <g id="line2d_89">
      <g>
       <use xlink:href="#m731de356db" x="473.236364" y="177.72973" style="stroke: #000000; stroke-width: 0.8"/>
      </g>
     </g>
     <g id="text_44">
      <!-- 10 -->
      <g transform="translate(453.511364 181.528948)scale(0.1 -0.1)">
       <use xlink:href="#DejaVuSans-31"/>
       <use xlink:href="#DejaVuSans-30" x="63.623047"/>
      </g>
     </g>
    </g>
    <g id="ytick_17">
     <g id="line2d_90">
      <path d="M 473.236364 135.315728 
L 777.6 135.315728 
" clip-path="url(#p78ee8a8c66)" style="fill: none; stroke: #b0b0b0; stroke-width: 0.8; stroke-linecap: square"/>
     </g>
     <g id="line2d_91">
      <g>
       <use xlink:href="#m731de356db" x="473.236364" y="135.315728" style="stroke: #000000; stroke-width: 0.8"/>
      </g>
     </g>
     <g id="text_45">
      <!-- 15 -->
      <g transform="translate(453.511364 139.114947)scale(0.1 -0.1)">
       <use xlink:href="#DejaVuSans-31"/>
       <use xlink:href="#DejaVuSans-35" x="63.623047"/>
      </g>
     </g>
    </g>
    <g id="ytick_18">
     <g id="line2d_92">
      <path d="M 473.236364 92.901727 
L 777.6 92.901727 
" clip-path="url(#p78ee8a8c66)" style="fill: none; stroke: #b0b0b0; stroke-width: 0.8; stroke-linecap: square"/>
     </g>
     <g id="line2d_93">
      <g>
       <use xlink:href="#m731de356db" x="473.236364" y="92.901727" style="stroke: #000000; stroke-width: 0.8"/>
      </g>
     </g>
     <g id="text_46">
      <!-- 20 -->
      <g transform="translate(453.511364 96.700946)scale(0.1 -0.1)">
       <use xlink:href="#DejaVuSans-32"/>
       <use xlink:href="#DejaVuSans-30" x="63.623047"/>
      </g>
     </g>
    </g>
    <g id="text_47">
     <!-- Position Covariance -->
     <g transform="translate(447.431676 219.050469)rotate(-90)scale(0.1 -0.1)">
      <defs>
       <path id="DejaVuSans-43" d="M 4122 4306 
L 4122 3641 
Q 3803 3938 3442 4084 
Q 3081 4231 2675 4231 
Q 1875 4231 1450 3742 
Q 1025 3253 1025 2328 
Q 1025 1406 1450 917 
Q 1875 428 2675 428 
Q 3081 428 3442 575 
Q 3803 722 4122 1019 
L 4122 359 
Q 3791 134 3420 21 
Q 3050 -91 2638 -91 
Q 1578 -91 968 557 
Q 359 1206 359 2328 
Q 359 3453 968 4101 
Q 1578 4750 2638 4750 
Q 3056 4750 3426 4639 
Q 3797 4528 4122 4306 
z
" transform="scale(0.015625)"/>
       <path id="DejaVuSans-76" d="M 191 3500 
L 800 3500 
L 1894 563 
L 2988 3500 
L 3597 3500 
L 2284 0 
L 1503 0 
L 191 3500 
z
" transform="scale(0.015625)"/>
       <path id="DejaVuSans-63" d="M 3122 3366 
L 3122 2828 
Q 2878 2963 2633 3030 
Q 2388 3097 2138 3097 
Q 1578 3097 1268 2742 
Q 959 2388 959 1747 
Q 959 1106 1268 751 
Q 1578 397 2138 397 
Q 2388 397 2633 464 
Q 2878 531 3122 666 
L 3122 134 
Q 2881 22 2623 -34 
Q 2366 -91 2075 -91 
Q 1284 -91 818 406 
Q 353 903 353 1747 
Q 353 2603 823 3093 
Q 1294 3584 2113 3584 
Q 2378 3584 2631 3529 
Q 2884 3475 3122 3366 
z
" transform="scale(0.015625)"/>
      </defs>
      <use xlink:href="#DejaVuSans-50"/>
      <use xlink:href="#DejaVuSans-6f" x="56.677734"/>
      <use xlink:href="#DejaVuSans-73" x="117.859375"/>
      <use xlink:href="#DejaVuSans-69" x="169.958984"/>
      <use xlink:href="#DejaVuSans-74" x="197.742188"/>
      <use xlink:href="#DejaVuSans-69" x="236.951172"/>
      <use xlink:href="#DejaVuSans-6f" x="264.734375"/>
      <use xlink:href="#DejaVuSans-6e" x="325.916016"/>
      <use xlink:href="#DejaVuSans-20" x="389.294922"/>
      <use xlink:href="#DejaVuSans-43" x="421.082031"/>
      <use xlink:href="#DejaVuSans-6f" x="490.90625"/>
      <use xlink:href="#DejaVuSans-76" x="552.087891"/>
      <use xlink:href="#DejaVuSans-61" x="611.267578"/>
      <use xlink:href="#DejaVuSans-72" x="672.546875"/>
      <use xlink:href="#DejaVuSans-69" x="713.660156"/>
      <use xlink:href="#DejaVuSans-61" x="741.443359"/>
      <use xlink:href="#DejaVuSans-6e" x="802.722656"/>
      <use xlink:href="#DejaVuSans-63" x="866.101562"/>
      <use xlink:href="#DejaVuSans-65" x="921.082031"/>
     </g>
    </g>
   </g>
   <g id="line2d_94">
    <path d="M 487.071074 252.469926 
L 491.682645 252.049937 
L 496.294215 251.226112 
L 500.905785 250.063505 
L 505.517355 248.633637 
L 510.128926 246.998295 
L 514.740496 245.204944 
L 519.352066 243.288141 
L 523.963636 241.272577 
L 528.575207 239.175875 
L 533.186777 237.01072 
L 537.798347 234.786354 
L 542.409917 232.509592 
L 547.021488 230.185514 
L 551.633058 227.81794 
L 556.244628 225.409749 
L 560.856198 222.963109 
L 565.467769 220.479632 
L 570.079339 217.96049 
L 574.690909 215.406495 
L 579.302479 212.818163 
L 583.91405 210.195759 
L 588.52562 207.539336 
L 593.13719 204.84876 
L 597.74876 202.123739 
L 602.360331 199.363843 
L 606.971901 196.568528 
L 611.583471 193.73715 
L 616.195041 190.868991 
L 620.806612 187.963276 
L 625.418182 185.019193 
L 630.029752 182.035915 
L 634.641322 179.01262 
L 639.252893 175.948516 
L 643.864463 172.842857 
L 648.476033 169.694971 
L 653.087603 166.504274 
L 657.699174 163.270295 
L 662.310744 159.992692 
L 666.922314 156.67127 
L 671.533884 153.305992 
L 676.145455 149.896997 
L 680.757025 146.444602 
L 685.368595 142.949314 
L 689.980165 139.411832 
L 694.591736 135.833045 
L 699.203306 132.214033 
L 703.814876 128.556056 
L 708.426446 124.860551 
L 713.038017 121.129117 
L 717.649587 117.363503 
L 722.261157 113.565593 
L 726.872727 109.737385 
L 731.484298 105.880976 
L 736.095868 101.998541 
L 740.707438 98.092312 
L 745.319008 94.164554 
L 749.930579 90.21755 
L 754.542149 86.253573 
L 759.153719 82.274869 
L 763.765289 78.283636 
" clip-path="url(#p78ee8a8c66)" style="fill: none; stroke: #1f77b4; stroke-width: 1.5; stroke-linecap: square"/>
   </g>
   <g id="line2d_95">
    <path d="M 487.071074 252.469926 
L 491.682645 252.049937 
L 496.294215 251.502502 
L 500.905785 250.657715 
L 505.517355 250.10685 
L 510.128926 249.160589 
L 514.740496 248.6841 
L 519.352066 247.741531 
L 523.963636 247.359671 
L 528.575207 246.407283 
L 533.186777 246.058927 
L 537.798347 245.125666 
L 542.409917 244.815377 
L 547.021488 243.911395 
L 551.633058 243.635316 
L 556.244628 242.761351 
L 560.856198 242.51545 
L 565.467769 241.670755 
L 570.079339 241.446891 
L 574.690909 240.630296 
L 579.302479 240.421533 
L 583.91405 239.630983 
L 588.52562 239.435239 
L 593.13719 238.658471 
L 597.74876 238.471329 
L 602.360331 237.72612 
L 606.971901 237.562633 
L 611.583471 236.839651 
L 616.195041 236.684141 
L 620.806612 235.980764 
L 625.418182 235.83123 
L 630.029752 235.142767 
L 634.641322 234.995392 
L 639.252893 234.321585 
L 643.864463 234.177455 
L 648.476033 233.528926 
L 653.087603 233.400146 
L 657.699174 232.76209 
L 662.310744 232.631351 
L 666.922314 232.004381 
L 671.533884 231.874048 
L 676.145455 231.277513 
L 680.757025 231.167707 
L 685.368595 230.611491 
L 689.980165 230.522569 
L 694.591736 229.952208 
L 699.203306 229.837144 
L 703.814876 229.298716 
L 708.426446 229.203187 
L 713.038017 228.707184 
L 717.649587 228.632897 
L 722.261157 228.144085 
L 726.872727 228.061139 
L 731.484298 227.571891 
L 736.095868 227.479178 
L 740.707438 227.019874 
L 745.319008 226.942827 
L 749.930579 226.455162 
L 754.542149 226.350346 
L 759.153719 225.860863 
L 763.765289 225.755476 
" clip-path="url(#p78ee8a8c66)" style="fill: none; stroke: #ff7f0e; stroke-width: 1.5; stroke-linecap: square"/>
   </g>
   <g id="line2d_96">
    <path d="M 487.071074 252.469926 
L 491.682645 252.049937 
L 496.294215 251.226112 
L 500.905785 250.063505 
L 505.517355 248.633637 
L 510.128926 246.998295 
L 514.740496 245.204944 
L 519.352066 243.288141 
L 523.963636 241.272577 
L 528.575207 239.175875 
L 533.186777 261.550963 
L 537.798347 259.993623 
L 542.409917 258.66886 
L 547.021488 257.357286 
L 551.633058 256.021153 
L 556.244628 254.64801 
L 560.856198 253.232716 
L 565.467769 251.772886 
L 570.079339 250.267328 
L 574.690909 248.715394 
L 579.302479 261.555573 
L 583.91405 260.088563 
L 588.52562 258.923141 
L 593.13719 257.790978 
L 597.74876 256.640269 
L 602.360331 255.452301 
L 606.971901 254.218727 
L 611.583471 252.935379 
L 616.195041 251.600002 
L 620.806612 250.21128 
L 625.418182 261.555744 
L 630.029752 260.089024 
L 634.641322 258.924816 
L 639.252893 257.795179 
L 643.864463 256.648599 
L 648.476033 255.466472 
L 653.087603 254.240408 
L 657.699174 252.966081 
L 662.310744 251.640999 
L 666.922314 250.263558 
L 671.533884 261.555741 
L 676.145455 260.08057 
L 680.757025 258.880013 
L 685.368595 257.682604 
L 689.980165 256.438638 
L 694.591736 255.132619 
L 699.203306 253.759465 
L 703.814876 252.318063 
L 708.426446 250.809016 
L 713.038017 249.233721 
L 717.649587 261.555718 
L 722.261157 260.074625 
L 726.872727 258.85607 
L 731.484298 257.630529 
L 736.095868 256.352073 
L 740.707438 255.008462 
L 745.319008 253.597062 
L 749.930579 252.118559 
L 754.542149 250.574874 
L 759.153719 248.968374 
L 763.765289 261.555715 
" clip-path="url(#p78ee8a8c66)" style="fill: none; stroke: #2ca02c; stroke-width: 1.5; stroke-linecap: square"/>
   </g>
   <g id="line2d_97">
    <path d="M 487.071074 252.469926 
L 491.682645 252.049937 
L 496.294215 251.502502 
L 500.905785 250.657715 
L 505.517355 250.10685 
L 510.128926 249.160589 
L 514.740496 248.6841 
L 519.352066 247.741531 
L 523.963636 247.359671 
L 528.575207 246.407283 
L 533.186777 261.551379 
L 537.798347 260.063051 
L 542.409917 258.919105 
L 547.021488 257.799506 
L 551.633058 256.843345 
L 556.244628 255.767235 
L 560.856198 254.937131 
L 565.467769 253.882408 
L 570.079339 253.161587 
L 574.690909 252.133677 
L 579.302479 261.556242 
L 583.91405 260.11601 
L 588.52562 259.038456 
L 593.13719 258.002808 
L 597.74876 257.085812 
L 602.360331 256.086435 
L 606.971901 255.271119 
L 611.583471 254.272697 
L 616.195041 253.544482 
L 620.806612 252.550463 
L 625.418182 261.556357 
L 630.029752 260.11645 
L 634.641322 259.039622 
L 639.252893 258.003941 
L 643.864463 257.085966 
L 648.476033 256.082704 
L 653.087603 255.265486 
L 657.699174 254.263117 
L 662.310744 253.532653 
L 666.922314 252.534058 
L 671.533884 261.556364 
L 676.145455 260.113283 
L 680.757025 259.017946 
L 685.368595 257.941537 
L 689.980165 256.974687 
L 694.591736 255.922939 
L 699.203306 255.068833 
L 703.814876 253.989362 
L 708.426446 253.206176 
L 713.038017 252.099843 
L 717.649587 261.556347 
L 722.261157 260.105129 
L 726.872727 258.990422 
L 731.484298 257.884853 
L 736.095868 256.893157 
L 740.707438 255.768519 
L 745.319008 254.856124 
L 749.930579 253.708865 
L 754.542149 252.892004 
L 759.153719 251.73513 
L 763.765289 261.556335 
" clip-path="url(#p78ee8a8c66)" style="fill: none; stroke: #d62728; stroke-width: 1.5; stroke-linecap: square"/>
   </g>
   <g id="patch_14">
    <path d="M 473.236364 270.72 
L 473.236364 69.12 
" style="fill: none; stroke: #000000; stroke-width: 0.8; stroke-linejoin: miter; stroke-linecap: square"/>
   </g>
   <g id="patch_15">
    <path d="M 777.6 270.72 
L 777.6 69.12 
" style="fill: none; stroke: #000000; stroke-width: 0.8; stroke-linejoin: miter; stroke-linecap: square"/>
   </g>
   <g id="patch_16">
    <path d="M 473.236364 270.72 
L 777.6 270.72 
" style="fill: none; stroke: #000000; stroke-width: 0.8; stroke-linejoin: miter; stroke-linecap: square"/>
   </g>
   <g id="patch_17">
    <path d="M 473.236364 69.12 
L 777.6 69.12 
" style="fill: none; stroke: #000000; stroke-width: 0.8; stroke-linejoin: miter; stroke-linecap: square"/>
   </g>
   <g id="legend_2">
    <g id="patch_18">
     <path d="M 480.236364 135.8325 
L 563.292614 135.8325 
Q 565.292614 135.8325 565.292614 133.8325 
L 565.292614 76.12 
Q 565.292614 74.12 563.292614 74.12 
L 480.236364 74.12 
Q 478.236364 74.12 478.236364 76.12 
L 478.236364 133.8325 
Q 478.236364 135.8325 480.236364 135.8325 
z
" style="fill: #ffffff; opacity: 0.8; stroke: #cccccc; stroke-linejoin: miter"/>
    </g>
    <g id="line2d_98">
     <path d="M 482.236364 82.218437 
L 492.236364 82.218437 
L 502.236364 82.218437 
" style="fill: none; stroke: #1f77b4; stroke-width: 1.5; stroke-linecap: square"/>
    </g>
    <g id="text_48">
     <!-- No Sensor -->
     <g transform="translate(510.236364 85.718437)scale(0.1 -0.1)">
      <use xlink:href="#DejaVuSans-4e"/>
      <use xlink:href="#DejaVuSans-6f" x="74.804688"/>
      <use xlink:href="#DejaVuSans-20" x="135.986328"/>
      <use xlink:href="#DejaVuSans-53" x="167.773438"/>
      <use xlink:href="#DejaVuSans-65" x="231.25"/>
      <use xlink:href="#DejaVuSans-6e" x="292.773438"/>
      <use xlink:href="#DejaVuSans-73" x="356.152344"/>
      <use xlink:href="#DejaVuSans-6f" x="408.251953"/>
      <use xlink:href="#DejaVuSans-72" x="469.433594"/>
     </g>
    </g>
    <g id="line2d_99">
     <path d="M 482.236364 96.896563 
L 492.236364 96.896563 
L 502.236364 96.896563 
" style="fill: none; stroke: #ff7f0e; stroke-width: 1.5; stroke-linecap: square"/>
    </g>
    <g id="text_49">
     <!-- Mag only -->
     <g transform="translate(510.236364 100.396563)scale(0.1 -0.1)">
      <use xlink:href="#DejaVuSans-4d"/>
      <use xlink:href="#DejaVuSans-61" x="86.279297"/>
      <use xlink:href="#DejaVuSans-67" x="147.558594"/>
      <use xlink:href="#DejaVuSans-20" x="211.035156"/>
      <use xlink:href="#DejaVuSans-6f" x="242.822266"/>
      <use xlink:href="#DejaVuSans-6e" x="304.003906"/>
      <use xlink:href="#DejaVuSans-6c" x="367.382812"/>
      <use xlink:href="#DejaVuSans-79" x="395.166016"/>
     </g>
    </g>
    <g id="line2d_100">
     <path d="M 482.236364 111.574687 
L 492.236364 111.574687 
L 502.236364 111.574687 
" style="fill: none; stroke: #2ca02c; stroke-width: 1.5; stroke-linecap: square"/>
    </g>
    <g id="text_50">
     <!-- GPS only -->
     <g transform="translate(510.236364 115.074687)scale(0.1 -0.1)">
      <use xlink:href="#DejaVuSans-47"/>
      <use xlink:href="#DejaVuSans-50" x="77.490234"/>
      <use xlink:href="#DejaVuSans-53" x="137.792969"/>
      <use xlink:href="#DejaVuSans-20" x="201.269531"/>
      <use xlink:href="#DejaVuSans-6f" x="233.056641"/>
      <use xlink:href="#DejaVuSans-6e" x="294.238281"/>
      <use xlink:href="#DejaVuSans-6c" x="357.617188"/>
      <use xlink:href="#DejaVuSans-79" x="385.400391"/>
     </g>
    </g>
    <g id="line2d_101">
     <path d="M 482.236364 126.252813 
L 492.236364 126.252813 
L 502.236364 126.252813 
" style="fill: none; stroke: #d62728; stroke-width: 1.5; stroke-linecap: square"/>
    </g>
    <g id="text_51">
     <!-- Full fusion -->
     <g transform="translate(510.236364 129.752813)scale(0.1 -0.1)">
      <use xlink:href="#DejaVuSans-46"/>
      <use xlink:href="#DejaVuSans-75" x="52.019531"/>
      <use xlink:href="#DejaVuSans-6c" x="115.398438"/>
      <use xlink:href="#DejaVuSans-6c" x="143.181641"/>
      <use xlink:href="#DejaVuSans-20" x="170.964844"/>
      <use xlink:href="#DejaVuSans-66" x="202.751953"/>
      <use xlink:href="#DejaVuSans-75" x="237.957031"/>
      <use xlink:href="#DejaVuSans-73" x="301.335938"/>
      <use xlink:href="#DejaVuSans-69" x="353.435547"/>
      <use xlink:href="#DejaVuSans-6f" x="381.21875"/>
      <use xlink:href="#DejaVuSans-6e" x="442.400391"/>
     </g>
    </g>
   </g>
  </g>
  <g id="axes_4">
   <g id="patch_19">
    <path d="M 473.236364 512.64 
L 777.6 512.64 
L 777.6 311.04 
L 473.236364 311.04 
z
" style="fill: #ffffff"/>
   </g>
   <g id="matplotlib.axis_7">
    <g id="xtick_22">
     <g id="line2d_102">
      <path d="M 487.071074 512.64 
L 487.071074 311.04 
" clip-path="url(#p745335a207)" style="fill: none; stroke: #b0b0b0; stroke-width: 0.8; stroke-linecap: square"/>
     </g>
     <g id="line2d_103">
      <g>
       <use xlink:href="#mec630c6eff" x="487.071074" y="512.64" style="stroke: #000000; stroke-width: 0.8"/>
      </g>
     </g>
     <g id="text_52">
      <!-- 0 -->
      <g transform="translate(483.889824 527.238438)scale(0.1 -0.1)">
       <use xlink:href="#DejaVuSans-30"/>
      </g>
     </g>
    </g>
    <g id="xtick_23">
     <g id="line2d_104">
      <path d="M 533.186777 512.64 
L 533.186777 311.04 
" clip-path="url(#p745335a207)" style="fill: none; stroke: #b0b0b0; stroke-width: 0.8; stroke-linecap: square"/>
     </g>
     <g id="line2d_105">
      <g>
       <use xlink:href="#mec630c6eff" x="533.186777" y="512.64" style="stroke: #000000; stroke-width: 0.8"/>
      </g>
     </g>
     <g id="text_53">
      <!-- 10 -->
      <g transform="translate(526.824277 527.238438)scale(0.1 -0.1)">
       <use xlink:href="#DejaVuSans-31"/>
       <use xlink:href="#DejaVuSans-30" x="63.623047"/>
      </g>
     </g>
    </g>
    <g id="xtick_24">
     <g id="line2d_106">
      <path d="M 579.302479 512.64 
L 579.302479 311.04 
" clip-path="url(#p745335a207)" style="fill: none; stroke: #b0b0b0; stroke-width: 0.8; stroke-linecap: square"/>
     </g>
     <g id="line2d_107">
      <g>
       <use xlink:href="#mec630c6eff" x="579.302479" y="512.64" style="stroke: #000000; stroke-width: 0.8"/>
      </g>
     </g>
     <g id="text_54">
      <!-- 20 -->
      <g transform="translate(572.939979 527.238438)scale(0.1 -0.1)">
       <use xlink:href="#DejaVuSans-32"/>
       <use xlink:href="#DejaVuSans-30" x="63.623047"/>
      </g>
     </g>
    </g>
    <g id="xtick_25">
     <g id="line2d_108">
      <path d="M 625.418182 512.64 
L 625.418182 311.04 
" clip-path="url(#p745335a207)" style="fill: none; stroke: #b0b0b0; stroke-width: 0.8; stroke-linecap: square"/>
     </g>
     <g id="line2d_109">
      <g>
       <use xlink:href="#mec630c6eff" x="625.418182" y="512.64" style="stroke: #000000; stroke-width: 0.8"/>
      </g>
     </g>
     <g id="text_55">
      <!-- 30 -->
      <g transform="translate(619.055682 527.238438)scale(0.1 -0.1)">
       <use xlink:href="#DejaVuSans-33"/>
       <use xlink:href="#DejaVuSans-30" x="63.623047"/>
      </g>
     </g>
    </g>
    <g id="xtick_26">
     <g id="line2d_110">
      <path d="M 671.533884 512.64 
L 671.533884 311.04 
" clip-path="url(#p745335a207)" style="fill: none; stroke: #b0b0b0; stroke-width: 0.8; stroke-linecap: square"/>
     </g>
     <g id="line2d_111">
      <g>
       <use xlink:href="#mec630c6eff" x="671.533884" y="512.64" style="stroke: #000000; stroke-width: 0.8"/>
      </g>
     </g>
     <g id="text_56">
      <!-- 40 -->
      <g transform="translate(665.171384 527.238438)scale(0.1 -0.1)">
       <use xlink:href="#DejaVuSans-34"/>
       <use xlink:href="#DejaVuSans-30" x="63.623047"/>
      </g>
     </g>
    </g>
    <g id="xtick_27">
     <g id="line2d_112">
      <path d="M 717.649587 512.64 
L 717.649587 311.04 
" clip-path="url(#p745335a207)" style="fill: none; stroke: #b0b0b0; stroke-width: 0.8; stroke-linecap: square"/>
     </g>
     <g id="line2d_113">
      <g>
       <use xlink:href="#mec630c6eff" x="717.649587" y="512.64" style="stroke: #000000; stroke-width: 0.8"/>
      </g>
     </g>
     <g id="text_57">
      <!-- 50 -->
      <g transform="translate(711.287087 527.238438)scale(0.1 -0.1)">
       <use xlink:href="#DejaVuSans-35"/>
       <use xlink:href="#DejaVuSans-30" x="63.623047"/>
      </g>
     </g>
    </g>
    <g id="xtick_28">
     <g id="line2d_114">
      <path d="M 763.765289 512.64 
L 763.765289 311.04 
" clip-path="url(#p745335a207)" style="fill: none; stroke: #b0b0b0; stroke-width: 0.8; stroke-linecap: square"/>
     </g>
     <g id="line2d_115">
      <g>
       <use xlink:href="#mec630c6eff" x="763.765289" y="512.64" style="stroke: #000000; stroke-width: 0.8"/>
      </g>
     </g>
     <g id="text_58">
      <!-- 60 -->
      <g transform="translate(757.402789 527.238438)scale(0.1 -0.1)">
       <use xlink:href="#DejaVuSans-36"/>
       <use xlink:href="#DejaVuSans-30" x="63.623047"/>
      </g>
     </g>
    </g>
   </g>
   <g id="matplotlib.axis_8">
    <g id="ytick_19">
     <g id="line2d_116">
      <path d="M 473.236364 505.660228 
L 777.6 505.660228 
" clip-path="url(#p745335a207)" style="fill: none; stroke: #b0b0b0; stroke-width: 0.8; stroke-linecap: square"/>
     </g>
     <g id="line2d_117">
      <g>
       <use xlink:href="#m731de356db" x="473.236364" y="505.660228" style="stroke: #000000; stroke-width: 0.8"/>
      </g>
     </g>
     <g id="text_59">
      <!-- 0.2 -->
      <g transform="translate(450.333239 509.459447)scale(0.1 -0.1)">
       <use xlink:href="#DejaVuSans-30"/>
       <use xlink:href="#DejaVuSans-2e" x="63.623047"/>
       <use xlink:href="#DejaVuSans-32" x="95.410156"/>
      </g>
     </g>
    </g>
    <g id="ytick_20">
     <g id="line2d_118">
      <path d="M 473.236364 479.972099 
L 777.6 479.972099 
" clip-path="url(#p745335a207)" style="fill: none; stroke: #b0b0b0; stroke-width: 0.8; stroke-linecap: square"/>
     </g>
     <g id="line2d_119">
      <g>
       <use xlink:href="#m731de356db" x="473.236364" y="479.972099" style="stroke: #000000; stroke-width: 0.8"/>
      </g>
     </g>
     <g id="text_60">
      <!-- 0.3 -->
      <g transform="translate(450.333239 483.771318)scale(0.1 -0.1)">
       <use xlink:href="#DejaVuSans-30"/>
       <use xlink:href="#DejaVuSans-2e" x="63.623047"/>
       <use xlink:href="#DejaVuSans-33" x="95.410156"/>
      </g>
     </g>
    </g>
    <g id="ytick_21">
     <g id="line2d_120">
      <path d="M 473.236364 454.28397 
L 777.6 454.28397 
" clip-path="url(#p745335a207)" style="fill: none; stroke: #b0b0b0; stroke-width: 0.8; stroke-linecap: square"/>
     </g>
     <g id="line2d_121">
      <g>
       <use xlink:href="#m731de356db" x="473.236364" y="454.28397" style="stroke: #000000; stroke-width: 0.8"/>
      </g>
     </g>
     <g id="text_61">
      <!-- 0.4 -->
      <g transform="translate(450.333239 458.083188)scale(0.1 -0.1)">
       <use xlink:href="#DejaVuSans-30"/>
       <use xlink:href="#DejaVuSans-2e" x="63.623047"/>
       <use xlink:href="#DejaVuSans-34" x="95.410156"/>
      </g>
     </g>
    </g>
    <g id="ytick_22">
     <g id="line2d_122">
      <path d="M 473.236364 428.59584 
L 777.6 428.59584 
" clip-path="url(#p745335a207)" style="fill: none; stroke: #b0b0b0; stroke-width: 0.8; stroke-linecap: square"/>
     </g>
     <g id="line2d_123">
      <g>
       <use xlink:href="#m731de356db" x="473.236364" y="428.59584" style="stroke: #000000; stroke-width: 0.8"/>
      </g>
     </g>
     <g id="text_62">
      <!-- 0.5 -->
      <g transform="translate(450.333239 432.395059)scale(0.1 -0.1)">
       <use xlink:href="#DejaVuSans-30"/>
       <use xlink:href="#DejaVuSans-2e" x="63.623047"/>
       <use xlink:href="#DejaVuSans-35" x="95.410156"/>
      </g>
     </g>
    </g>
    <g id="ytick_23">
     <g id="line2d_124">
      <path d="M 473.236364 402.907711 
L 777.6 402.907711 
" clip-path="url(#p745335a207)" style="fill: none; stroke: #b0b0b0; stroke-width: 0.8; stroke-linecap: square"/>
     </g>
     <g id="line2d_125">
      <g>
       <use xlink:href="#m731de356db" x="473.236364" y="402.907711" style="stroke: #000000; stroke-width: 0.8"/>
      </g>
     </g>
     <g id="text_63">
      <!-- 0.6 -->
      <g transform="translate(450.333239 406.70693)scale(0.1 -0.1)">
       <use xlink:href="#DejaVuSans-30"/>
       <use xlink:href="#DejaVuSans-2e" x="63.623047"/>
       <use xlink:href="#DejaVuSans-36" x="95.410156"/>
      </g>
     </g>
    </g>
    <g id="ytick_24">
     <g id="line2d_126">
      <path d="M 473.236364 377.219582 
L 777.6 377.219582 
" clip-path="url(#p745335a207)" style="fill: none; stroke: #b0b0b0; stroke-width: 0.8; stroke-linecap: square"/>
     </g>
     <g id="line2d_127">
      <g>
       <use xlink:href="#m731de356db" x="473.236364" y="377.219582" style="stroke: #000000; stroke-width: 0.8"/>
      </g>
     </g>
     <g id="text_64">
      <!-- 0.7 -->
      <g transform="translate(450.333239 381.0188)scale(0.1 -0.1)">
       <defs>
        <path id="DejaVuSans-37" d="M 525 4666 
L 3525 4666 
L 3525 4397 
L 1831 0 
L 1172 0 
L 2766 4134 
L 525 4134 
L 525 4666 
z
" transform="scale(0.015625)"/>
       </defs>
       <use xlink:href="#DejaVuSans-30"/>
       <use xlink:href="#DejaVuSans-2e" x="63.623047"/>
       <use xlink:href="#DejaVuSans-37" x="95.410156"/>
      </g>
     </g>
    </g>
    <g id="ytick_25">
     <g id="line2d_128">
      <path d="M 473.236364 351.531452 
L 777.6 351.531452 
" clip-path="url(#p745335a207)" style="fill: none; stroke: #b0b0b0; stroke-width: 0.8; stroke-linecap: square"/>
     </g>
     <g id="line2d_129">
      <g>
       <use xlink:href="#m731de356db" x="473.236364" y="351.531452" style="stroke: #000000; stroke-width: 0.8"/>
      </g>
     </g>
     <g id="text_65">
      <!-- 0.8 -->
      <g transform="translate(450.333239 355.330671)scale(0.1 -0.1)">
       <use xlink:href="#DejaVuSans-30"/>
       <use xlink:href="#DejaVuSans-2e" x="63.623047"/>
       <use xlink:href="#DejaVuSans-38" x="95.410156"/>
      </g>
     </g>
    </g>
    <g id="ytick_26">
     <g id="line2d_130">
      <path d="M 473.236364 325.843323 
L 777.6 325.843323 
" clip-path="url(#p745335a207)" style="fill: none; stroke: #b0b0b0; stroke-width: 0.8; stroke-linecap: square"/>
     </g>
     <g id="line2d_131">
      <g>
       <use xlink:href="#m731de356db" x="473.236364" y="325.843323" style="stroke: #000000; stroke-width: 0.8"/>
      </g>
     </g>
     <g id="text_66">
      <!-- 0.9 -->
      <g transform="translate(450.333239 329.642542)scale(0.1 -0.1)">
       <defs>
        <path id="DejaVuSans-39" d="M 703 97 
L 703 672 
Q 941 559 1184 500 
Q 1428 441 1663 441 
Q 2288 441 2617 861 
Q 2947 1281 2994 2138 
Q 2813 1869 2534 1725 
Q 2256 1581 1919 1581 
Q 1219 1581 811 2004 
Q 403 2428 403 3163 
Q 403 3881 828 4315 
Q 1253 4750 1959 4750 
Q 2769 4750 3195 4129 
Q 3622 3509 3622 2328 
Q 3622 1225 3098 567 
Q 2575 -91 1691 -91 
Q 1453 -91 1209 -44 
Q 966 3 703 97 
z
M 1959 2075 
Q 2384 2075 2632 2365 
Q 2881 2656 2881 3163 
Q 2881 3666 2632 3958 
Q 2384 4250 1959 4250 
Q 1534 4250 1286 3958 
Q 1038 3666 1038 3163 
Q 1038 2656 1286 2365 
Q 1534 2075 1959 2075 
z
" transform="scale(0.015625)"/>
       </defs>
       <use xlink:href="#DejaVuSans-30"/>
       <use xlink:href="#DejaVuSans-2e" x="63.623047"/>
       <use xlink:href="#DejaVuSans-39" x="95.410156"/>
      </g>
     </g>
    </g>
    <g id="text_67">
     <!-- Heading Covariance -->
     <g transform="translate(444.253551 462.313437)rotate(-90)scale(0.1 -0.1)">
      <use xlink:href="#DejaVuSans-48"/>
      <use xlink:href="#DejaVuSans-65" x="75.195312"/>
      <use xlink:href="#DejaVuSans-61" x="136.71875"/>
      <use xlink:href="#DejaVuSans-64" x="197.998047"/>
      <use xlink:href="#DejaVuSans-69" x="261.474609"/>
      <use xlink:href="#DejaVuSans-6e" x="289.257812"/>
      <use xlink:href="#DejaVuSans-67" x="352.636719"/>
      <use xlink:href="#DejaVuSans-20" x="416.113281"/>
      <use xlink:href="#DejaVuSans-43" x="447.900391"/>
      <use xlink:href="#DejaVuSans-6f" x="517.724609"/>
      <use xlink:href="#DejaVuSans-76" x="578.90625"/>
      <use xlink:href="#DejaVuSans-61" x="638.085938"/>
      <use xlink:href="#DejaVuSans-72" x="699.365234"/>
      <use xlink:href="#DejaVuSans-69" x="740.478516"/>
      <use xlink:href="#DejaVuSans-61" x="768.261719"/>
      <use xlink:href="#DejaVuSans-6e" x="829.541016"/>
      <use xlink:href="#DejaVuSans-63" x="892.919922"/>
      <use xlink:href="#DejaVuSans-65" x="947.900391"/>
     </g>
    </g>
   </g>
   <g id="line2d_132">
    <path d="M 487.071074 428.59584 
L 491.682645 426.052214 
L 496.294215 423.557051 
L 500.905785 421.107683 
L 505.517355 418.701677 
L 510.128926 416.336808 
L 514.740496 414.011036 
L 519.352066 411.722483 
L 523.963636 409.469419 
L 528.575207 407.25024 
L 533.186777 405.063464 
L 537.798347 402.907711 
L 542.409917 400.781696 
L 547.021488 398.684223 
L 551.633058 396.614171 
L 556.244628 394.570492 
L 560.856198 392.552203 
L 565.467769 390.558382 
L 570.079339 388.588158 
L 574.690909 386.640714 
L 579.302479 384.715277 
L 583.91405 382.811117 
L 588.52562 380.927545 
L 593.13719 379.063906 
L 597.74876 377.219582 
L 602.360331 375.393982 
L 606.971901 373.58655 
L 611.583471 371.796752 
L 616.195041 370.024082 
L 620.806612 368.268059 
L 625.418182 366.528221 
L 630.029752 364.804129 
L 634.641322 363.095363 
L 639.252893 361.401522 
L 643.864463 359.722221 
L 648.476033 358.057093 
L 653.087603 356.405783 
L 657.699174 354.767954 
L 662.310744 353.143281 
L 666.922314 351.531452 
L 671.533884 349.932167 
L 676.145455 348.345138 
L 680.757025 346.770086 
L 685.368595 345.206746 
L 689.980165 343.654859 
L 694.591736 342.114177 
L 699.203306 340.584462 
L 703.814876 339.065481 
L 708.426446 337.557014 
L 713.038017 336.058843 
L 717.649587 334.570761 
L 722.261157 333.092567 
L 726.872727 331.624067 
L 731.484298 330.165071 
L 736.095868 328.715399 
L 740.707438 327.274873 
L 745.319008 325.843323 
L 749.930579 324.420582 
L 754.542149 323.006491 
L 759.153719 321.600893 
L 763.765289 320.203636 
" clip-path="url(#p745335a207)" style="fill: none; stroke: #1f77b4; stroke-width: 1.5; stroke-linecap: square"/>
   </g>
   <g id="line2d_133">
    <path d="M 487.071074 428.59584 
L 491.682645 426.052214 
L 496.294215 449.475693 
L 500.905785 446.450753 
L 505.517355 460.763994 
L 510.128926 457.395768 
L 514.740496 467.505526 
L 519.352066 463.893195 
L 523.963636 471.73322 
L 528.575207 467.949297 
L 533.186777 474.455629 
L 537.798347 470.552511 
L 542.409917 476.235721 
L 547.021488 472.250617 
L 551.633058 477.410434 
L 556.244628 473.369359 
L 560.856198 478.1901 
L 565.467769 474.111022 
L 570.079339 478.709458 
L 574.690909 474.604676 
L 579.302479 479.056233 
L 583.91405 474.934112 
L 588.52562 479.288132 
L 593.13719 475.154335 
L 597.74876 479.443366 
L 602.360331 475.301719 
L 606.971901 479.547352 
L 611.583471 475.400428 
L 616.195041 479.617039 
L 620.806612 475.466572 
L 625.418182 479.663754 
L 630.029752 475.510909 
L 634.641322 479.695076 
L 639.252893 475.540635 
L 643.864463 479.71608 
L 648.476033 475.560568 
L 653.087603 479.730166 
L 657.699174 475.573936 
L 662.310744 479.739614 
L 666.922314 475.582902 
L 671.533884 479.74595 
L 676.145455 475.588915 
L 680.757025 479.7502 
L 685.368595 475.592948 
L 689.980165 479.753051 
L 694.591736 475.595653 
L 699.203306 479.754963 
L 703.814876 475.597467 
L 708.426446 479.756246 
L 713.038017 475.598685 
L 717.649587 479.757106 
L 722.261157 475.599501 
L 726.872727 479.757683 
L 731.484298 475.600048 
L 736.095868 479.75807 
L 740.707438 475.600416 
L 745.319008 479.75833 
L 749.930579 475.600662 
L 754.542149 479.758504 
L 759.153719 475.600827 
L 763.765289 479.758621 
" clip-path="url(#p745335a207)" style="fill: none; stroke: #ff7f0e; stroke-width: 1.5; stroke-linecap: square"/>
   </g>
   <g id="line2d_134">
    <path d="M 487.071074 428.59584 
L 491.682645 426.052214 
L 496.294215 423.557051 
L 500.905785 421.107683 
L 505.517355 418.701677 
L 510.128926 416.336808 
L 514.740496 414.011036 
L 519.352066 411.722483 
L 523.963636 409.469419 
L 528.575207 407.25024 
L 533.186777 486.19441 
L 537.798347 481.680798 
L 542.409917 477.42267 
L 547.021488 473.381004 
L 551.633058 469.525803 
L 556.244628 465.833418 
L 560.856198 462.284813 
L 565.467769 458.864394 
L 570.079339 455.5592 
L 574.690909 452.358315 
L 579.302479 499.60289 
L 583.91405 494.119891 
L 588.52562 489.077837 
L 593.13719 484.384866 
L 597.74876 479.977172 
L 602.360331 475.808302 
L 606.971901 471.843189 
L 611.583471 468.05459 
L 616.195041 464.42084 
L 620.806612 460.924375 
L 625.418182 499.629714 
L 630.029752 494.144377 
L 634.641322 489.100506 
L 639.252893 484.40607 
L 643.864463 479.997163 
L 648.476033 475.827267 
L 653.087603 471.861271 
L 657.699174 468.071902 
L 662.310744 464.437473 
L 666.922314 460.940403 
L 671.533884 499.629534 
L 676.145455 494.144212 
L 680.757025 489.100353 
L 685.368595 484.405927 
L 689.980165 479.997028 
L 694.591736 475.827139 
L 699.203306 471.861149 
L 703.814876 468.071785 
L 708.426446 464.437361 
L 713.038017 460.940295 
L 717.649587 499.632283 
L 722.261157 494.146721 
L 726.872727 489.102676 
L 731.484298 484.4081 
L 736.095868 479.999076 
L 740.707438 475.829082 
L 745.319008 471.863002 
L 749.930579 468.073559 
L 754.542149 464.439065 
L 759.153719 460.941937 
L 763.765289 499.631096 
" clip-path="url(#p745335a207)" style="fill: none; stroke: #2ca02c; stroke-width: 1.5; stroke-linecap: square"/>
   </g>
   <g id="line2d_135">
    <path d="M 487.071074 428.59584 
L 491.682645 426.052214 
L 496.294215 449.475693 
L 500.905785 446.450753 
L 505.517355 460.763994 
L 510.128926 457.395768 
L 514.740496 467.505526 
L 519.352066 463.893195 
L 523.963636 471.73322 
L 528.575207 467.949297 
L 533.186777 494.798901 
L 537.798347 489.70598 
L 542.409917 490.051283 
L 547.021488 485.294605 
L 551.633058 486.76731 
L 556.244628 482.219128 
L 560.856198 484.511061 
L 565.467769 480.096138 
L 570.079339 482.970787 
L 574.690909 478.64256 
L 579.302479 503.431067 
L 583.91405 497.593901 
L 588.52562 496.040933 
L 593.13719 490.852368 
L 597.74876 490.913132 
L 602.360331 486.09864 
L 606.971901 487.361819 
L 611.583471 482.777216 
L 616.195041 484.91834 
L 620.806612 480.479926 
L 625.418182 503.476364 
L 630.029752 497.634746 
L 634.641322 496.07227 
L 639.252893 490.881247 
L 643.864463 490.934885 
L 648.476033 486.118916 
L 653.087603 487.376836 
L 657.699174 482.791305 
L 662.310744 484.928634 
L 666.922314 480.489623 
L 671.533884 503.464414 
L 676.145455 497.623972 
L 680.757025 496.064003 
L 685.368595 490.873629 
L 689.980165 490.929146 
L 694.591736 486.113568 
L 699.203306 487.372874 
L 703.814876 482.787589 
L 708.426446 484.925919 
L 713.038017 480.487065 
L 717.649587 503.424453 
L 722.261157 497.587936 
L 726.872727 496.036358 
L 731.484298 490.848152 
L 736.095868 490.909956 
L 740.707438 486.09568 
L 745.319008 487.359627 
L 749.930579 482.775159 
L 754.542149 484.916837 
L 759.153719 480.47851 
L 763.765289 503.474977 
" clip-path="url(#p745335a207)" style="fill: none; stroke: #d62728; stroke-width: 1.5; stroke-linecap: square"/>
   </g>
   <g id="patch_20">
    <path d="M 473.236364 512.64 
L 473.236364 311.04 
" style="fill: none; stroke: #000000; stroke-width: 0.8; stroke-linejoin: miter; stroke-linecap: square"/>
   </g>
   <g id="patch_21">
    <path d="M 777.6 512.64 
L 777.6 311.04 
" style="fill: none; stroke: #000000; stroke-width: 0.8; stroke-linejoin: miter; stroke-linecap: square"/>
   </g>
   <g id="patch_22">
    <path d="M 473.236364 512.64 
L 777.6 512.64 
" style="fill: none; stroke: #000000; stroke-width: 0.8; stroke-linejoin: miter; stroke-linecap: square"/>
   </g>
   <g id="patch_23">
    <path d="M 473.236364 311.04 
L 777.6 311.04 
" style="fill: none; stroke: #000000; stroke-width: 0.8; stroke-linejoin: miter; stroke-linecap: square"/>
   </g>
  </g>
 </g>
 <defs>
  <clipPath id="p0557b808fd">
   <rect x="127.567341" y="69.12" width="265.228955" height="201.6"/>
  </clipPath>
  <clipPath id="p9701065067">
   <rect x="108" y="311.04" width="304.363636" height="201.6"/>
  </clipPath>
  <clipPath id="p78ee8a8c66">
   <rect x="473.236364" y="69.12" width="304.363636" height="201.6"/>
  </clipPath>
  <clipPath id="p745335a207">
   <rect x="473.236364" y="311.04" width="304.363636" height="201.6"/>
  </clipPath>
 </defs>
</svg>
