<?xml version="1.0" encoding="utf-8" standalone="no"?>
<!DOCTYPE svg PUBLIC "-//W3C//DTD SVG 1.1//EN"
  "http://www.w3.org/Graphics/SVG/1.1/DTD/svg11.dtd">
<svg xmlns:xlink="http://www.w3.org/1999/xlink" width="576pt" height="360pt" viewBox="0 0 576 360" xmlns="http://www.w3.org/2000/svg" version="1.1">
 <metadata>
  <rdf:RDF xmlns:dc="http://purl.org/dc/elements/1.1/" xmlns:cc="http://creativecommons.org/ns#" xmlns:rdf="http://www.w3.org/1999/02/22-rdf-syntax-ns#">
   <cc:Work>
    <dc:type rdf:resource="http://purl.org/dc/dcmitype/StillImage"/>
    <dc:date>2023-10-06T13:46:53.147355</dc:date>
    <dc:format>image/svg+xml</dc:format>
    <dc:creator>
     <cc:Agent>
      <dc:title>Matplotlib v3.5.0, https://matplotlib.org/</dc:title>
     </cc:Agent>
    </dc:creator>
   </cc:Work>
  </rdf:RDF>
 </metadata>
 <defs>
  <style type="text/css">*{stroke-linejoin: round; stroke-linecap: butt}</style>
 </defs>
 <g id="figure_1">
  <g id="patch_1">
   <path d="M 0 360 
L 576 360 
L 576 0 
L 0 0 
z
" style="fill: #ffffff"/>
  </g>
  <g id="axes_1">
   <g id="patch_2">
    <path d="M 181.849638 320.4 
L 408.550362 320.4 
L 408.550362 43.2 
L 181.849638 43.2 
z
" style="fill: #ffffff"/>
   </g>
   <g id="matplotlib.axis_1">
    <g id="xtick_1">
     <g id="line2d_1">
      <defs>
       <path id="ma3bd26e8eb" d="M 0 0 
L 0 3.5 
" style="stroke: #000000; stroke-width: 0.8"/>
      </defs>
      <g>
       <use xlink:href="#ma3bd26e8eb" x="195.185865" y="320.4" style="stroke: #000000; stroke-width: 0.8"/>
      </g>
     </g>
     <g id="text_1">
      <!-- 0 -->
      <g transform="translate(192.004615 334.998438)scale(0.1 -0.1)">
       <defs>
        <path id="DejaVuSans-30" d="M 2034 4250 
Q 1547 4250 1301 3770 
Q 1056 3291 1056 2328 
Q 1056 1369 1301 889 
Q 1547 409 2034 409 
Q 2525 409 2770 889 
Q 3016 1369 3016 2328 
Q 3016 3291 2770 3770 
Q 2525 4250 2034 4250 
z
M 2034 4750 
Q 2819 4750 3233 4129 
Q 3647 3509 3647 2328 
Q 3647 1150 3233 529 
Q 2819 -91 2034 -91 
Q 1250 -91 836 529 
Q 422 1150 422 2328 
Q 422 3509 836 4129 
Q 1250 4750 2034 4750 
z
" transform="scale(0.015625)"/>
       </defs>
       <use xlink:href="#DejaVuSans-30"/>
      </g>
     </g>
    </g>
    <g id="xtick_2">
     <g id="line2d_2">
      <g>
       <use xlink:href="#ma3bd26e8eb" x="244.177955" y="320.4" style="stroke: #000000; stroke-width: 0.8"/>
      </g>
     </g>
     <g id="text_2">
      <!-- 10 -->
      <g transform="translate(237.815455 334.998438)scale(0.1 -0.1)">
       <defs>
        <path id="DejaVuSans-31" d="M 794 531 
L 1825 531 
L 1825 4091 
L 703 3866 
L 703 4441 
L 1819 4666 
L 2450 4666 
L 2450 531 
L 3481 531 
L 3481 0 
L 794 0 
L 794 531 
z
" transform="scale(0.015625)"/>
       </defs>
       <use xlink:href="#DejaVuSans-31"/>
       <use xlink:href="#DejaVuSans-30" x="63.623047"/>
      </g>
     </g>
    </g>
    <g id="xtick_3">
     <g id="line2d_3">
      <g>
       <use xlink:href="#ma3bd26e8eb" x="293.170046" y="320.4" style="stroke: #000000; stroke-width: 0.8"/>
      </g>
     </g>
     <g id="text_3">
      <!-- 20 -->
      <g transform="translate(286.807546 334.998438)scale(0.1 -0.1)">
       <defs>
        <path id="DejaVuSans-32" d="M 1228 531 
L 3431 531 
L 3431 0 
L 469 0 
L 469 531 
Q 828 903 1448 1529 
Q 2069 2156 2228 2338 
Q 2531 2678 2651 2914 
Q 2772 3150 2772 3378 
Q 2772 3750 2511 3984 
Q 2250 4219 1831 4219 
Q 1534 4219 1204 4116 
Q 875 4013 500 3803 
L 500 4441 
Q 881 4594 1212 4672 
Q 1544 4750 1819 4750 
Q 2544 4750 2975 4387 
Q 3406 4025 3406 3419 
Q 3406 3131 3298 2873 
Q 3191 2616 2906 2266 
Q 2828 2175 2409 1742 
Q 1991 1309 1228 531 
z
" transform="scale(0.015625)"/>
       </defs>
       <use xlink:href="#DejaVuSans-32"/>
       <use xlink:href="#DejaVuSans-30" x="63.623047"/>
      </g>
     </g>
    </g>
    <g id="xtick_4">
     <g id="line2d_4">
      <g>
       <use xlink:href="#ma3bd26e8eb" x="342.162136" y="320.4" style="stroke: #000000; stroke-width: 0.8"/>
      </g>
     </g>
     <g id="text_4">
      <!-- 30 -->
      <g transform="translate(335.799636 334.998438)scale(0.1 -0.1)">
       <defs>
        <path id="DejaVuSans-33" d="M 2597 2516 
Q 3050 2419 3304 2112 
Q 3559 1806 3559 1356 
Q 3559 666 3084 287 
Q 2609 -91 1734 -91 
Q 1441 -91 1130 -33 
Q 819 25 488 141 
L 488 750 
Q 750 597 1062 519 
Q 1375 441 1716 441 
Q 2309 441 2620 675 
Q 2931 909 2931 1356 
Q 2931 1769 2642 2001 
Q 2353 2234 1838 2234 
L 1294 2234 
L 1294 2753 
L 1863 2753 
Q 2328 2753 2575 2939 
Q 2822 3125 2822 3475 
Q 2822 3834 2567 4026 
Q 2313 4219 1838 4219 
Q 1578 4219 1281 4162 
Q 984 4106 628 3988 
L 628 4550 
Q 988 4650 1302 4700 
Q 1616 4750 1894 4750 
Q 2613 4750 3031 4423 
Q 3450 4097 3450 3541 
Q 3450 3153 3228 2886 
Q 3006 2619 2597 2516 
z
" transform="scale(0.015625)"/>
       </defs>
       <use xlink:href="#DejaVuSans-33"/>
       <use xlink:href="#DejaVuSans-30" x="63.623047"/>
      </g>
     </g>
    </g>
    <g id="xtick_5">
     <g id="line2d_5">
      <g>
       <use xlink:href="#ma3bd26e8eb" x="391.154226" y="320.4" style="stroke: #000000; stroke-width: 0.8"/>
      </g>
     </g>
     <g id="text_5">
      <!-- 40 -->
      <g transform="translate(384.791726 334.998438)scale(0.1 -0.1)">
       <defs>
        <path id="DejaVuSans-34" d="M 2419 4116 
L 825 1625 
L 2419 1625 
L 2419 4116 
z
M 2253 4666 
L 3047 4666 
L 3047 1625 
L 3713 1625 
L 3713 1100 
L 3047 1100 
L 3047 0 
L 2419 0 
L 2419 1100 
L 313 1100 
L 313 1709 
L 2253 4666 
z
" transform="scale(0.015625)"/>
       </defs>
       <use xlink:href="#DejaVuSans-34"/>
       <use xlink:href="#DejaVuSans-30" x="63.623047"/>
      </g>
     </g>
    </g>
   </g>
   <g id="matplotlib.axis_2">
    <g id="ytick_1">
     <g id="line2d_6">
      <defs>
       <path id="m2bcff5e6f6" d="M 0 0 
L -3.5 0 
" style="stroke: #000000; stroke-width: 0.8"/>
      </defs>
      <g>
       <use xlink:href="#m2bcff5e6f6" x="181.849638" y="314.111403" style="stroke: #000000; stroke-width: 0.8"/>
      </g>
     </g>
     <g id="text_6">
      <!-- −10 -->
      <g transform="translate(153.744951 317.910621)scale(0.1 -0.1)">
       <defs>
        <path id="DejaVuSans-2212" d="M 678 2272 
L 4684 2272 
L 4684 1741 
L 678 1741 
L 678 2272 
z
" transform="scale(0.015625)"/>
       </defs>
       <use xlink:href="#DejaVuSans-2212"/>
       <use xlink:href="#DejaVuSans-31" x="83.789062"/>
       <use xlink:href="#DejaVuSans-30" x="147.412109"/>
      </g>
     </g>
    </g>
    <g id="ytick_2">
     <g id="line2d_7">
      <g>
       <use xlink:href="#m2bcff5e6f6" x="181.849638" y="265.119312" style="stroke: #000000; stroke-width: 0.8"/>
      </g>
     </g>
     <g id="text_7">
      <!-- 0 -->
      <g transform="translate(168.487138 268.918531)scale(0.1 -0.1)">
       <use xlink:href="#DejaVuSans-30"/>
      </g>
     </g>
    </g>
    <g id="ytick_3">
     <g id="line2d_8">
      <g>
       <use xlink:href="#m2bcff5e6f6" x="181.849638" y="216.127222" style="stroke: #000000; stroke-width: 0.8"/>
      </g>
     </g>
     <g id="text_8">
      <!-- 10 -->
      <g transform="translate(162.124638 219.926441)scale(0.1 -0.1)">
       <use xlink:href="#DejaVuSans-31"/>
       <use xlink:href="#DejaVuSans-30" x="63.623047"/>
      </g>
     </g>
    </g>
    <g id="ytick_4">
     <g id="line2d_9">
      <g>
       <use xlink:href="#m2bcff5e6f6" x="181.849638" y="167.135132" style="stroke: #000000; stroke-width: 0.8"/>
      </g>
     </g>
     <g id="text_9">
      <!-- 20 -->
      <g transform="translate(162.124638 170.93435)scale(0.1 -0.1)">
       <use xlink:href="#DejaVuSans-32"/>
       <use xlink:href="#DejaVuSans-30" x="63.623047"/>
      </g>
     </g>
    </g>
    <g id="ytick_5">
     <g id="line2d_10">
      <g>
       <use xlink:href="#m2bcff5e6f6" x="181.849638" y="118.143041" style="stroke: #000000; stroke-width: 0.8"/>
      </g>
     </g>
     <g id="text_10">
      <!-- 30 -->
      <g transform="translate(162.124638 121.94226)scale(0.1 -0.1)">
       <use xlink:href="#DejaVuSans-33"/>
       <use xlink:href="#DejaVuSans-30" x="63.623047"/>
      </g>
     </g>
    </g>
    <g id="ytick_6">
     <g id="line2d_11">
      <g>
       <use xlink:href="#m2bcff5e6f6" x="181.849638" y="69.150951" style="stroke: #000000; stroke-width: 0.8"/>
      </g>
     </g>
     <g id="text_11">
      <!-- 40 -->
      <g transform="translate(162.124638 72.95017)scale(0.1 -0.1)">
       <use xlink:href="#DejaVuSans-34"/>
       <use xlink:href="#DejaVuSans-30" x="63.623047"/>
      </g>
     </g>
    </g>
   </g>
   <g id="line2d_12">
    <path d="M 195.185865 265.119312 
L 200.185233 269.682496 
L 204.220198 276.251255 
L 209.887114 280.732524 
L 215.264379 283.867573 
L 221.272393 287.528211 
L 228.105533 291.410286 
L 233.379999 294.712026 
L 237.528528 297.730438 
L 243.683371 300.450983 
L 251.551507 303.590983 
L 258.856367 302.499052 
L 267.598665 301.025514 
L 273.306818 298.756908 
L 281.663681 295.615946 
L 288.003264 290.621788 
L 292.14795 283.962607 
L 295.987406 279.653553 
L 301.116902 271.842833 
L 303.413403 264.680243 
L 305.197005 258.255291 
L 307.760385 250.705015 
L 309.053875 243.774157 
L 309.353551 236.023217 
L 309.553049 230.478969 
L 307.047538 221.798374 
L 307.296709 214.62172 
L 305.949805 207.209707 
L 303.267845 200.014408 
L 300.173986 194.117327 
L 297.337617 187.215336 
L 296.525021 180.342061 
L 293.914656 172.165072 
L 291.96217 164.87114 
L 288.980286 157.506286 
L 285.79073 152.186987 
L 284.377396 145.858968 
L 282.976586 137.573027 
L 282.284888 129.612738 
L 283.678744 123.297386 
L 283.739 116.686671 
L 286.227563 109.59624 
L 290.225165 102.304785 
L 292.475162 94.870435 
L 296.06725 87.284521 
L 300.89185 81.305107 
L 307.104948 75.828343 
L 312.121051 71.360643 
L 320.158901 65.025903 
L 326.604409 60.670793 
L 334.046147 57.41559 
" clip-path="url(#p2b69fc4999)" style="fill: none; stroke: #000000; stroke-width: 1.5; stroke-linecap: square"/>
   </g>
   <g id="line2d_13">
    <path d="M 195.185865 265.119312 
L 200.382261 270.315708 
L 205.640535 275.44948 
L 211.019695 280.456446 
L 216.572994 285.269545 
L 222.345066 289.817978 
L 228.36912 294.026996 
L 234.664325 297.818495 
L 241.233541 301.112497 
L 248.06164 303.829504 
L 255.114616 305.893625 
L 262.339739 307.236257 
L 269.666897 307.8 
L 277.011196 307.542424 
L 284.276737 306.439261 
L 291.361387 304.486623 
L 298.162172 301.701953 
L 304.580874 298.1235 
L 310.529351 293.808332 
L 315.934125 288.829027 
L 320.739874 283.269365 
L 324.911599 277.219426 
L 328.4354 270.770558 
L 331.317943 264.010676 
L 333.584855 257.020242 
L 335.278331 249.869214 
L 336.454319 242.615104 
L 337.179604 235.302169 
L 337.529052 227.961668 
L 337.583219 220.613054 
L 337.426415 213.265914 
L 337.14522 205.922482 
L 336.827387 198.580545 
L 336.56099 191.236561 
L 336.433652 183.888851 
L 336.531654 176.540691 
L 336.938792 169.203164 
L 337.734814 161.89759 
L 338.993405 154.657355 
L 340.779727 147.528953 
L 343.147622 140.572076 
L 346.136689 133.858617 
L 349.769514 127.470531 
L 354.049395 121.496614 
L 358.958887 116.028346 
L 364.459481 111.155101 
L 370.492614 106.959106 
L 376.982063 103.510612 
L 383.837646 100.86372 
L 390.959961 99.053282 
L 398.245783 98.093147 
" clip-path="url(#p2b69fc4999)" style="fill: none; stroke: #0000ff; stroke-width: 1.5; stroke-linecap: square"/>
   </g>
   <g id="line2d_14">
    <path d="M 195.185865 265.119312 
L 199.658401 270.591477 
L 204.570806 274.260507 
L 210.665112 276.943854 
L 216.226293 282.351486 
L 222.73326 287.504571 
L 229.108836 290.214329 
L 236.198251 295.130504 
L 242.897061 296.633262 
L 249.841712 298.629016 
L 257.964251 300.539363 
L 265.432618 300.165034 
L 272.942598 298.526441 
L 279.975012 297.446116 
L 286.162648 293.634649 
L 292.141229 289.891822 
L 296.687463 284.596061 
L 300.974607 280.211195 
L 303.753926 273.36837 
L 305.958399 265.923944 
L 308.053701 258.544696 
L 309.249746 252.051288 
L 309.692907 244.261476 
L 309.75186 236.570821 
L 309.227874 229.666952 
L 307.760738 222.171831 
L 305.785131 214.408203 
L 304.302564 207.769444 
L 302.700853 200.827247 
L 300.825068 194.277314 
L 297.334537 187.359427 
L 294.975567 180.61509 
L 291.980189 173.195088 
L 289.547574 165.846448 
L 286.614099 158.910766 
L 283.961283 152.422216 
L 281.805305 146.183344 
L 279.723072 138.525483 
L 279.244576 130.117204 
L 279.134593 122.065393 
L 279.22404 114.463545 
L 279.987408 107.045038 
L 282.107451 100.484058 
L 283.947577 94.443536 
L 287.594 87.343695 
L 291.518908 81.792653 
L 296.120877 75.912346 
L 300.111447 70.378864 
L 304.000002 65.190511 
L 309.226214 60.815489 
L 311.0905 55.8 
" clip-path="url(#p2b69fc4999)" style="fill: none; stroke: #ff0000; stroke-width: 1.5; stroke-linecap: square"/>
   </g>
   <g id="line2d_15">
    <defs>
     <path id="m432e4892c5" d="M 0 3 
C 0.795609 3 1.55874 2.683901 2.12132 2.12132 
C 2.683901 1.55874 3 0.795609 3 0 
C 3 -0.795609 2.683901 -1.55874 2.12132 -2.12132 
C 1.55874 -2.683901 0.795609 -3 0 -3 
C -0.795609 -3 -1.55874 -2.683901 -2.12132 -2.12132 
C -2.683901 -1.55874 -3 -0.795609 -3 0 
C -3 0.795609 -2.683901 1.55874 -2.12132 2.12132 
C -1.55874 2.683901 -0.795609 3 0 3 
z
" style="stroke: #008000; stroke-opacity: 0.5"/>
    </defs>
    <g clip-path="url(#p2b69fc4999)">
     <use xlink:href="#m432e4892c5" x="192.154217" y="266.962011" style="fill: #008000; fill-opacity: 0.5; stroke: #008000; stroke-opacity: 0.5"/>
    </g>
   </g>
   <g id="line2d_16">
    <g clip-path="url(#p2b69fc4999)">
     <use xlink:href="#m432e4892c5" x="198.227398" y="271.24345" style="fill: #008000; fill-opacity: 0.5; stroke: #008000; stroke-opacity: 0.5"/>
    </g>
   </g>
   <g id="line2d_17">
    <g clip-path="url(#p2b69fc4999)">
     <use xlink:href="#m432e4892c5" x="201.703881" y="268.907022" style="fill: #008000; fill-opacity: 0.5; stroke: #008000; stroke-opacity: 0.5"/>
    </g>
   </g>
   <g id="line2d_18">
    <g clip-path="url(#p2b69fc4999)">
     <use xlink:href="#m432e4892c5" x="217.274203" y="274.630838" style="fill: #008000; fill-opacity: 0.5; stroke: #008000; stroke-opacity: 0.5"/>
    </g>
   </g>
   <g id="line2d_19">
    <g clip-path="url(#p2b69fc4999)">
     <use xlink:href="#m432e4892c5" x="212.812051" y="282.774171" style="fill: #008000; fill-opacity: 0.5; stroke: #008000; stroke-opacity: 0.5"/>
    </g>
   </g>
   <g id="line2d_20">
    <g clip-path="url(#p2b69fc4999)">
     <use xlink:href="#m432e4892c5" x="213.549538" y="297.21154" style="fill: #008000; fill-opacity: 0.5; stroke: #008000; stroke-opacity: 0.5"/>
    </g>
   </g>
   <g id="line2d_21">
    <g clip-path="url(#p2b69fc4999)">
     <use xlink:href="#m432e4892c5" x="230.896236" y="287.385427" style="fill: #008000; fill-opacity: 0.5; stroke: #008000; stroke-opacity: 0.5"/>
    </g>
   </g>
   <g id="line2d_22">
    <g clip-path="url(#p2b69fc4999)">
     <use xlink:href="#m432e4892c5" x="225.361353" y="295.58821" style="fill: #008000; fill-opacity: 0.5; stroke: #008000; stroke-opacity: 0.5"/>
    </g>
   </g>
   <g id="line2d_23">
    <g clip-path="url(#p2b69fc4999)">
     <use xlink:href="#m432e4892c5" x="240.334459" y="293.199227" style="fill: #008000; fill-opacity: 0.5; stroke: #008000; stroke-opacity: 0.5"/>
    </g>
   </g>
   <g id="line2d_24">
    <g clip-path="url(#p2b69fc4999)">
     <use xlink:href="#m432e4892c5" x="251.968901" y="299.798742" style="fill: #008000; fill-opacity: 0.5; stroke: #008000; stroke-opacity: 0.5"/>
    </g>
   </g>
   <g id="line2d_25">
    <g clip-path="url(#p2b69fc4999)">
     <use xlink:href="#m432e4892c5" x="246.293306" y="305.417368" style="fill: #008000; fill-opacity: 0.5; stroke: #008000; stroke-opacity: 0.5"/>
    </g>
   </g>
   <g id="line2d_26">
    <g clip-path="url(#p2b69fc4999)">
     <use xlink:href="#m432e4892c5" x="261.502778" y="298.673913" style="fill: #008000; fill-opacity: 0.5; stroke: #008000; stroke-opacity: 0.5"/>
    </g>
   </g>
   <g id="line2d_27">
    <g clip-path="url(#p2b69fc4999)">
     <use xlink:href="#m432e4892c5" x="267.79123" y="288.660312" style="fill: #008000; fill-opacity: 0.5; stroke: #008000; stroke-opacity: 0.5"/>
    </g>
   </g>
   <g id="line2d_28">
    <g clip-path="url(#p2b69fc4999)">
     <use xlink:href="#m432e4892c5" x="271.959145" y="299.450561" style="fill: #008000; fill-opacity: 0.5; stroke: #008000; stroke-opacity: 0.5"/>
    </g>
   </g>
   <g id="line2d_29">
    <g clip-path="url(#p2b69fc4999)">
     <use xlink:href="#m432e4892c5" x="285.445456" y="287.126469" style="fill: #008000; fill-opacity: 0.5; stroke: #008000; stroke-opacity: 0.5"/>
    </g>
   </g>
   <g id="line2d_30">
    <g clip-path="url(#p2b69fc4999)">
     <use xlink:href="#m432e4892c5" x="288.990401" y="290.108846" style="fill: #008000; fill-opacity: 0.5; stroke: #008000; stroke-opacity: 0.5"/>
    </g>
   </g>
   <g id="line2d_31">
    <g clip-path="url(#p2b69fc4999)">
     <use xlink:href="#m432e4892c5" x="289.466185" y="277.548613" style="fill: #008000; fill-opacity: 0.5; stroke: #008000; stroke-opacity: 0.5"/>
    </g>
   </g>
   <g id="line2d_32">
    <g clip-path="url(#p2b69fc4999)">
     <use xlink:href="#m432e4892c5" x="297.366272" y="282.713803" style="fill: #008000; fill-opacity: 0.5; stroke: #008000; stroke-opacity: 0.5"/>
    </g>
   </g>
   <g id="line2d_33">
    <g clip-path="url(#p2b69fc4999)">
     <use xlink:href="#m432e4892c5" x="302.065379" y="261.698664" style="fill: #008000; fill-opacity: 0.5; stroke: #008000; stroke-opacity: 0.5"/>
    </g>
   </g>
   <g id="line2d_34">
    <g clip-path="url(#p2b69fc4999)">
     <use xlink:href="#m432e4892c5" x="303.352929" y="261.296909" style="fill: #008000; fill-opacity: 0.5; stroke: #008000; stroke-opacity: 0.5"/>
    </g>
   </g>
   <g id="line2d_35">
    <g clip-path="url(#p2b69fc4999)">
     <use xlink:href="#m432e4892c5" x="302.824651" y="258.97299" style="fill: #008000; fill-opacity: 0.5; stroke: #008000; stroke-opacity: 0.5"/>
    </g>
   </g>
   <g id="line2d_36">
    <g clip-path="url(#p2b69fc4999)">
     <use xlink:href="#m432e4892c5" x="304.966579" y="260.687259" style="fill: #008000; fill-opacity: 0.5; stroke: #008000; stroke-opacity: 0.5"/>
    </g>
   </g>
   <g id="line2d_37">
    <g clip-path="url(#p2b69fc4999)">
     <use xlink:href="#m432e4892c5" x="310.880798" y="243.00503" style="fill: #008000; fill-opacity: 0.5; stroke: #008000; stroke-opacity: 0.5"/>
    </g>
   </g>
   <g id="line2d_38">
    <g clip-path="url(#p2b69fc4999)">
     <use xlink:href="#m432e4892c5" x="308.246913" y="230.381139" style="fill: #008000; fill-opacity: 0.5; stroke: #008000; stroke-opacity: 0.5"/>
    </g>
   </g>
   <g id="line2d_39">
    <g clip-path="url(#p2b69fc4999)">
     <use xlink:href="#m432e4892c5" x="311.082415" y="238.034377" style="fill: #008000; fill-opacity: 0.5; stroke: #008000; stroke-opacity: 0.5"/>
    </g>
   </g>
   <g id="line2d_40">
    <g clip-path="url(#p2b69fc4999)">
     <use xlink:href="#m432e4892c5" x="305.521074" y="217.186562" style="fill: #008000; fill-opacity: 0.5; stroke: #008000; stroke-opacity: 0.5"/>
    </g>
   </g>
   <g id="line2d_41">
    <g clip-path="url(#p2b69fc4999)">
     <use xlink:href="#m432e4892c5" x="304.913561" y="213.349074" style="fill: #008000; fill-opacity: 0.5; stroke: #008000; stroke-opacity: 0.5"/>
    </g>
   </g>
   <g id="line2d_42">
    <g clip-path="url(#p2b69fc4999)">
     <use xlink:href="#m432e4892c5" x="305.985672" y="208.316013" style="fill: #008000; fill-opacity: 0.5; stroke: #008000; stroke-opacity: 0.5"/>
    </g>
   </g>
   <g id="line2d_43">
    <g clip-path="url(#p2b69fc4999)">
     <use xlink:href="#m432e4892c5" x="306.240443" y="202.817034" style="fill: #008000; fill-opacity: 0.5; stroke: #008000; stroke-opacity: 0.5"/>
    </g>
   </g>
   <g id="line2d_44">
    <g clip-path="url(#p2b69fc4999)">
     <use xlink:href="#m432e4892c5" x="305.522117" y="196.494953" style="fill: #008000; fill-opacity: 0.5; stroke: #008000; stroke-opacity: 0.5"/>
    </g>
   </g>
   <g id="line2d_45">
    <g clip-path="url(#p2b69fc4999)">
     <use xlink:href="#m432e4892c5" x="295.814037" y="188.839314" style="fill: #008000; fill-opacity: 0.5; stroke: #008000; stroke-opacity: 0.5"/>
    </g>
   </g>
   <g id="line2d_46">
    <g clip-path="url(#p2b69fc4999)">
     <use xlink:href="#m432e4892c5" x="296.86784" y="180.924276" style="fill: #008000; fill-opacity: 0.5; stroke: #008000; stroke-opacity: 0.5"/>
    </g>
   </g>
   <g id="line2d_47">
    <g clip-path="url(#p2b69fc4999)">
     <use xlink:href="#m432e4892c5" x="294.071042" y="171.478972" style="fill: #008000; fill-opacity: 0.5; stroke: #008000; stroke-opacity: 0.5"/>
    </g>
   </g>
   <g id="line2d_48">
    <g clip-path="url(#p2b69fc4999)">
     <use xlink:href="#m432e4892c5" x="293.214815" y="163.705639" style="fill: #008000; fill-opacity: 0.5; stroke: #008000; stroke-opacity: 0.5"/>
    </g>
   </g>
   <g id="line2d_49">
    <g clip-path="url(#p2b69fc4999)">
     <use xlink:href="#m432e4892c5" x="289.377694" y="148.452763" style="fill: #008000; fill-opacity: 0.5; stroke: #008000; stroke-opacity: 0.5"/>
    </g>
   </g>
   <g id="line2d_50">
    <g clip-path="url(#p2b69fc4999)">
     <use xlink:href="#m432e4892c5" x="287.771335" y="156.110354" style="fill: #008000; fill-opacity: 0.5; stroke: #008000; stroke-opacity: 0.5"/>
    </g>
   </g>
   <g id="line2d_51">
    <g clip-path="url(#p2b69fc4999)">
     <use xlink:href="#m432e4892c5" x="284.653078" y="145.772113" style="fill: #008000; fill-opacity: 0.5; stroke: #008000; stroke-opacity: 0.5"/>
    </g>
   </g>
   <g id="line2d_52">
    <g clip-path="url(#p2b69fc4999)">
     <use xlink:href="#m432e4892c5" x="285.033127" y="129.997618" style="fill: #008000; fill-opacity: 0.5; stroke: #008000; stroke-opacity: 0.5"/>
    </g>
   </g>
   <g id="line2d_53">
    <g clip-path="url(#p2b69fc4999)">
     <use xlink:href="#m432e4892c5" x="283.641558" y="124.598398" style="fill: #008000; fill-opacity: 0.5; stroke: #008000; stroke-opacity: 0.5"/>
    </g>
   </g>
   <g id="line2d_54">
    <g clip-path="url(#p2b69fc4999)">
     <use xlink:href="#m432e4892c5" x="286.869998" y="120.535769" style="fill: #008000; fill-opacity: 0.5; stroke: #008000; stroke-opacity: 0.5"/>
    </g>
   </g>
   <g id="line2d_55">
    <g clip-path="url(#p2b69fc4999)">
     <use xlink:href="#m432e4892c5" x="280.04499" y="113.273714" style="fill: #008000; fill-opacity: 0.5; stroke: #008000; stroke-opacity: 0.5"/>
    </g>
   </g>
   <g id="line2d_56">
    <g clip-path="url(#p2b69fc4999)">
     <use xlink:href="#m432e4892c5" x="280.764177" y="97.193377" style="fill: #008000; fill-opacity: 0.5; stroke: #008000; stroke-opacity: 0.5"/>
    </g>
   </g>
   <g id="line2d_57">
    <g clip-path="url(#p2b69fc4999)">
     <use xlink:href="#m432e4892c5" x="288.381796" y="106.911503" style="fill: #008000; fill-opacity: 0.5; stroke: #008000; stroke-opacity: 0.5"/>
    </g>
   </g>
   <g id="line2d_58">
    <g clip-path="url(#p2b69fc4999)">
     <use xlink:href="#m432e4892c5" x="291.631833" y="94.783539" style="fill: #008000; fill-opacity: 0.5; stroke: #008000; stroke-opacity: 0.5"/>
    </g>
   </g>
   <g id="line2d_59">
    <g clip-path="url(#p2b69fc4999)">
     <use xlink:href="#m432e4892c5" x="294.739641" y="85.789923" style="fill: #008000; fill-opacity: 0.5; stroke: #008000; stroke-opacity: 0.5"/>
    </g>
   </g>
   <g id="line2d_60">
    <g clip-path="url(#p2b69fc4999)">
     <use xlink:href="#m432e4892c5" x="296.035794" y="81.421042" style="fill: #008000; fill-opacity: 0.5; stroke: #008000; stroke-opacity: 0.5"/>
    </g>
   </g>
   <g id="line2d_61">
    <g clip-path="url(#p2b69fc4999)">
     <use xlink:href="#m432e4892c5" x="304.657705" y="74.550519" style="fill: #008000; fill-opacity: 0.5; stroke: #008000; stroke-opacity: 0.5"/>
    </g>
   </g>
   <g id="line2d_62">
    <g clip-path="url(#p2b69fc4999)">
     <use xlink:href="#m432e4892c5" x="316.816295" y="70.586224" style="fill: #008000; fill-opacity: 0.5; stroke: #008000; stroke-opacity: 0.5"/>
    </g>
   </g>
   <g id="line2d_63">
    <g clip-path="url(#p2b69fc4999)">
     <use xlink:href="#m432e4892c5" x="324.351106" y="66.893123" style="fill: #008000; fill-opacity: 0.5; stroke: #008000; stroke-opacity: 0.5"/>
    </g>
   </g>
   <g id="line2d_64">
    <g clip-path="url(#p2b69fc4999)">
     <use xlink:href="#m432e4892c5" x="330.534572" y="56.18423" style="fill: #008000; fill-opacity: 0.5; stroke: #008000; stroke-opacity: 0.5"/>
    </g>
   </g>
   <g id="line2d_65">
    <g clip-path="url(#p2b69fc4999)">
     <use xlink:href="#m432e4892c5" x="334.587363" y="57.660896" style="fill: #008000; fill-opacity: 0.5; stroke: #008000; stroke-opacity: 0.5"/>
    </g>
   </g>
   <g id="patch_3">
    <path d="M 181.849638 320.4 
L 181.849638 43.2 
" style="fill: none; stroke: #000000; stroke-width: 0.8; stroke-linejoin: miter; stroke-linecap: square"/>
   </g>
   <g id="patch_4">
    <path d="M 408.550362 320.4 
L 408.550362 43.2 
" style="fill: none; stroke: #000000; stroke-width: 0.8; stroke-linejoin: miter; stroke-linecap: square"/>
   </g>
   <g id="patch_5">
    <path d="M 181.849638 320.4 
L 408.550362 320.4 
" style="fill: none; stroke: #000000; stroke-width: 0.8; stroke-linejoin: miter; stroke-linecap: square"/>
   </g>
   <g id="patch_6">
    <path d="M 181.849638 43.2 
L 408.550362 43.2 
" style="fill: none; stroke: #000000; stroke-width: 0.8; stroke-linejoin: miter; stroke-linecap: square"/>
   </g>
   <g id="text_12">
    <!-- Particle Filter -->
    <g transform="translate(256.264687 37.2)scale(0.12 -0.12)">
     <defs>
      <path id="DejaVuSans-50" d="M 1259 4147 
L 1259 2394 
L 2053 2394 
Q 2494 2394 2734 2622 
Q 2975 2850 2975 3272 
Q 2975 3691 2734 3919 
Q 2494 4147 2053 4147 
L 1259 4147 
z
M 628 4666 
L 2053 4666 
Q 2838 4666 3239 4311 
Q 3641 3956 3641 3272 
Q 3641 2581 3239 2228 
Q 2838 1875 2053 1875 
L 1259 1875 
L 1259 0 
L 628 0 
L 628 4666 
z
" transform="scale(0.015625)"/>
      <path id="DejaVuSans-61" d="M 2194 1759 
Q 1497 1759 1228 1600 
Q 959 1441 959 1056 
Q 959 750 1161 570 
Q 1363 391 1709 391 
Q 2188 391 2477 730 
Q 2766 1069 2766 1631 
L 2766 1759 
L 2194 1759 
z
M 3341 1997 
L 3341 0 
L 2766 0 
L 2766 531 
Q 2569 213 2275 61 
Q 1981 -91 1556 -91 
Q 1019 -91 701 211 
Q 384 513 384 1019 
Q 384 1609 779 1909 
Q 1175 2209 1959 2209 
L 2766 2209 
L 2766 2266 
Q 2766 2663 2505 2880 
Q 2244 3097 1772 3097 
Q 1472 3097 1187 3025 
Q 903 2953 641 2809 
L 641 3341 
Q 956 3463 1253 3523 
Q 1550 3584 1831 3584 
Q 2591 3584 2966 3190 
Q 3341 2797 3341 1997 
z
" transform="scale(0.015625)"/>
      <path id="DejaVuSans-72" d="M 2631 2963 
Q 2534 3019 2420 3045 
Q 2306 3072 2169 3072 
Q 1681 3072 1420 2755 
Q 1159 2438 1159 1844 
L 1159 0 
L 581 0 
L 581 3500 
L 1159 3500 
L 1159 2956 
Q 1341 3275 1631 3429 
Q 1922 3584 2338 3584 
Q 2397 3584 2469 3576 
Q 2541 3569 2628 3553 
L 2631 2963 
z
" transform="scale(0.015625)"/>
      <path id="DejaVuSans-74" d="M 1172 4494 
L 1172 3500 
L 2356 3500 
L 2356 3053 
L 1172 3053 
L 1172 1153 
Q 1172 725 1289 603 
Q 1406 481 1766 481 
L 2356 481 
L 2356 0 
L 1766 0 
Q 1100 0 847 248 
Q 594 497 594 1153 
L 594 3053 
L 172 3053 
L 172 3500 
L 594 3500 
L 594 4494 
L 1172 4494 
z
" transform="scale(0.015625)"/>
      <path id="DejaVuSans-69" d="M 603 3500 
L 1178 3500 
L 1178 0 
L 603 0 
L 603 3500 
z
M 603 4863 
L 1178 4863 
L 1178 4134 
L 603 4134 
L 603 4863 
z
" transform="scale(0.015625)"/>
      <path id="DejaVuSans-63" d="M 3122 3366 
L 3122 2828 
Q 2878 2963 2633 3030 
Q 2388 3097 2138 3097 
Q 1578 3097 1268 2742 
Q 959 2388 959 1747 
Q 959 1106 1268 751 
Q 1578 397 2138 397 
Q 2388 397 2633 464 
Q 2878 531 3122 666 
L 3122 134 
Q 2881 22 2623 -34 
Q 2366 -91 2075 -91 
Q 1284 -91 818 406 
Q 353 903 353 1747 
Q 353 2603 823 3093 
Q 1294 3584 2113 3584 
Q 2378 3584 2631 3529 
Q 2884 3475 3122 3366 
z
" transform="scale(0.015625)"/>
      <path id="DejaVuSans-6c" d="M 603 4863 
L 1178 4863 
L 1178 0 
L 603 0 
L 603 4863 
z
" transform="scale(0.015625)"/>
      <path id="DejaVuSans-65" d="M 3597 1894 
L 3597 1613 
L 953 1613 
Q 991 1019 1311 708 
Q 1631 397 2203 397 
Q 2534 397 2845 478 
Q 3156 559 3463 722 
L 3463 178 
Q 3153 47 2828 -22 
Q 2503 -91 2169 -91 
Q 1331 -91 842 396 
Q 353 884 353 1716 
Q 353 2575 817 3079 
Q 1281 3584 2069 3584 
Q 2775 3584 3186 3129 
Q 3597 2675 3597 1894 
z
M 3022 2063 
Q 3016 2534 2758 2815 
Q 2500 3097 2075 3097 
Q 1594 3097 1305 2825 
Q 1016 2553 972 2059 
L 3022 2063 
z
" transform="scale(0.015625)"/>
      <path id="DejaVuSans-20" transform="scale(0.015625)"/>
      <path id="DejaVuSans-46" d="M 628 4666 
L 3309 4666 
L 3309 4134 
L 1259 4134 
L 1259 2759 
L 3109 2759 
L 3109 2228 
L 1259 2228 
L 1259 0 
L 628 0 
L 628 4666 
z
" transform="scale(0.015625)"/>
     </defs>
     <use xlink:href="#DejaVuSans-50"/>
     <use xlink:href="#DejaVuSans-61" x="55.802734"/>
     <use xlink:href="#DejaVuSans-72" x="117.082031"/>
     <use xlink:href="#DejaVuSans-74" x="158.195312"/>
     <use xlink:href="#DejaVuSans-69" x="197.404297"/>
     <use xlink:href="#DejaVuSans-63" x="225.1875"/>
     <use xlink:href="#DejaVuSans-6c" x="280.167969"/>
     <use xlink:href="#DejaVuSans-65" x="307.951172"/>
     <use xlink:href="#DejaVuSans-20" x="369.474609"/>
     <use xlink:href="#DejaVuSans-46" x="401.261719"/>
     <use xlink:href="#DejaVuSans-69" x="451.53125"/>
     <use xlink:href="#DejaVuSans-6c" x="479.314453"/>
     <use xlink:href="#DejaVuSans-74" x="507.097656"/>
     <use xlink:href="#DejaVuSans-65" x="546.306641"/>
     <use xlink:href="#DejaVuSans-72" x="607.830078"/>
    </g>
   </g>
   <g id="legend_1">
    <g id="patch_7">
     <path d="M 188.849638 95.234375 
L 305.085576 95.234375 
Q 307.085576 95.234375 307.085576 93.234375 
L 307.085576 50.2 
Q 307.085576 48.2 305.085576 48.2 
L 188.849638 48.2 
Q 186.849638 48.2 186.849638 50.2 
L 186.849638 93.234375 
Q 186.849638 95.234375 188.849638 95.234375 
z
" style="fill: #ffffff; opacity: 0.8; stroke: #cccccc; stroke-linejoin: miter"/>
    </g>
    <g id="line2d_66">
     <path d="M 190.849638 56.298437 
L 200.849638 56.298437 
L 210.849638 56.298437 
" style="fill: none; stroke: #000000; stroke-width: 1.5; stroke-linecap: square"/>
    </g>
    <g id="text_13">
     <!-- True states -->
     <g transform="translate(218.849638 59.798437)scale(0.1 -0.1)">
      <defs>
       <path id="DejaVuSans-54" d="M -19 4666 
L 3928 4666 
L 3928 4134 
L 2272 4134 
L 2272 0 
L 1638 0 
L 1638 4134 
L -19 4134 
L -19 4666 
z
" transform="scale(0.015625)"/>
       <path id="DejaVuSans-75" d="M 544 1381 
L 544 3500 
L 1119 3500 
L 1119 1403 
Q 1119 906 1312 657 
Q 1506 409 1894 409 
Q 2359 409 2629 706 
Q 2900 1003 2900 1516 
L 2900 3500 
L 3475 3500 
L 3475 0 
L 2900 0 
L 2900 538 
Q 2691 219 2414 64 
Q 2138 -91 1772 -91 
Q 1169 -91 856 284 
Q 544 659 544 1381 
z
M 1991 3584 
L 1991 3584 
z
" transform="scale(0.015625)"/>
       <path id="DejaVuSans-73" d="M 2834 3397 
L 2834 2853 
Q 2591 2978 2328 3040 
Q 2066 3103 1784 3103 
Q 1356 3103 1142 2972 
Q 928 2841 928 2578 
Q 928 2378 1081 2264 
Q 1234 2150 1697 2047 
L 1894 2003 
Q 2506 1872 2764 1633 
Q 3022 1394 3022 966 
Q 3022 478 2636 193 
Q 2250 -91 1575 -91 
Q 1294 -91 989 -36 
Q 684 19 347 128 
L 347 722 
Q 666 556 975 473 
Q 1284 391 1588 391 
Q 1994 391 2212 530 
Q 2431 669 2431 922 
Q 2431 1156 2273 1281 
Q 2116 1406 1581 1522 
L 1381 1569 
Q 847 1681 609 1914 
Q 372 2147 372 2553 
Q 372 3047 722 3315 
Q 1072 3584 1716 3584 
Q 2034 3584 2315 3537 
Q 2597 3491 2834 3397 
z
" transform="scale(0.015625)"/>
      </defs>
      <use xlink:href="#DejaVuSans-54"/>
      <use xlink:href="#DejaVuSans-72" x="46.333984"/>
      <use xlink:href="#DejaVuSans-75" x="87.447266"/>
      <use xlink:href="#DejaVuSans-65" x="150.826172"/>
      <use xlink:href="#DejaVuSans-20" x="212.349609"/>
      <use xlink:href="#DejaVuSans-73" x="244.136719"/>
      <use xlink:href="#DejaVuSans-74" x="296.236328"/>
      <use xlink:href="#DejaVuSans-61" x="335.445312"/>
      <use xlink:href="#DejaVuSans-74" x="396.724609"/>
      <use xlink:href="#DejaVuSans-65" x="435.933594"/>
      <use xlink:href="#DejaVuSans-73" x="497.457031"/>
     </g>
    </g>
    <g id="line2d_67">
     <path d="M 190.849638 70.976562 
L 200.849638 70.976562 
L 210.849638 70.976562 
" style="fill: none; stroke: #0000ff; stroke-width: 1.5; stroke-linecap: square"/>
    </g>
    <g id="text_14">
     <!-- Dead reckoning -->
     <g transform="translate(218.849638 74.476562)scale(0.1 -0.1)">
      <defs>
       <path id="DejaVuSans-44" d="M 1259 4147 
L 1259 519 
L 2022 519 
Q 2988 519 3436 956 
Q 3884 1394 3884 2338 
Q 3884 3275 3436 3711 
Q 2988 4147 2022 4147 
L 1259 4147 
z
M 628 4666 
L 1925 4666 
Q 3281 4666 3915 4102 
Q 4550 3538 4550 2338 
Q 4550 1131 3912 565 
Q 3275 0 1925 0 
L 628 0 
L 628 4666 
z
" transform="scale(0.015625)"/>
       <path id="DejaVuSans-64" d="M 2906 2969 
L 2906 4863 
L 3481 4863 
L 3481 0 
L 2906 0 
L 2906 525 
Q 2725 213 2448 61 
Q 2172 -91 1784 -91 
Q 1150 -91 751 415 
Q 353 922 353 1747 
Q 353 2572 751 3078 
Q 1150 3584 1784 3584 
Q 2172 3584 2448 3432 
Q 2725 3281 2906 2969 
z
M 947 1747 
Q 947 1113 1208 752 
Q 1469 391 1925 391 
Q 2381 391 2643 752 
Q 2906 1113 2906 1747 
Q 2906 2381 2643 2742 
Q 2381 3103 1925 3103 
Q 1469 3103 1208 2742 
Q 947 2381 947 1747 
z
" transform="scale(0.015625)"/>
       <path id="DejaVuSans-6b" d="M 581 4863 
L 1159 4863 
L 1159 1991 
L 2875 3500 
L 3609 3500 
L 1753 1863 
L 3688 0 
L 2938 0 
L 1159 1709 
L 1159 0 
L 581 0 
L 581 4863 
z
" transform="scale(0.015625)"/>
       <path id="DejaVuSans-6f" d="M 1959 3097 
Q 1497 3097 1228 2736 
Q 959 2375 959 1747 
Q 959 1119 1226 758 
Q 1494 397 1959 397 
Q 2419 397 2687 759 
Q 2956 1122 2956 1747 
Q 2956 2369 2687 2733 
Q 2419 3097 1959 3097 
z
M 1959 3584 
Q 2709 3584 3137 3096 
Q 3566 2609 3566 1747 
Q 3566 888 3137 398 
Q 2709 -91 1959 -91 
Q 1206 -91 779 398 
Q 353 888 353 1747 
Q 353 2609 779 3096 
Q 1206 3584 1959 3584 
z
" transform="scale(0.015625)"/>
       <path id="DejaVuSans-6e" d="M 3513 2113 
L 3513 0 
L 2938 0 
L 2938 2094 
Q 2938 2591 2744 2837 
Q 2550 3084 2163 3084 
Q 1697 3084 1428 2787 
Q 1159 2491 1159 1978 
L 1159 0 
L 581 0 
L 581 3500 
L 1159 3500 
L 1159 2956 
Q 1366 3272 1645 3428 
Q 1925 3584 2291 3584 
Q 2894 3584 3203 3211 
Q 3513 2838 3513 2113 
z
" transform="scale(0.015625)"/>
       <path id="DejaVuSans-67" d="M 2906 1791 
Q 2906 2416 2648 2759 
Q 2391 3103 1925 3103 
Q 1463 3103 1205 2759 
Q 947 2416 947 1791 
Q 947 1169 1205 825 
Q 1463 481 1925 481 
Q 2391 481 2648 825 
Q 2906 1169 2906 1791 
z
M 3481 434 
Q 3481 -459 3084 -895 
Q 2688 -1331 1869 -1331 
Q 1566 -1331 1297 -1286 
Q 1028 -1241 775 -1147 
L 775 -588 
Q 1028 -725 1275 -790 
Q 1522 -856 1778 -856 
Q 2344 -856 2625 -561 
Q 2906 -266 2906 331 
L 2906 616 
Q 2728 306 2450 153 
Q 2172 0 1784 0 
Q 1141 0 747 490 
Q 353 981 353 1791 
Q 353 2603 747 3093 
Q 1141 3584 1784 3584 
Q 2172 3584 2450 3431 
Q 2728 3278 2906 2969 
L 2906 3500 
L 3481 3500 
L 3481 434 
z
" transform="scale(0.015625)"/>
      </defs>
      <use xlink:href="#DejaVuSans-44"/>
      <use xlink:href="#DejaVuSans-65" x="77.001953"/>
      <use xlink:href="#DejaVuSans-61" x="138.525391"/>
      <use xlink:href="#DejaVuSans-64" x="199.804688"/>
      <use xlink:href="#DejaVuSans-20" x="263.28125"/>
      <use xlink:href="#DejaVuSans-72" x="295.068359"/>
      <use xlink:href="#DejaVuSans-65" x="333.931641"/>
      <use xlink:href="#DejaVuSans-63" x="395.455078"/>
      <use xlink:href="#DejaVuSans-6b" x="450.435547"/>
      <use xlink:href="#DejaVuSans-6f" x="504.720703"/>
      <use xlink:href="#DejaVuSans-6e" x="565.902344"/>
      <use xlink:href="#DejaVuSans-69" x="629.28125"/>
      <use xlink:href="#DejaVuSans-6e" x="657.064453"/>
      <use xlink:href="#DejaVuSans-67" x="720.443359"/>
     </g>
    </g>
    <g id="line2d_68">
     <path d="M 190.849638 85.654687 
L 200.849638 85.654687 
L 210.849638 85.654687 
" style="fill: none; stroke: #ff0000; stroke-width: 1.5; stroke-linecap: square"/>
    </g>
    <g id="text_15">
     <!-- Estimated states -->
     <g transform="translate(218.849638 89.154687)scale(0.1 -0.1)">
      <defs>
       <path id="DejaVuSans-45" d="M 628 4666 
L 3578 4666 
L 3578 4134 
L 1259 4134 
L 1259 2753 
L 3481 2753 
L 3481 2222 
L 1259 2222 
L 1259 531 
L 3634 531 
L 3634 0 
L 628 0 
L 628 4666 
z
" transform="scale(0.015625)"/>
       <path id="DejaVuSans-6d" d="M 3328 2828 
Q 3544 3216 3844 3400 
Q 4144 3584 4550 3584 
Q 5097 3584 5394 3201 
Q 5691 2819 5691 2113 
L 5691 0 
L 5113 0 
L 5113 2094 
Q 5113 2597 4934 2840 
Q 4756 3084 4391 3084 
Q 3944 3084 3684 2787 
Q 3425 2491 3425 1978 
L 3425 0 
L 2847 0 
L 2847 2094 
Q 2847 2600 2669 2842 
Q 2491 3084 2119 3084 
Q 1678 3084 1418 2786 
Q 1159 2488 1159 1978 
L 1159 0 
L 581 0 
L 581 3500 
L 1159 3500 
L 1159 2956 
Q 1356 3278 1631 3431 
Q 1906 3584 2284 3584 
Q 2666 3584 2933 3390 
Q 3200 3197 3328 2828 
z
" transform="scale(0.015625)"/>
      </defs>
      <use xlink:href="#DejaVuSans-45"/>
      <use xlink:href="#DejaVuSans-73" x="63.183594"/>
      <use xlink:href="#DejaVuSans-74" x="115.283203"/>
      <use xlink:href="#DejaVuSans-69" x="154.492188"/>
      <use xlink:href="#DejaVuSans-6d" x="182.275391"/>
      <use xlink:href="#DejaVuSans-61" x="279.6875"/>
      <use xlink:href="#DejaVuSans-74" x="340.966797"/>
      <use xlink:href="#DejaVuSans-65" x="380.175781"/>
      <use xlink:href="#DejaVuSans-64" x="441.699219"/>
      <use xlink:href="#DejaVuSans-20" x="505.175781"/>
      <use xlink:href="#DejaVuSans-73" x="536.962891"/>
      <use xlink:href="#DejaVuSans-74" x="589.0625"/>
      <use xlink:href="#DejaVuSans-61" x="628.271484"/>
      <use xlink:href="#DejaVuSans-74" x="689.550781"/>
      <use xlink:href="#DejaVuSans-65" x="728.759766"/>
      <use xlink:href="#DejaVuSans-73" x="790.283203"/>
     </g>
    </g>
   </g>
  </g>
 </g>
 <defs>
  <clipPath id="p2b69fc4999">
   <rect x="181.849638" y="43.2" width="226.700723" height="277.2"/>
  </clipPath>
 </defs>
</svg>
